<svg width="207" height="168" viewBox="0 0 207 168" fill="none" xmlns="http://www.w3.org/2000/svg">
<g filter="url(#filter0_d_2246_3843)">
<path fill-rule="evenodd" clip-rule="evenodd" d="M176 153.25H20C18.4069 153.245 16.8808 152.608 15.7561 151.48C14.6315 150.351 14 148.823 14 147.23L14 31.8198C14 28.4998 16.7 25.7998 20.02 25.7998H175.99C179.32 25.7998 182.01 28.4998 182.01 31.8198V147.22C182.01 150.55 179.31 153.25 175.99 153.25" fill="white"/>
</g>
<path d="M34.3068 103.273H35.517L37.9375 107.347H38.0398L40.4602 103.273H41.6705L38.517 108.403V112H37.4602V108.403L34.3068 103.273ZM45.1142 112.136C44.5233 112.136 44.0049 111.996 43.5588 111.714C43.1157 111.433 42.7691 111.04 42.5191 110.534C42.2719 110.028 42.1483 109.437 42.1483 108.761C42.1483 108.08 42.2719 107.484 42.5191 106.976C42.7691 106.467 43.1157 106.072 43.5588 105.791C44.0049 105.51 44.5233 105.369 45.1142 105.369C45.7051 105.369 46.2222 105.51 46.6654 105.791C47.1114 106.072 47.458 106.467 47.7051 106.976C47.9551 107.484 48.0801 108.08 48.0801 108.761C48.0801 109.437 47.9551 110.028 47.7051 110.534C47.458 111.04 47.1114 111.433 46.6654 111.714C46.2222 111.996 45.7051 112.136 45.1142 112.136ZM45.1142 111.233C45.5631 111.233 45.9324 111.118 46.2222 110.888C46.512 110.658 46.7264 110.355 46.8657 109.98C47.0049 109.605 47.0745 109.199 47.0745 108.761C47.0745 108.324 47.0049 107.916 46.8657 107.538C46.7264 107.161 46.512 106.855 46.2222 106.622C45.9324 106.389 45.5631 106.273 45.1142 106.273C44.6654 106.273 44.2961 106.389 44.0063 106.622C43.7165 106.855 43.502 107.161 43.3628 107.538C43.2236 107.916 43.154 108.324 43.154 108.761C43.154 109.199 43.2236 109.605 43.3628 109.98C43.502 110.355 43.7165 110.658 44.0063 110.888C44.2961 111.118 44.6654 111.233 45.1142 111.233ZM54.2203 109.324V105.455H55.226V112H54.2203V110.892H54.1521C53.9987 111.224 53.7601 111.507 53.4362 111.74C53.1123 111.97 52.7033 112.085 52.2089 112.085C51.7998 112.085 51.4362 111.996 51.118 111.817C50.7998 111.635 50.5498 111.362 50.368 110.999C50.1862 110.632 50.0953 110.17 50.0953 109.614V105.455H51.101V109.545C51.101 110.023 51.2345 110.403 51.5015 110.688C51.7714 110.972 52.1152 111.114 52.5328 111.114C52.7828 111.114 53.0371 111.05 53.2956 110.922C53.5569 110.794 53.7757 110.598 53.9518 110.334C54.1308 110.07 54.2203 109.733 54.2203 109.324ZM57.548 112V105.455H58.5195V106.443H58.5877C58.707 106.119 58.923 105.857 59.2355 105.655C59.548 105.453 59.9002 105.352 60.2923 105.352C60.3661 105.352 60.4585 105.354 60.5693 105.357C60.6801 105.359 60.7639 105.364 60.8207 105.369V106.392C60.7866 106.384 60.7085 106.371 60.5863 106.354C60.467 106.334 60.3406 106.324 60.207 106.324C59.8889 106.324 59.6048 106.391 59.3548 106.524C59.1076 106.655 58.9116 106.837 58.7667 107.07C58.6247 107.3 58.5536 107.562 58.5536 107.858V112H57.548ZM67.3535 103.273V112H66.3478V103.273H67.3535ZM72.3345 112.136C71.7436 112.136 71.2252 111.996 70.7791 111.714C70.336 111.433 69.9894 111.04 69.7394 110.534C69.4922 110.028 69.3686 109.437 69.3686 108.761C69.3686 108.08 69.4922 107.484 69.7394 106.976C69.9894 106.467 70.336 106.072 70.7791 105.791C71.2252 105.51 71.7436 105.369 72.3345 105.369C72.9255 105.369 73.4425 105.51 73.8857 105.791C74.3317 106.072 74.6783 106.467 74.9255 106.976C75.1755 107.484 75.3005 108.08 75.3005 108.761C75.3005 109.437 75.1755 110.028 74.9255 110.534C74.6783 111.04 74.3317 111.433 73.8857 111.714C73.4425 111.996 72.9255 112.136 72.3345 112.136ZM72.3345 111.233C72.7834 111.233 73.1527 111.118 73.4425 110.888C73.7323 110.658 73.9468 110.355 74.086 109.98C74.2252 109.605 74.2948 109.199 74.2948 108.761C74.2948 108.324 74.2252 107.916 74.086 107.538C73.9468 107.161 73.7323 106.855 73.4425 106.622C73.1527 106.389 72.7834 106.273 72.3345 106.273C71.8857 106.273 71.5164 106.389 71.2266 106.622C70.9368 106.855 70.7223 107.161 70.5831 107.538C70.4439 107.916 70.3743 108.324 70.3743 108.761C70.3743 109.199 70.4439 109.605 70.5831 109.98C70.7223 110.355 70.9368 110.658 71.2266 110.888C71.5164 111.118 71.8857 111.233 72.3345 111.233ZM79.9577 114.591C79.4719 114.591 79.0542 114.528 78.7048 114.403C78.3554 114.281 78.0642 114.119 77.8312 113.918C77.6011 113.719 77.4179 113.506 77.2815 113.278L78.0827 112.716C78.1736 112.835 78.2886 112.972 78.4278 113.125C78.567 113.281 78.7574 113.416 78.9989 113.53C79.2432 113.646 79.5628 113.705 79.9577 113.705C80.4861 113.705 80.9221 113.577 81.2659 113.321C81.6096 113.065 81.7815 112.665 81.7815 112.119V110.79H81.6963C81.6224 110.909 81.5173 111.057 81.381 111.233C81.2474 111.406 81.0542 111.561 80.8014 111.697C80.5514 111.831 80.2133 111.898 79.7872 111.898C79.2588 111.898 78.7844 111.773 78.3639 111.523C77.9463 111.273 77.6153 110.909 77.371 110.432C77.1295 109.955 77.0088 109.375 77.0088 108.693C77.0088 108.023 77.1267 107.439 77.3625 106.942C77.5983 106.442 77.9264 106.055 78.3469 105.783C78.7673 105.507 79.2531 105.369 79.8042 105.369C80.2304 105.369 80.5685 105.44 80.8185 105.582C81.0713 105.722 81.2645 105.881 81.398 106.06C81.5344 106.236 81.6395 106.381 81.7133 106.494H81.8156V105.455H82.7872V112.188C82.7872 112.75 82.6594 113.207 82.4037 113.56C82.1508 113.915 81.8099 114.175 81.381 114.339C80.9548 114.507 80.4804 114.591 79.9577 114.591ZM79.9236 110.994C80.327 110.994 80.6679 110.902 80.9463 110.717C81.2247 110.533 81.4364 110.267 81.5812 109.92C81.7261 109.574 81.7986 109.159 81.7986 108.676C81.7986 108.205 81.7275 107.788 81.5855 107.428C81.4435 107.067 81.2332 106.784 80.9548 106.58C80.6764 106.375 80.3327 106.273 79.9236 106.273C79.4974 106.273 79.1423 106.381 78.8582 106.597C78.577 106.812 78.3653 107.102 78.2233 107.466C78.0841 107.83 78.0145 108.233 78.0145 108.676C78.0145 109.131 78.0855 109.533 78.2275 109.882C78.3724 110.229 78.5855 110.501 78.8667 110.7C79.1508 110.896 79.5031 110.994 79.9236 110.994ZM85.1081 112V105.455H86.1138V112H85.1081ZM85.6195 104.364C85.4235 104.364 85.2544 104.297 85.1124 104.163C84.9732 104.03 84.9036 103.869 84.9036 103.682C84.9036 103.494 84.9732 103.334 85.1124 103.2C85.2544 103.067 85.4235 103 85.6195 103C85.8155 103 85.9831 103.067 86.1223 103.2C86.2644 103.334 86.3354 103.494 86.3354 103.682C86.3354 103.869 86.2644 104.03 86.1223 104.163C85.9831 104.297 85.8155 104.364 85.6195 104.364ZM89.4414 108.062V112H88.4358V105.455H89.4074V106.477H89.4926C89.646 106.145 89.8789 105.878 90.1914 105.676C90.5039 105.472 90.9074 105.369 91.4017 105.369C91.8449 105.369 92.2326 105.46 92.565 105.642C92.8974 105.821 93.1559 106.094 93.3406 106.46C93.5253 106.824 93.6176 107.284 93.6176 107.841V112H92.6119V107.909C92.6119 107.395 92.4784 106.994 92.2113 106.707C91.9443 106.418 91.5778 106.273 91.1119 106.273C90.7909 106.273 90.5039 106.342 90.2511 106.482C90.0011 106.621 89.8037 106.824 89.6588 107.091C89.5139 107.358 89.4414 107.682 89.4414 108.062ZM105.143 105.455L102.722 112H101.699L99.2789 105.455H100.37L102.177 110.67H102.245L104.052 105.455H105.143ZM109.46 112.136C108.829 112.136 108.285 111.997 107.828 111.719C107.373 111.438 107.022 111.045 106.775 110.543C106.531 110.037 106.409 109.449 106.409 108.778C106.409 108.108 106.531 107.517 106.775 107.006C107.022 106.491 107.366 106.091 107.807 105.804C108.25 105.514 108.767 105.369 109.358 105.369C109.699 105.369 110.035 105.426 110.368 105.54C110.7 105.653 111.003 105.838 111.275 106.094C111.548 106.347 111.765 106.682 111.927 107.099C112.089 107.517 112.17 108.031 112.17 108.642V109.068H107.125V108.199H111.147C111.147 107.83 111.074 107.5 110.926 107.21C110.781 106.92 110.574 106.692 110.304 106.524C110.037 106.357 109.721 106.273 109.358 106.273C108.957 106.273 108.61 106.372 108.318 106.571C108.028 106.767 107.805 107.023 107.649 107.338C107.493 107.653 107.414 107.991 107.414 108.352V108.932C107.414 109.426 107.5 109.845 107.67 110.189C107.843 110.53 108.084 110.79 108.39 110.969C108.697 111.145 109.054 111.233 109.46 111.233C109.724 111.233 109.963 111.196 110.176 111.122C110.392 111.045 110.578 110.932 110.734 110.781C110.89 110.628 111.011 110.437 111.096 110.21L112.068 110.483C111.966 110.812 111.794 111.102 111.552 111.352C111.311 111.599 111.012 111.793 110.657 111.932C110.302 112.068 109.903 112.136 109.46 112.136ZM114.18 112V105.455H115.152V106.443H115.22C115.339 106.119 115.555 105.857 115.867 105.655C116.18 105.453 116.532 105.352 116.924 105.352C116.998 105.352 117.09 105.354 117.201 105.357C117.312 105.359 117.396 105.364 117.453 105.369V106.392C117.419 106.384 117.34 106.371 117.218 106.354C117.099 106.334 116.973 106.324 116.839 106.324C116.521 106.324 116.237 106.391 115.987 106.524C115.74 106.655 115.544 106.837 115.399 107.07C115.257 107.3 115.186 107.562 115.186 107.858V112H114.18ZM119.125 112V105.455H120.131V112H119.125ZM119.636 104.364C119.44 104.364 119.271 104.297 119.129 104.163C118.99 104.03 118.92 103.869 118.92 103.682C118.92 103.494 118.99 103.334 119.129 103.2C119.271 103.067 119.44 103 119.636 103C119.832 103 120 103.067 120.139 103.2C120.281 103.334 120.352 103.494 120.352 103.682C120.352 103.869 120.281 104.03 120.139 104.163C120 104.297 119.832 104.364 119.636 104.364ZM125.367 105.455V106.307H121.839V105.455H125.367ZM122.896 112V104.551C122.896 104.176 122.984 103.864 123.16 103.614C123.336 103.364 123.565 103.176 123.846 103.051C124.127 102.926 124.424 102.864 124.737 102.864C124.984 102.864 125.185 102.884 125.342 102.923C125.498 102.963 125.614 103 125.691 103.034L125.401 103.903C125.35 103.886 125.279 103.865 125.188 103.839C125.1 103.814 124.984 103.801 124.839 103.801C124.506 103.801 124.266 103.885 124.119 104.053C123.974 104.22 123.901 104.466 123.901 104.79V112H122.896ZM127.257 112V105.455H128.262V112H127.257ZM127.768 104.364C127.572 104.364 127.403 104.297 127.261 104.163C127.122 104.03 127.052 103.869 127.052 103.682C127.052 103.494 127.122 103.334 127.261 103.2C127.403 103.067 127.572 103 127.768 103C127.964 103 128.132 103.067 128.271 103.2C128.413 103.334 128.484 103.494 128.484 103.682C128.484 103.869 128.413 104.03 128.271 104.163C128.132 104.297 127.964 104.364 127.768 104.364ZM133.243 112.136C132.63 112.136 132.101 111.991 131.658 111.702C131.215 111.412 130.874 111.013 130.635 110.504C130.397 109.996 130.278 109.415 130.278 108.761C130.278 108.097 130.4 107.51 130.644 107.001C130.891 106.49 131.235 106.091 131.675 105.804C132.118 105.514 132.635 105.369 133.226 105.369C133.687 105.369 134.101 105.455 134.471 105.625C134.84 105.795 135.143 106.034 135.378 106.341C135.614 106.648 135.76 107.006 135.817 107.415H134.812C134.735 107.116 134.564 106.852 134.3 106.622C134.039 106.389 133.687 106.273 133.243 106.273C132.851 106.273 132.508 106.375 132.212 106.58C131.92 106.781 131.691 107.067 131.526 107.436C131.364 107.803 131.283 108.233 131.283 108.727C131.283 109.233 131.363 109.673 131.522 110.048C131.684 110.423 131.911 110.714 132.204 110.922C132.499 111.129 132.846 111.233 133.243 111.233C133.505 111.233 133.742 111.188 133.955 111.097C134.168 111.006 134.349 110.875 134.496 110.705C134.644 110.534 134.749 110.33 134.812 110.091H135.817C135.76 110.477 135.62 110.825 135.395 111.135C135.174 111.442 134.88 111.686 134.513 111.868C134.15 112.047 133.726 112.136 133.243 112.136ZM139.694 112.153C139.279 112.153 138.902 112.075 138.564 111.919C138.226 111.76 137.958 111.531 137.759 111.233C137.56 110.932 137.461 110.568 137.461 110.142C137.461 109.767 137.535 109.463 137.682 109.23C137.83 108.994 138.027 108.81 138.275 108.676C138.522 108.543 138.794 108.443 139.093 108.378C139.394 108.31 139.696 108.256 140 108.216C140.398 108.165 140.721 108.126 140.968 108.101C141.218 108.072 141.4 108.026 141.513 107.96C141.63 107.895 141.688 107.781 141.688 107.619V107.585C141.688 107.165 141.573 106.838 141.343 106.605C141.115 106.372 140.77 106.256 140.307 106.256C139.827 106.256 139.451 106.361 139.178 106.571C138.905 106.781 138.714 107.006 138.603 107.244L137.648 106.903C137.819 106.506 138.046 106.196 138.33 105.974C138.617 105.75 138.929 105.594 139.267 105.506C139.608 105.415 139.944 105.369 140.273 105.369C140.483 105.369 140.725 105.395 140.998 105.446C141.273 105.494 141.539 105.595 141.794 105.749C142.053 105.902 142.267 106.134 142.438 106.443C142.608 106.753 142.694 107.168 142.694 107.688V112H141.688V111.114H141.637C141.569 111.256 141.455 111.408 141.296 111.57C141.137 111.732 140.925 111.869 140.661 111.983C140.397 112.097 140.074 112.153 139.694 112.153ZM139.847 111.25C140.245 111.25 140.58 111.172 140.853 111.016C141.128 110.859 141.336 110.658 141.475 110.411C141.617 110.163 141.688 109.903 141.688 109.631V108.71C141.645 108.761 141.552 108.808 141.407 108.851C141.265 108.891 141.1 108.926 140.912 108.957C140.728 108.986 140.547 109.011 140.371 109.034C140.198 109.054 140.057 109.071 139.949 109.085C139.688 109.119 139.444 109.175 139.216 109.251C138.992 109.325 138.81 109.437 138.671 109.588C138.535 109.736 138.466 109.937 138.466 110.193C138.466 110.543 138.596 110.807 138.854 110.986C139.115 111.162 139.446 111.25 139.847 111.25ZM147.856 105.455V106.307H144.464V105.455H147.856ZM145.452 103.886H146.458V110.125C146.458 110.409 146.499 110.622 146.582 110.764C146.667 110.903 146.775 110.997 146.906 111.045C147.039 111.091 147.18 111.114 147.327 111.114C147.438 111.114 147.529 111.108 147.6 111.097C147.671 111.082 147.728 111.071 147.771 111.062L147.975 111.966C147.907 111.991 147.812 112.017 147.69 112.043C147.567 112.071 147.413 112.085 147.225 112.085C146.941 112.085 146.663 112.024 146.39 111.902C146.12 111.78 145.896 111.594 145.717 111.344C145.54 111.094 145.452 110.778 145.452 110.398V103.886ZM149.849 112V105.455H150.854V112H149.849ZM150.36 104.364C150.164 104.364 149.995 104.297 149.853 104.163C149.714 104.03 149.644 103.869 149.644 103.682C149.644 103.494 149.714 103.334 149.853 103.2C149.995 103.067 150.164 103 150.36 103C150.556 103 150.724 103.067 150.863 103.2C151.005 103.334 151.076 103.494 151.076 103.682C151.076 103.869 151.005 104.03 150.863 104.163C150.724 104.297 150.556 104.364 150.36 104.364ZM155.835 112.136C155.244 112.136 154.726 111.996 154.28 111.714C153.837 111.433 153.49 111.04 153.24 110.534C152.993 110.028 152.869 109.437 152.869 108.761C152.869 108.08 152.993 107.484 153.24 106.976C153.49 106.467 153.837 106.072 154.28 105.791C154.726 105.51 155.244 105.369 155.835 105.369C156.426 105.369 156.943 105.51 157.386 105.791C157.832 106.072 158.179 106.467 158.426 106.976C158.676 107.484 158.801 108.08 158.801 108.761C158.801 109.437 158.676 110.028 158.426 110.534C158.179 111.04 157.832 111.433 157.386 111.714C156.943 111.996 156.426 112.136 155.835 112.136ZM155.835 111.233C156.284 111.233 156.654 111.118 156.943 110.888C157.233 110.658 157.448 110.355 157.587 109.98C157.726 109.605 157.796 109.199 157.796 108.761C157.796 108.324 157.726 107.916 157.587 107.538C157.448 107.161 157.233 106.855 156.943 106.622C156.654 106.389 156.284 106.273 155.835 106.273C155.386 106.273 155.017 106.389 154.727 106.622C154.438 106.855 154.223 107.161 154.084 107.538C153.945 107.916 153.875 108.324 153.875 108.761C153.875 109.199 153.945 109.605 154.084 109.98C154.223 110.355 154.438 110.658 154.727 110.888C155.017 111.118 155.386 111.233 155.835 111.233ZM161.822 108.062V112H160.816V105.455H161.788V106.477H161.873C162.027 106.145 162.26 105.878 162.572 105.676C162.885 105.472 163.288 105.369 163.782 105.369C164.225 105.369 164.613 105.46 164.946 105.642C165.278 105.821 165.537 106.094 165.721 106.46C165.906 106.824 165.998 107.284 165.998 107.841V112H164.993V107.909C164.993 107.395 164.859 106.994 164.592 106.707C164.325 106.418 163.958 106.273 163.493 106.273C163.172 106.273 162.885 106.342 162.632 106.482C162.382 106.621 162.184 106.824 162.039 107.091C161.895 107.358 161.822 107.682 161.822 108.062ZM37.5795 132.136C36.9659 132.136 36.4375 131.991 35.9943 131.702C35.5511 131.412 35.2102 131.013 34.9716 130.504C34.733 129.996 34.6136 129.415 34.6136 128.761C34.6136 128.097 34.7358 127.51 34.9801 127.001C35.2273 126.49 35.571 126.091 36.0114 125.804C36.4545 125.514 36.9716 125.369 37.5625 125.369C38.0227 125.369 38.4375 125.455 38.8068 125.625C39.1761 125.795 39.4787 126.034 39.7145 126.341C39.9503 126.648 40.0966 127.006 40.1534 127.415H39.1477C39.071 127.116 38.9006 126.852 38.6364 126.622C38.375 126.389 38.0227 126.273 37.5795 126.273C37.1875 126.273 36.8438 126.375 36.5483 126.58C36.2557 126.781 36.027 127.067 35.8622 127.436C35.7003 127.803 35.6193 128.233 35.6193 128.727C35.6193 129.233 35.6989 129.673 35.858 130.048C36.0199 130.423 36.2472 130.714 36.5398 130.922C36.8352 131.129 37.1818 131.233 37.5795 131.233C37.8409 131.233 38.0781 131.188 38.2912 131.097C38.5043 131.006 38.6847 130.875 38.8324 130.705C38.9801 130.534 39.0852 130.33 39.1477 130.091H40.1534C40.0966 130.477 39.956 130.825 39.7315 131.135C39.5099 131.442 39.2159 131.686 38.8494 131.868C38.4858 132.047 38.0625 132.136 37.5795 132.136ZM44.7627 132.136C44.1718 132.136 43.6533 131.996 43.2073 131.714C42.7641 131.433 42.4175 131.04 42.1675 130.534C41.9203 130.028 41.7968 129.437 41.7968 128.761C41.7968 128.08 41.9203 127.484 42.1675 126.976C42.4175 126.467 42.7641 126.072 43.2073 125.791C43.6533 125.51 44.1718 125.369 44.7627 125.369C45.3536 125.369 45.8706 125.51 46.3138 125.791C46.7598 126.072 47.1064 126.467 47.3536 126.976C47.6036 127.484 47.7286 128.08 47.7286 128.761C47.7286 129.437 47.6036 130.028 47.3536 130.534C47.1064 131.04 46.7598 131.433 46.3138 131.714C45.8706 131.996 45.3536 132.136 44.7627 132.136ZM44.7627 131.233C45.2115 131.233 45.5809 131.118 45.8706 130.888C46.1604 130.658 46.3749 130.355 46.5141 129.98C46.6533 129.605 46.7229 129.199 46.7229 128.761C46.7229 128.324 46.6533 127.916 46.5141 127.538C46.3749 127.161 46.1604 126.855 45.8706 126.622C45.5809 126.389 45.2115 126.273 44.7627 126.273C44.3138 126.273 43.9445 126.389 43.6547 126.622C43.3649 126.855 43.1505 127.161 43.0113 127.538C42.872 127.916 42.8024 128.324 42.8024 128.761C42.8024 129.199 42.872 129.605 43.0113 129.98C43.1505 130.355 43.3649 130.658 43.6547 130.888C43.9445 131.118 44.3138 131.233 44.7627 131.233ZM52.2153 132.136C51.6699 132.136 51.1883 131.999 50.7707 131.723C50.3531 131.445 50.0264 131.053 49.7906 130.547C49.5548 130.038 49.4369 129.438 49.4369 128.744C49.4369 128.057 49.5548 127.46 49.7906 126.955C50.0264 126.449 50.3545 126.058 50.775 125.783C51.1954 125.507 51.6812 125.369 52.2324 125.369C52.6585 125.369 52.9952 125.44 53.2423 125.582C53.4923 125.722 53.6827 125.881 53.8133 126.06C53.9469 126.236 54.0506 126.381 54.1244 126.494H54.2096V123.273H55.2153V132H54.2437V130.994H54.1244C54.0506 131.114 53.9454 131.264 53.8091 131.446C53.6727 131.625 53.4781 131.786 53.2253 131.928C52.9724 132.067 52.6358 132.136 52.2153 132.136ZM52.3517 131.233C52.7551 131.233 53.096 131.128 53.3744 130.918C53.6528 130.705 53.8645 130.411 54.0094 130.036C54.1542 129.658 54.2267 129.222 54.2267 128.727C54.2267 128.239 54.1557 127.811 54.0136 127.445C53.8716 127.075 53.6613 126.788 53.3829 126.584C53.1045 126.376 52.7608 126.273 52.3517 126.273C51.9256 126.273 51.5704 126.382 51.2863 126.601C51.0051 126.817 50.7935 127.111 50.6514 127.483C50.5122 127.852 50.4426 128.267 50.4426 128.727C50.4426 129.193 50.5136 129.616 50.6557 129.997C50.8006 130.375 51.0136 130.676 51.2949 130.901C51.579 131.122 51.9312 131.233 52.3517 131.233ZM60.4212 132.136C59.7905 132.136 59.2465 131.997 58.7891 131.719C58.3345 131.438 57.9837 131.045 57.7365 130.543C57.4922 130.037 57.37 129.449 57.37 128.778C57.37 128.108 57.4922 127.517 57.7365 127.006C57.9837 126.491 58.3274 126.091 58.7678 125.804C59.211 125.514 59.728 125.369 60.3189 125.369C60.6598 125.369 60.9965 125.426 61.3289 125.54C61.6612 125.653 61.9638 125.838 62.2365 126.094C62.5092 126.347 62.7266 126.682 62.8885 127.099C63.0504 127.517 63.1314 128.031 63.1314 128.642V129.068H58.086V128.199H62.1087C62.1087 127.83 62.0348 127.5 61.8871 127.21C61.7422 126.92 61.5348 126.692 61.2649 126.524C60.9979 126.357 60.6825 126.273 60.3189 126.273C59.9183 126.273 59.5717 126.372 59.2791 126.571C58.9894 126.767 58.7664 127.023 58.6101 127.338C58.4539 127.653 58.3757 127.991 58.3757 128.352V128.932C58.3757 129.426 58.461 129.845 58.6314 130.189C58.8047 130.53 59.0448 130.79 59.3516 130.969C59.6584 131.145 60.0149 131.233 60.4212 131.233C60.6854 131.233 60.924 131.196 61.1371 131.122C61.353 131.045 61.5391 130.932 61.6953 130.781C61.8516 130.628 61.9723 130.437 62.0575 130.21L63.0291 130.483C62.9269 130.812 62.755 131.102 62.5135 131.352C62.272 131.599 61.9737 131.793 61.6186 131.932C61.2635 132.068 60.8644 132.136 60.4212 132.136ZM68.9962 132V125.455H70.0019V132H68.9962ZM69.5076 124.364C69.3116 124.364 69.1425 124.297 69.0005 124.163C68.8613 124.03 68.7917 123.869 68.7917 123.682C68.7917 123.494 68.8613 123.334 69.0005 123.2C69.1425 123.067 69.3116 123 69.5076 123C69.7036 123 69.8712 123.067 70.0104 123.2C70.1525 123.334 70.2235 123.494 70.2235 123.682C70.2235 123.869 70.1525 124.03 70.0104 124.163C69.8712 124.297 69.7036 124.364 69.5076 124.364ZM76.9603 126.92L76.0568 127.176C76 127.026 75.9162 126.879 75.8054 126.737C75.6975 126.592 75.5497 126.473 75.3622 126.379C75.1747 126.286 74.9347 126.239 74.6421 126.239C74.2415 126.239 73.9077 126.331 73.6407 126.516C73.3765 126.697 73.2443 126.929 73.2443 127.21C73.2443 127.46 73.3353 127.658 73.5171 127.803C73.6989 127.947 73.983 128.068 74.3693 128.165L75.3409 128.403C75.9262 128.545 76.3622 128.763 76.6492 129.055C76.9361 129.345 77.0796 129.719 77.0796 130.176C77.0796 130.551 76.9716 130.886 76.7557 131.182C76.5426 131.477 76.2443 131.71 75.8608 131.881C75.4773 132.051 75.0313 132.136 74.5228 132.136C73.8551 132.136 73.3026 131.991 72.8651 131.702C72.4276 131.412 72.1506 130.989 72.0341 130.432L72.9887 130.193C73.0796 130.545 73.2514 130.81 73.5043 130.986C73.76 131.162 74.0938 131.25 74.5057 131.25C74.9745 131.25 75.3466 131.151 75.6222 130.952C75.9006 130.75 76.0398 130.509 76.0398 130.227C76.0398 130 75.9603 129.81 75.8012 129.656C75.6421 129.5 75.3978 129.384 75.0682 129.307L73.9773 129.051C73.3779 128.909 72.9375 128.689 72.6563 128.391C72.3779 128.089 72.2387 127.713 72.2387 127.261C72.2387 126.892 72.3424 126.565 72.5497 126.281C72.76 125.997 73.0455 125.774 73.4063 125.612C73.7699 125.45 74.1818 125.369 74.6421 125.369C75.2898 125.369 75.7983 125.511 76.1676 125.795C76.5398 126.08 76.804 126.455 76.9603 126.92ZM85.8602 132.119C85.2977 132.119 84.7963 132.023 84.356 131.83C83.9185 131.636 83.5705 131.368 83.3119 131.024C83.0563 130.678 82.9171 130.276 82.8943 129.818H83.9682C83.9909 130.099 84.0875 130.342 84.258 130.547C84.4284 130.749 84.6514 130.905 84.927 131.016C85.2026 131.126 85.508 131.182 85.8432 131.182C86.2182 131.182 86.5506 131.116 86.8404 130.986C87.1301 130.855 87.3574 130.673 87.5222 130.44C87.6869 130.207 87.7693 129.938 87.7693 129.631C87.7693 129.31 87.6898 129.027 87.5307 128.783C87.3716 128.536 87.1387 128.342 86.8318 128.203C86.525 128.064 86.15 127.994 85.7068 127.994H85.008V127.057H85.7068C86.0534 127.057 86.3574 126.994 86.6188 126.869C86.883 126.744 87.0889 126.568 87.2367 126.341C87.3872 126.114 87.4625 125.847 87.4625 125.54C87.4625 125.244 87.3972 124.987 87.2665 124.768C87.1358 124.55 86.9512 124.379 86.7125 124.257C86.4767 124.135 86.1983 124.074 85.8773 124.074C85.5762 124.074 85.2921 124.129 85.025 124.24C84.7608 124.348 84.5449 124.506 84.3773 124.713C84.2097 124.918 84.1188 125.165 84.1046 125.455H83.0818C83.0989 124.997 83.2367 124.597 83.4952 124.253C83.7537 123.906 84.0918 123.636 84.5094 123.443C84.9298 123.25 85.3915 123.153 85.8943 123.153C86.4341 123.153 86.8972 123.263 87.2835 123.482C87.6699 123.697 87.9668 123.983 88.1742 124.338C88.3815 124.693 88.4852 125.077 88.4852 125.489C88.4852 125.98 88.356 126.399 88.0975 126.746C87.8418 127.092 87.4938 127.332 87.0534 127.466V127.534C87.6046 127.625 88.035 127.859 88.3446 128.237C88.6543 128.612 88.8091 129.077 88.8091 129.631C88.8091 130.105 88.6798 130.531 88.4213 130.909C88.1656 131.284 87.8162 131.58 87.373 131.795C86.9298 132.011 86.4256 132.119 85.8602 132.119ZM91.032 132V131.233L93.9127 128.08C94.2508 127.71 94.5292 127.389 94.7479 127.116C94.9667 126.841 95.1286 126.582 95.2337 126.341C95.3417 126.097 95.3956 125.841 95.3956 125.574C95.3956 125.267 95.3218 125.001 95.174 124.777C95.0292 124.553 94.8303 124.379 94.5775 124.257C94.3246 124.135 94.0405 124.074 93.7252 124.074C93.39 124.074 93.0973 124.143 92.8473 124.283C92.6002 124.419 92.4084 124.611 92.2721 124.858C92.1385 125.105 92.0718 125.395 92.0718 125.727H91.0661C91.0661 125.216 91.184 124.767 91.4198 124.381C91.6556 123.994 91.9766 123.693 92.3829 123.477C92.7919 123.261 93.2508 123.153 93.7593 123.153C94.2706 123.153 94.7238 123.261 95.1187 123.477C95.5135 123.693 95.8232 123.984 96.0476 124.351C96.2721 124.717 96.3843 125.125 96.3843 125.574C96.3843 125.895 96.326 126.209 96.2096 126.516C96.0959 126.82 95.8971 127.159 95.613 127.534C95.3317 127.906 94.9411 128.361 94.4411 128.898L92.4809 130.994V131.062H96.5377V132H91.032ZM101.846 123.273V132H100.789V124.381H100.738L98.6072 125.795V124.722L100.789 123.273H101.846ZM104.836 132V131.233L107.716 128.08C108.055 127.71 108.333 127.389 108.552 127.116C108.77 126.841 108.932 126.582 109.037 126.341C109.145 126.097 109.199 125.841 109.199 125.574C109.199 125.267 109.126 125.001 108.978 124.777C108.833 124.553 108.634 124.379 108.381 124.257C108.128 124.135 107.844 124.074 107.529 124.074C107.194 124.074 106.901 124.143 106.651 124.283C106.404 124.419 106.212 124.611 106.076 124.858C105.942 125.105 105.876 125.395 105.876 125.727H104.87C104.87 125.216 104.988 124.767 105.224 124.381C105.459 123.994 105.78 123.693 106.187 123.477C106.596 123.261 107.055 123.153 107.563 123.153C108.074 123.153 108.528 123.261 108.922 123.477C109.317 123.693 109.627 123.984 109.851 124.351C110.076 124.717 110.188 125.125 110.188 125.574C110.188 125.895 110.13 126.209 110.013 126.516C109.9 126.82 109.701 127.159 109.417 127.534C109.135 127.906 108.745 128.361 108.245 128.898L106.285 130.994V131.062H110.341V132H104.836ZM115.53 132.119C114.968 132.119 114.466 132.023 114.026 131.83C113.588 131.636 113.24 131.368 112.982 131.024C112.726 130.678 112.587 130.276 112.564 129.818H113.638C113.661 130.099 113.758 130.342 113.928 130.547C114.098 130.749 114.321 130.905 114.597 131.016C114.873 131.126 115.178 131.182 115.513 131.182C115.888 131.182 116.221 131.116 116.51 130.986C116.8 130.855 117.027 130.673 117.192 130.44C117.357 130.207 117.439 129.938 117.439 129.631C117.439 129.31 117.36 129.027 117.201 128.783C117.042 128.536 116.809 128.342 116.502 128.203C116.195 128.064 115.82 127.994 115.377 127.994H114.678V127.057H115.377C115.723 127.057 116.027 126.994 116.289 126.869C116.553 126.744 116.759 126.568 116.907 126.341C117.057 126.114 117.133 125.847 117.133 125.54C117.133 125.244 117.067 124.987 116.936 124.768C116.806 124.55 116.621 124.379 116.383 124.257C116.147 124.135 115.868 124.074 115.547 124.074C115.246 124.074 114.962 124.129 114.695 124.24C114.431 124.348 114.215 124.506 114.047 124.713C113.88 124.918 113.789 125.165 113.775 125.455H112.752C112.769 124.997 112.907 124.597 113.165 124.253C113.424 123.906 113.762 123.636 114.179 123.443C114.6 123.25 115.061 123.153 115.564 123.153C116.104 123.153 116.567 123.263 116.954 123.482C117.34 123.697 117.637 123.983 117.844 124.338C118.052 124.693 118.155 125.077 118.155 125.489C118.155 125.98 118.026 126.399 117.767 126.746C117.512 127.092 117.164 127.332 116.723 127.466V127.534C117.275 127.625 117.705 127.859 118.015 128.237C118.324 128.612 118.479 129.077 118.479 129.631C118.479 130.105 118.35 130.531 118.091 130.909C117.836 131.284 117.486 131.58 117.043 131.795C116.6 132.011 116.096 132.119 115.53 132.119ZM123.549 132.119C122.907 132.119 122.36 131.945 121.908 131.595C121.456 131.243 121.111 130.733 120.872 130.065C120.634 129.395 120.515 128.585 120.515 127.636C120.515 126.693 120.634 125.888 120.872 125.22C121.114 124.55 121.461 124.038 121.912 123.686C122.367 123.331 122.912 123.153 123.549 123.153C124.185 123.153 124.729 123.331 125.181 123.686C125.635 124.038 125.982 124.55 126.22 125.22C126.462 125.888 126.583 126.693 126.583 127.636C126.583 128.585 126.463 129.395 126.225 130.065C125.986 130.733 125.641 131.243 125.189 131.595C124.738 131.945 124.191 132.119 123.549 132.119ZM123.549 131.182C124.185 131.182 124.679 130.875 125.032 130.261C125.384 129.648 125.56 128.773 125.56 127.636C125.56 126.881 125.479 126.237 125.317 125.706C125.158 125.175 124.928 124.77 124.627 124.491C124.328 124.213 123.969 124.074 123.549 124.074C122.918 124.074 122.425 124.385 122.07 125.007C121.715 125.626 121.537 126.503 121.537 127.636C121.537 128.392 121.617 129.034 121.776 129.562C121.935 130.091 122.164 130.493 122.462 130.768C122.763 131.044 123.125 131.182 123.549 131.182Z" fill="#5887A7"/>
<path fill-rule="evenodd" clip-rule="evenodd" d="M182.01 85.2505H14V31.6805C14.0026 30.1228 14.6233 28.6298 15.7257 27.5292C16.8282 26.4287 18.3223 25.8105 19.88 25.8105H176.13C177.688 25.8105 179.182 26.4287 180.284 27.5292C181.387 28.6298 182.007 30.1228 182.01 31.6805V85.2505Z" fill="#CEF2E3"/>
<g filter="url(#filter1_d_2246_3843)">
<path d="M179 48C173.696 48 168.609 45.8929 164.858 42.1421C161.107 38.3914 159 33.3043 159 28C159 22.6957 161.107 17.6086 164.858 13.8579C168.609 10.1071 173.696 8 179 8C184.304 8 189.391 10.1071 193.142 13.8579C196.893 17.6086 199 22.6957 199 28C199 33.3043 196.893 38.3914 193.142 42.1421C189.391 45.8929 184.304 48 179 48Z" fill="black"/>
</g>
<path d="M179 48C173.696 48 168.609 45.8929 164.858 42.1421C161.107 38.3914 159 33.3043 159 28C159 22.6957 161.107 17.6086 164.858 13.8579C168.609 10.1071 173.696 8 179 8C184.304 8 189.391 10.1071 193.142 13.8579C196.893 17.6086 199 22.6957 199 28C199 33.3043 196.893 38.3914 193.142 42.1421C189.391 45.8929 184.304 48 179 48Z" fill="#E6FFEF" stroke="#69C16B" stroke-width="2"/>
<path fill-rule="evenodd" clip-rule="evenodd" d="M170.6 18.6597C170.6 18.6597 178.23 14.9297 188.45 18.6597C188.45 18.6597 195.51 34.1797 179.53 40.9997C179.53 40.9997 164.09 36.4297 170.61 18.6597" fill="#69C16B"/>
<path fill-rule="evenodd" clip-rule="evenodd" d="M178.07 30.5604L177.93 30.3604L175.97 28.2604C175.68 27.9604 175.37 27.9604 175.08 28.2604C174.78 28.5804 174.48 28.8904 174.2 29.2104C173.93 29.5004 173.93 29.8304 174.2 30.1104L177.64 33.7704C177.92 34.0704 178.24 34.0704 178.51 33.7704L184.79 27.1004C184.893 26.9596 184.941 26.785 184.922 26.611C184.904 26.437 184.821 26.2763 184.69 26.1604L183.86 25.2804C183.51 24.9104 183.23 24.9104 182.88 25.2804L178.13 30.3404L177.97 30.5604" fill="#DAFEE7"/>
<path d="M34.9707 51V49.7628L38.253 46.5451C38.5669 46.2281 38.8285 45.9465 39.0378 45.7003C39.2471 45.4541 39.404 45.2156 39.5087 44.9847C39.6133 44.7539 39.6656 44.5077 39.6656 44.2461C39.6656 43.9476 39.5979 43.6921 39.4625 43.4798C39.3271 43.2643 39.1409 43.0981 38.9039 42.9812C38.6669 42.8642 38.3976 42.8058 38.096 42.8058C37.7852 42.8058 37.5128 42.8704 37.2789 42.9996C37.045 43.1258 36.8634 43.3059 36.7342 43.5398C36.608 43.7737 36.5449 44.0522 36.5449 44.3754H34.9153C34.9153 43.7752 35.0522 43.2536 35.3261 42.8104C35.6 42.3672 35.9771 42.024 36.4572 41.7809C36.9404 41.5378 37.4943 41.4162 38.1191 41.4162C38.7531 41.4162 39.3102 41.5347 39.7903 41.7717C40.2704 42.0086 40.6428 42.3333 40.9075 42.7457C41.1752 43.1581 41.3091 43.629 41.3091 44.1584C41.3091 44.5123 41.2414 44.8601 41.106 45.2017C40.9706 45.5433 40.732 45.9219 40.3904 46.3374C40.0519 46.7528 39.5764 47.256 38.9639 47.8469L37.3343 49.5043V49.5689H41.4522V51H34.9707ZM43.6572 51V41.5455H49.714V42.9812H45.3699V45.5479H49.2986V46.9837H45.3699V51H43.6572ZM51.8279 51H49.9997L53.3282 41.5455H55.4426L58.7757 51H56.9475L54.4223 43.4844H54.3485L51.8279 51ZM51.8879 47.293H56.8737V48.6687H51.8879V47.293ZM66.2522 51.1431C65.8029 51.1431 65.3981 51.0631 65.0381 50.9031C64.6811 50.7399 64.3979 50.4999 64.1886 50.1829C63.9824 49.8659 63.8793 49.475 63.8793 49.0103C63.8793 48.6102 63.9532 48.2794 64.1009 48.0178C64.2486 47.7562 64.4502 47.5469 64.7057 47.3899C64.9611 47.233 65.2489 47.1145 65.569 47.0344C65.8921 46.9513 66.226 46.8913 66.5707 46.8544C66.9862 46.8113 67.3232 46.7728 67.5817 46.739C67.8403 46.7021 68.028 46.6467 68.145 46.5728C68.265 46.4959 68.325 46.3774 68.325 46.2173V46.1896C68.325 45.8419 68.2219 45.5726 68.0157 45.3817C67.8095 45.1909 67.5125 45.0955 67.1247 45.0955C66.7154 45.0955 66.3907 45.1848 66.1506 45.3633C65.9137 45.5418 65.7536 45.7526 65.6705 45.9957L64.1102 45.7741C64.2333 45.3433 64.4364 44.9832 64.7195 44.6939C65.0027 44.4015 65.3489 44.183 65.7582 44.0384C66.1676 43.8906 66.62 43.8168 67.1155 43.8168C67.4571 43.8168 67.7972 43.8568 68.1357 43.9368C68.4743 44.0168 68.7836 44.1491 69.0636 44.3338C69.3437 44.5154 69.5684 44.7631 69.7376 45.0771C69.91 45.391 69.9962 45.7834 69.9962 46.2543V51H68.3896V50.0259H68.3342C68.2327 50.2229 68.0896 50.4076 67.9049 50.5799C67.7233 50.7492 67.494 50.8861 67.217 50.9908C66.9431 51.0923 66.6215 51.1431 66.2522 51.1431ZM66.6861 49.9151C67.0216 49.9151 67.3124 49.849 67.5587 49.7166C67.8049 49.5812 67.9941 49.4027 68.1265 49.1811C68.2619 48.9595 68.3296 48.7179 68.3296 48.4563V47.6207C68.2773 47.6638 68.188 47.7038 68.0619 47.7408C67.9387 47.7777 67.8003 47.81 67.6464 47.8377C67.4925 47.8654 67.3401 47.89 67.1893 47.9116C67.0385 47.9331 66.9077 47.9516 66.7969 47.967C66.5477 48.0008 66.3245 48.0562 66.1276 48.1332C65.9306 48.2101 65.7752 48.3178 65.6613 48.4563C65.5474 48.5917 65.4905 48.7672 65.4905 48.9826C65.4905 49.2904 65.6028 49.5227 65.8275 49.6797C66.0521 49.8366 66.3384 49.9151 66.6861 49.9151ZM73.8677 46.8452V51H72.1966V43.9091H73.7939V45.114H73.877C74.0401 44.717 74.3001 44.4015 74.6571 44.1676C75.0172 43.9337 75.4619 43.8168 75.9913 43.8168C76.4806 43.8168 76.9069 43.9214 77.2701 44.1307C77.6363 44.34 77.9194 44.6431 78.1195 45.0401C78.3226 45.4371 78.4226 45.9188 78.4196 46.4851V51H76.7484V46.7436C76.7484 46.2696 76.6253 45.8988 76.3791 45.631C76.1359 45.3633 75.7989 45.2294 75.3681 45.2294C75.0757 45.2294 74.8156 45.294 74.5879 45.4233C74.3632 45.5495 74.1863 45.7326 74.057 45.9727C73.9308 46.2127 73.8677 46.5036 73.8677 46.8452ZM83.2698 51.1246C82.7128 51.1246 82.2142 50.9815 81.7741 50.6953C81.334 50.4091 80.9862 49.9936 80.7308 49.4489C80.4753 48.9041 80.3476 48.2424 80.3476 47.4638C80.3476 46.6759 80.4769 46.0111 80.7354 45.4695C80.997 44.9247 81.3494 44.5138 81.7926 44.2369C82.2357 43.9568 82.7297 43.8168 83.2744 43.8168C83.6899 43.8168 84.0315 43.8875 84.2993 44.0291C84.5671 44.1676 84.7794 44.3353 84.9364 44.5323C85.0933 44.7262 85.2149 44.9093 85.3011 45.0817H85.3703V41.5455H87.0461V51H85.4026V49.8828H85.3011C85.2149 50.0552 85.0903 50.2383 84.9271 50.4322C84.764 50.623 84.5486 50.7861 84.2808 50.9215C84.0131 51.0569 83.6761 51.1246 83.2698 51.1246ZM83.7361 49.7536C84.09 49.7536 84.3916 49.6581 84.6409 49.4673C84.8902 49.2734 85.0795 49.0041 85.2087 48.6594C85.338 48.3147 85.4026 47.9131 85.4026 47.4545C85.4026 46.996 85.338 46.5974 85.2087 46.2589C85.0826 45.9203 84.8948 45.6572 84.6455 45.4695C84.3993 45.2817 84.0962 45.1879 83.7361 45.1879C83.3637 45.1879 83.0528 45.2848 82.8036 45.4787C82.5543 45.6726 82.3665 45.9403 82.2403 46.282C82.1142 46.6236 82.0511 47.0144 82.0511 47.4545C82.0511 47.8977 82.1142 48.2932 82.2403 48.641C82.3696 48.9857 82.5589 49.258 82.8082 49.4581C83.0605 49.6551 83.3698 49.7536 83.7361 49.7536ZM101.614 46.2727C101.614 47.2914 101.423 48.1639 101.041 48.8903C100.663 49.6135 100.145 50.1675 99.49 50.5522C98.8375 50.9369 98.0973 51.1293 97.2694 51.1293C96.4415 51.1293 95.6998 50.9369 95.0443 50.5522C94.3918 50.1644 93.8748 49.6089 93.4932 48.8857C93.1146 48.1593 92.9253 47.2884 92.9253 46.2727C92.9253 45.254 93.1146 44.383 93.4932 43.6598C93.8748 42.9335 94.3918 42.378 95.0443 41.9933C95.6998 41.6085 96.4415 41.4162 97.2694 41.4162C98.0973 41.4162 98.8375 41.6085 99.49 41.9933C100.145 42.378 100.663 42.9335 101.041 43.6598C101.423 44.383 101.614 45.254 101.614 46.2727ZM99.8916 46.2727C99.8916 45.5556 99.7793 44.9509 99.5546 44.4585C99.333 43.9629 99.0252 43.589 98.6313 43.3366C98.2374 43.0812 97.7834 42.9535 97.2694 42.9535C96.7555 42.9535 96.3015 43.0812 95.9076 43.3366C95.5136 43.589 95.2043 43.9629 94.9797 44.4585C94.7581 44.9509 94.6473 45.5556 94.6473 46.2727C94.6473 46.9898 94.7581 47.5961 94.9797 48.0916C95.2043 48.584 95.5136 48.958 95.9076 49.2134C96.3015 49.4658 96.7555 49.592 97.2694 49.592C97.7834 49.592 98.2374 49.4658 98.6313 49.2134C99.0252 48.958 99.333 48.584 99.5546 48.0916C99.7793 47.5961 99.8916 46.9898 99.8916 46.2727ZM102.918 42.9812V41.5455H110.462V42.9812H107.539V51H105.841V42.9812H102.918ZM112.436 51V41.5455H115.981C116.708 41.5455 117.317 41.6809 117.809 41.9517C118.305 42.2225 118.679 42.5949 118.931 43.0689C119.187 43.5398 119.314 44.0753 119.314 44.6754C119.314 45.2817 119.187 45.8203 118.931 46.2912C118.676 46.7621 118.299 47.1329 117.8 47.4038C117.302 47.6715 116.688 47.8054 115.958 47.8054H113.608V46.3974H115.727C116.152 46.3974 116.5 46.3235 116.771 46.1758C117.042 46.0281 117.242 45.8249 117.371 45.5664C117.503 45.3079 117.569 45.0109 117.569 44.6754C117.569 44.34 117.503 44.0445 117.371 43.7891C117.242 43.5336 117.04 43.3351 116.766 43.1935C116.495 43.0489 116.146 42.9766 115.718 42.9766H114.149V51H112.436Z" fill="#242424"/>
<path d="M36.2017 72L34.2131 64.7273H35.108L36.6278 70.6506H36.6989L38.2472 64.7273H39.2415L40.7898 70.6506H40.8608L42.3807 64.7273H43.2756L41.2869 72H40.3778L38.7727 66.2045H38.7159L37.1108 72H36.2017ZM45.4973 68.7188V72H44.6592V64.7273H45.4973V67.3977H45.5683C45.6962 67.116 45.8879 66.8923 46.1436 66.7266C46.4017 66.5585 46.7449 66.4744 47.1734 66.4744C47.5451 66.4744 47.8706 66.549 48.15 66.6982C48.4294 66.8449 48.646 67.071 48.7999 67.3764C48.9561 67.6795 49.0342 68.0653 49.0342 68.5341V72H48.1962V68.5909C48.1962 68.1577 48.0837 67.8227 47.8588 67.5859C47.6363 67.3468 47.3273 67.2273 46.932 67.2273C46.6573 67.2273 46.4111 67.2853 46.1933 67.4013C45.9779 67.5173 45.8074 67.6866 45.682 67.9091C45.5589 68.1316 45.4973 68.4015 45.4973 68.7188ZM52.5725 72.1278C52.2269 72.1278 51.9132 72.0627 51.6315 71.9325C51.3498 71.8 51.1261 71.6094 50.9603 71.3608C50.7946 71.1098 50.7118 70.8068 50.7118 70.4517C50.7118 70.1392 50.7733 69.8859 50.8964 69.6918C51.0195 69.4953 51.1841 69.3414 51.39 69.2301C51.596 69.1188 51.8233 69.036 52.0718 68.9815C52.3228 68.9247 52.5749 68.8797 52.8282 68.8466C53.1597 68.804 53.4284 68.772 53.6343 68.7507C53.8427 68.727 53.9942 68.688 54.0889 68.6335C54.1859 68.5791 54.2345 68.4844 54.2345 68.3494V68.321C54.2345 67.9706 54.1386 67.6984 53.9468 67.5043C53.7574 67.3101 53.4698 67.2131 53.0839 67.2131C52.6838 67.2131 52.3701 67.3007 52.1429 67.4759C51.9156 67.651 51.7558 67.8381 51.6635 68.0369L50.868 67.7528C51.01 67.4214 51.1994 67.1634 51.4362 66.9787C51.6753 66.7917 51.9357 66.6615 52.2174 66.5881C52.5015 66.5123 52.7809 66.4744 53.0555 66.4744C53.2307 66.4744 53.4319 66.4957 53.6592 66.5384C53.8888 66.5786 54.1102 66.6626 54.3233 66.7905C54.5387 66.9183 54.7174 67.1113 54.8595 67.3693C55.0015 67.6274 55.0725 67.973 55.0725 68.4062V72H54.2345V71.2614H54.1919C54.135 71.3797 54.0404 71.5064 53.9078 71.6413C53.7752 71.7763 53.5988 71.8911 53.3787 71.9858C53.1585 72.0805 52.8898 72.1278 52.5725 72.1278ZM52.7004 71.375C53.0318 71.375 53.3112 71.3099 53.5385 71.1797C53.7681 71.0495 53.9409 70.8814 54.0569 70.6754C54.1753 70.4695 54.2345 70.2528 54.2345 70.0256V69.2585C54.199 69.3011 54.1208 69.3402 54.0001 69.3757C53.8817 69.4089 53.7444 69.4384 53.5882 69.4645C53.4343 69.4882 53.284 69.5095 53.1372 69.5284C52.9928 69.545 52.8756 69.5592 52.7856 69.571C52.5678 69.5994 52.3642 69.6456 52.1748 69.7095C51.9878 69.7711 51.8363 69.8646 51.7203 69.9901C51.6066 70.1132 51.5498 70.2812 51.5498 70.4943C51.5498 70.7855 51.6575 71.0057 51.873 71.1548C52.0908 71.3016 52.3666 71.375 52.7004 71.375ZM59.3744 66.5455V67.2557H56.5477V66.5455H59.3744ZM57.3715 65.2386H58.2096V70.4375C58.2096 70.6742 58.2439 70.8518 58.3126 70.9702C58.3836 71.0862 58.4736 71.1643 58.5825 71.2045C58.6937 71.2424 58.8109 71.2614 58.934 71.2614C59.0264 71.2614 59.1021 71.2566 59.1613 71.2472C59.2205 71.2353 59.2678 71.2259 59.3033 71.2188L59.4738 71.9716C59.417 71.9929 59.3377 72.0142 59.2359 72.0355C59.1341 72.0592 59.005 72.071 58.8488 72.071C58.6121 72.071 58.38 72.0201 58.1528 71.9183C57.9279 71.8165 57.7408 71.6615 57.5917 71.4531C57.4449 71.2448 57.3715 70.982 57.3715 70.6648V65.2386ZM64.801 67.767L64.0482 67.9801C64.0008 67.8546 63.931 67.7327 63.8386 67.6143C63.7487 67.4936 63.6256 67.3942 63.4693 67.3161C63.3131 67.2379 63.113 67.1989 62.8692 67.1989C62.5354 67.1989 62.2572 67.2758 62.0347 67.4297C61.8145 67.5812 61.7044 67.7741 61.7044 68.0085C61.7044 68.2169 61.7802 68.3814 61.9317 68.5021C62.0832 68.6229 62.3199 68.7235 62.6419 68.804L63.4516 69.0028C63.9393 69.1212 64.3027 69.3023 64.5418 69.5462C64.7809 69.7876 64.9004 70.099 64.9004 70.4801C64.9004 70.7926 64.8105 71.072 64.6305 71.3182C64.453 71.5644 64.2044 71.7585 63.8848 71.9006C63.5652 72.0426 63.1935 72.1136 62.7697 72.1136C62.2134 72.1136 61.7529 71.9929 61.3884 71.7514C61.0238 71.5099 60.7929 71.1572 60.6959 70.6932L61.4913 70.4943C61.5671 70.7879 61.7103 71.008 61.921 71.1548C62.1341 71.3016 62.4123 71.375 62.7555 71.375C63.1462 71.375 63.4563 71.2921 63.6859 71.1264C63.9179 70.9583 64.0339 70.7571 64.0339 70.5227C64.0339 70.3333 63.9677 70.1747 63.8351 70.0469C63.7025 69.9167 63.4989 69.8196 63.2243 69.7557L62.3152 69.5426C61.8157 69.4242 61.4487 69.2408 61.2143 68.9922C60.9823 68.7412 60.8663 68.4276 60.8663 68.0511C60.8663 67.7434 60.9527 67.4711 61.1256 67.2344C61.3008 66.9976 61.5387 66.8118 61.8393 66.6768C62.1424 66.5419 62.4857 66.4744 62.8692 66.4744C63.4089 66.4744 63.8327 66.5928 64.1405 66.8295C64.4506 67.0663 64.6708 67.3788 64.801 67.767ZM66.9739 72H66.0506L68.7211 64.7273H69.6301L72.3006 72H71.3773L69.204 65.8778H69.1472L66.9739 72ZM67.3148 69.1591H71.0364V69.9403H67.3148V69.1591ZM73.7198 74.0455V66.5455H74.5294V67.4119H74.6289C74.6904 67.3172 74.7757 67.1965 74.8846 67.0497C74.9958 66.9006 75.1544 66.768 75.3604 66.652C75.5687 66.5336 75.8505 66.4744 76.2056 66.4744C76.6649 66.4744 77.0697 66.5893 77.4201 66.8189C77.7704 67.0485 78.0439 67.3741 78.2404 67.7955C78.4369 68.2169 78.5351 68.714 78.5351 69.2869C78.5351 69.8646 78.4369 70.3653 78.2404 70.7891C78.0439 71.2105 77.7716 71.5372 77.4236 71.7692C77.0756 71.9988 76.6743 72.1136 76.2198 72.1136C75.8694 72.1136 75.5889 72.0556 75.3782 71.9396C75.1675 71.8213 75.0053 71.6875 74.8917 71.5384C74.778 71.3868 74.6904 71.2614 74.6289 71.1619H74.5578V74.0455H73.7198ZM74.5436 69.2727C74.5436 69.6847 74.604 70.0481 74.7248 70.3629C74.8455 70.6754 75.0219 70.9205 75.2539 71.098C75.4859 71.2732 75.77 71.3608 76.1061 71.3608C76.4565 71.3608 76.7489 71.2685 76.9833 71.0838C77.22 70.8968 77.3976 70.6458 77.5159 70.331C77.6367 70.0137 77.6971 69.661 77.6971 69.2727C77.6971 68.8892 77.6379 68.5436 77.5195 68.2358C77.4035 67.9257 77.2271 67.6806 76.9904 67.5007C76.756 67.3184 76.4613 67.2273 76.1061 67.2273C75.7652 67.2273 75.4788 67.3137 75.2468 67.4865C75.0148 67.657 74.8396 67.8961 74.7212 68.2038C74.6028 68.5092 74.5436 68.8655 74.5436 69.2727ZM80.2135 74.0455V66.5455H81.0232V67.4119H81.1226C81.1842 67.3172 81.2694 67.1965 81.3783 67.0497C81.4896 66.9006 81.6482 66.768 81.8542 66.652C82.0625 66.5336 82.3442 66.4744 82.6993 66.4744C83.1586 66.4744 83.5634 66.5893 83.9138 66.8189C84.2642 67.0485 84.5376 67.3741 84.7341 67.7955C84.9306 68.2169 85.0289 68.714 85.0289 69.2869C85.0289 69.8646 84.9306 70.3653 84.7341 70.7891C84.5376 71.2105 84.2654 71.5372 83.9174 71.7692C83.5694 71.9988 83.1681 72.1136 82.7135 72.1136C82.3632 72.1136 82.0826 72.0556 81.8719 71.9396C81.6612 71.8213 81.499 71.6875 81.3854 71.5384C81.2718 71.3868 81.1842 71.2614 81.1226 71.1619H81.0516V74.0455H80.2135ZM81.0374 69.2727C81.0374 69.6847 81.0978 70.0481 81.2185 70.3629C81.3392 70.6754 81.5156 70.9205 81.7476 71.098C81.9796 71.2732 82.2637 71.3608 82.5999 71.3608C82.9503 71.3608 83.2426 71.2685 83.477 71.0838C83.7138 70.8968 83.8913 70.6458 84.0097 70.331C84.1304 70.0137 84.1908 69.661 84.1908 69.2727C84.1908 68.8892 84.1316 68.5436 84.0132 68.2358C83.8972 67.9257 83.7209 67.6806 83.4841 67.5007C83.2498 67.3184 82.955 67.2273 82.5999 67.2273C82.259 67.2273 81.9725 67.3137 81.7405 67.4865C81.5085 67.657 81.3333 67.8961 81.2149 68.2038C81.0966 68.5092 81.0374 68.8655 81.0374 69.2727ZM87.9573 71.0057L87.9005 71.3892C87.8602 71.6591 87.7987 71.9479 87.7158 72.2557C87.6353 72.5634 87.5513 72.8535 87.4637 73.1257C87.3761 73.398 87.3039 73.6146 87.2471 73.7756H86.6078C86.6386 73.6241 86.6789 73.424 86.7286 73.1754C86.7783 72.9268 86.828 72.6487 86.8777 72.3409C86.9298 72.0355 86.9724 71.723 87.0056 71.4034L87.0482 71.0057H87.9573ZM93.2362 72V64.7273H95.6935C96.2617 64.7273 96.7281 64.8243 97.0927 65.0185C97.4573 65.2102 97.7272 65.4742 97.9023 65.8104C98.0775 66.1465 98.1651 66.5289 98.1651 66.9574C98.1651 67.3859 98.0775 67.7659 97.9023 68.0973C97.7272 68.4287 97.4585 68.6892 97.0962 68.8786C96.734 69.0656 96.2712 69.1591 95.7077 69.1591H93.7191V68.3636H95.6793C96.0676 68.3636 96.3801 68.3068 96.6168 68.1932C96.8559 68.0795 97.0288 67.9186 97.1353 67.7102C97.2442 67.4995 97.2987 67.2486 97.2987 66.9574C97.2987 66.6662 97.2442 66.4117 97.1353 66.1939C97.0264 65.9761 96.8524 65.808 96.6133 65.6896C96.3742 65.5689 96.0581 65.5085 95.6651 65.5085H94.1168V72H93.2362ZM96.6594 68.733L98.4492 72H97.4265L95.6651 68.733H96.6594ZM105.885 67H105.004C104.952 66.7467 104.861 66.5241 104.731 66.3324C104.603 66.1406 104.447 65.9796 104.262 65.8494C104.08 65.7169 103.877 65.6174 103.655 65.5511C103.432 65.4848 103.2 65.4517 102.959 65.4517C102.518 65.4517 102.12 65.563 101.762 65.7855C101.407 66.008 101.124 66.3359 100.913 66.7692C100.705 67.2024 100.601 67.7339 100.601 68.3636C100.601 68.9934 100.705 69.5249 100.913 69.9581C101.124 70.3913 101.407 70.7192 101.762 70.9418C102.12 71.1643 102.518 71.2756 102.959 71.2756C103.2 71.2756 103.432 71.2424 103.655 71.1761C103.877 71.1098 104.08 71.0116 104.262 70.8814C104.447 70.7488 104.603 70.5866 104.731 70.3949C104.861 70.2008 104.952 69.9782 105.004 69.7273H105.885C105.819 70.099 105.698 70.4316 105.523 70.7251C105.348 71.0187 105.13 71.2685 104.869 71.4744C104.609 71.678 104.316 71.8331 103.992 71.9396C103.67 72.0462 103.326 72.0994 102.959 72.0994C102.339 72.0994 101.787 71.9479 101.304 71.6449C100.821 71.3419 100.441 70.911 100.164 70.3523C99.887 69.7936 99.7485 69.1307 99.7485 68.3636C99.7485 67.5966 99.887 66.9337 100.164 66.375C100.441 65.8163 100.821 65.3854 101.304 65.0824C101.787 64.7794 102.339 64.6278 102.959 64.6278C103.326 64.6278 103.67 64.6811 103.992 64.7876C104.316 64.8942 104.609 65.0504 104.869 65.2564C105.13 65.46 105.348 65.7086 105.523 66.0021C105.698 66.2933 105.819 66.6259 105.885 67ZM111.685 66.5455C111.643 66.1856 111.47 65.9062 111.167 65.7074C110.864 65.5085 110.492 65.4091 110.052 65.4091C109.73 65.4091 109.448 65.4612 109.207 65.5653C108.967 65.6695 108.78 65.8127 108.646 65.995C108.513 66.1773 108.447 66.3845 108.447 66.6165C108.447 66.8106 108.493 66.9775 108.585 67.1172C108.68 67.2545 108.801 67.3693 108.947 67.4616C109.094 67.5516 109.248 67.6262 109.409 67.6854C109.57 67.7422 109.718 67.7884 109.853 67.8239L110.592 68.0227C110.781 68.0724 110.992 68.1411 111.224 68.2287C111.458 68.3163 111.682 68.4358 111.895 68.5874C112.11 68.7365 112.288 68.9283 112.427 69.1626C112.567 69.397 112.637 69.6847 112.637 70.0256C112.637 70.4186 112.534 70.7737 112.328 71.0909C112.124 71.4081 111.826 71.6603 111.433 71.8473C111.043 72.0343 110.568 72.1278 110.009 72.1278C109.488 72.1278 109.037 72.0438 108.656 71.8757C108.277 71.7076 107.979 71.4732 107.761 71.1726C107.546 70.8719 107.424 70.5227 107.396 70.125H108.305C108.328 70.3996 108.421 70.6269 108.582 70.8068C108.745 70.9844 108.951 71.117 109.2 71.2045C109.45 71.2898 109.72 71.3324 110.009 71.3324C110.345 71.3324 110.647 71.2779 110.915 71.169C111.182 71.0578 111.394 70.9039 111.55 70.7074C111.707 70.5085 111.785 70.2765 111.785 70.0114C111.785 69.7699 111.717 69.5734 111.582 69.4219C111.447 69.2704 111.27 69.1473 111.05 69.0526C110.829 68.9579 110.592 68.875 110.336 68.804L109.441 68.5483C108.873 68.3849 108.423 68.1518 108.092 67.8487C107.76 67.5457 107.594 67.1491 107.594 66.6591C107.594 66.2519 107.704 65.8968 107.925 65.5938C108.147 65.2884 108.445 65.0516 108.82 64.8835C109.196 64.7131 109.616 64.6278 110.08 64.6278C110.549 64.6278 110.966 64.7119 111.33 64.88C111.695 65.0457 111.984 65.273 112.197 65.5618C112.412 65.8506 112.526 66.1785 112.538 66.5455H111.685ZM115.621 71.0057L115.565 71.3892C115.524 71.6591 115.463 71.9479 115.38 72.2557C115.299 72.5634 115.215 72.8535 115.128 73.1257C115.04 73.398 114.968 73.6146 114.911 73.7756H114.272C114.303 73.6241 114.343 73.424 114.393 73.1754C114.442 72.9268 114.492 72.6487 114.542 72.3409C114.594 72.0355 114.636 71.723 114.67 71.4034L114.712 71.0057H115.621ZM124.877 66.5455C124.835 66.1856 124.662 65.9062 124.359 65.7074C124.056 65.5085 123.684 65.4091 123.244 65.4091C122.922 65.4091 122.64 65.4612 122.399 65.5653C122.16 65.6695 121.973 65.8127 121.838 65.995C121.705 66.1773 121.639 66.3845 121.639 66.6165C121.639 66.8106 121.685 66.9775 121.777 67.1172C121.872 67.2545 121.993 67.3693 122.14 67.4616C122.286 67.5516 122.44 67.6262 122.601 67.6854C122.762 67.7422 122.91 67.7884 123.045 67.8239L123.784 68.0227C123.973 68.0724 124.184 68.1411 124.416 68.2287C124.65 68.3163 124.874 68.4358 125.087 68.5874C125.302 68.7365 125.48 68.9283 125.62 69.1626C125.759 69.397 125.829 69.6847 125.829 70.0256C125.829 70.4186 125.726 70.7737 125.52 71.0909C125.317 71.4081 125.018 71.6603 124.625 71.8473C124.235 72.0343 123.76 72.1278 123.201 72.1278C122.681 72.1278 122.23 72.0438 121.848 71.8757C121.47 71.7076 121.171 71.4732 120.953 71.1726C120.738 70.8719 120.616 70.5227 120.588 70.125H121.497C121.52 70.3996 121.613 70.6269 121.774 70.8068C121.937 70.9844 122.143 71.117 122.392 71.2045C122.643 71.2898 122.913 71.3324 123.201 71.3324C123.538 71.3324 123.839 71.2779 124.107 71.169C124.374 71.0578 124.586 70.9039 124.743 70.7074C124.899 70.5085 124.977 70.2765 124.977 70.0114C124.977 69.7699 124.909 69.5734 124.775 69.4219C124.64 69.2704 124.462 69.1473 124.242 69.0526C124.022 68.9579 123.784 68.875 123.528 68.804L122.633 68.5483C122.065 68.3849 121.615 68.1518 121.284 67.8487C120.952 67.5457 120.787 67.1491 120.787 66.6591C120.787 66.2519 120.897 65.8968 121.117 65.5938C121.339 65.2884 121.638 65.0516 122.012 64.8835C122.388 64.7131 122.808 64.6278 123.272 64.6278C123.741 64.6278 124.158 64.7119 124.522 64.88C124.887 65.0457 125.176 65.273 125.389 65.5618C125.604 65.8506 125.718 66.1785 125.73 66.5455H124.877ZM127.677 64.7273H128.728L131.2 70.7642H131.285L133.757 64.7273H134.808V72H133.984V66.4744H133.913L131.64 72H130.845L128.572 66.4744H128.501V72H127.677V64.7273ZM140.951 66.5455C140.908 66.1856 140.735 65.9062 140.432 65.7074C140.129 65.5085 139.758 65.4091 139.317 65.4091C138.995 65.4091 138.714 65.4612 138.472 65.5653C138.233 65.6695 138.046 65.8127 137.911 65.995C137.779 66.1773 137.712 66.3845 137.712 66.6165C137.712 66.8106 137.758 66.9775 137.851 67.1172C137.945 67.2545 138.066 67.3693 138.213 67.4616C138.36 67.5516 138.514 67.6262 138.675 67.6854C138.836 67.7422 138.984 67.7884 139.119 67.8239L139.857 68.0227C140.047 68.0724 140.257 68.1411 140.489 68.2287C140.724 68.3163 140.947 68.4358 141.16 68.5874C141.376 68.7365 141.553 68.9283 141.693 69.1626C141.833 69.397 141.903 69.6847 141.903 70.0256C141.903 70.4186 141.8 70.7737 141.594 71.0909C141.39 71.4081 141.092 71.6603 140.699 71.8473C140.308 72.0343 139.834 72.1278 139.275 72.1278C138.754 72.1278 138.303 72.0438 137.922 71.8757C137.543 71.7076 137.245 71.4732 137.027 71.1726C136.811 70.8719 136.69 70.5227 136.661 70.125H137.57C137.594 70.3996 137.686 70.6269 137.847 70.8068C138.011 70.9844 138.217 71.117 138.465 71.2045C138.716 71.2898 138.986 71.3324 139.275 71.3324C139.611 71.3324 139.913 71.2779 140.18 71.169C140.448 71.0578 140.66 70.9039 140.816 70.7074C140.972 70.5085 141.05 70.2765 141.05 70.0114C141.05 69.7699 140.983 69.5734 140.848 69.4219C140.713 69.2704 140.535 69.1473 140.315 69.0526C140.095 68.9579 139.857 68.875 139.601 68.804L138.707 68.5483C138.138 68.3849 137.689 68.1518 137.357 67.8487C137.026 67.5457 136.86 67.1491 136.86 66.6591C136.86 66.2519 136.97 65.8968 137.19 65.5938C137.413 65.2884 137.711 65.0516 138.085 64.8835C138.462 64.7131 138.882 64.6278 139.346 64.6278C139.815 64.6278 140.231 64.7119 140.596 64.88C140.96 65.0457 141.249 65.273 141.462 65.5618C141.678 65.8506 141.791 66.1785 141.803 66.5455H140.951Z" fill="#424242"/>
<defs>
<filter id="filter0_d_2246_3843" x="0" y="11.7998" width="196.01" height="155.45" filterUnits="userSpaceOnUse" color-interpolation-filters="sRGB">
<feFlood flood-opacity="0" result="BackgroundImageFix"/>
<feColorMatrix in="SourceAlpha" type="matrix" values="0 0 0 0 0 0 0 0 0 0 0 0 0 0 0 0 0 0 127 0" result="hardAlpha"/>
<feOffset/>
<feGaussianBlur stdDeviation="7"/>
<feColorMatrix type="matrix" values="0 0 0 0 0.0644816 0 0 0 0 0.156308 0 0 0 0 0.365645 0 0 0 0.321034 0"/>
<feBlend mode="normal" in2="BackgroundImageFix" result="effect1_dropShadow_2246_3843"/>
<feBlend mode="normal" in="SourceGraphic" in2="effect1_dropShadow_2246_3843" result="shape"/>
</filter>
<filter id="filter1_d_2246_3843" x="151" y="0" width="56" height="56" filterUnits="userSpaceOnUse" color-interpolation-filters="sRGB">
<feFlood flood-opacity="0" result="BackgroundImageFix"/>
<feColorMatrix in="SourceAlpha" type="matrix" values="0 0 0 0 0 0 0 0 0 0 0 0 0 0 0 0 0 0 127 0" result="hardAlpha"/>
<feOffset/>
<feGaussianBlur stdDeviation="4"/>
<feComposite in2="hardAlpha" operator="out"/>
<feColorMatrix type="matrix" values="0 0 0 0 0.0627451 0 0 0 0 0.156863 0 0 0 0 0.364706 0 0 0 0.358265 0"/>
<feBlend mode="normal" in2="BackgroundImageFix" result="effect1_dropShadow_2246_3843"/>
<feBlend mode="normal" in="SourceGraphic" in2="effect1_dropShadow_2246_3843" result="shape"/>
</filter>
</defs>
</svg>
