<svg width="562" height="429" viewBox="0 0 562 429" fill="none" xmlns="http://www.w3.org/2000/svg">
<path fill-rule="evenodd" clip-rule="evenodd" d="M284.299 18C274.609 18.02 264.789 18.96 254.849 20.94C161.549 53.57 194.359 221.08 241.569 321C339.349 527.9 653.949 410.05 510.319 185.16C458.949 104.7 378.329 18.16 284.869 18H284.309H284.299Z" fill="url(#paint0_linear_2246_3787)"/>
<path fill-rule="evenodd" clip-rule="evenodd" d="M276.83 79.8296C153.97 127.31 15.93 203.98 16 273.82C16.05 317.14 69.24 357.82 212.16 387.26C334.63 397.59 444.47 290.26 487.44 189.01C527.32 73.1196 497.04 36.0996 438 36.0996C394.4 36.0996 335.13 56.2996 276.83 79.8296Z" fill="#FFEAE7"/>
<path fill-rule="evenodd" clip-rule="evenodd" d="M442.499 212.75C442.669 213.17 442.799 213.62 442.899 214.09C443.069 215.269 442.877 216.472 442.349 217.54C441.648 218.876 440.476 219.905 439.061 220.429C437.645 220.952 436.086 220.931 434.685 220.372C433.283 219.812 432.139 218.753 431.473 217.399C430.807 216.045 430.666 214.491 431.079 213.04C431.431 212.118 431.977 211.283 432.679 210.59C433.396 209.898 434.273 209.393 435.232 209.122C436.191 208.852 437.203 208.822 438.176 209.037C439.149 209.252 440.054 209.704 440.81 210.354C441.566 211.003 442.15 211.83 442.509 212.76M423.979 220.98L426.879 220.65C427.119 220.63 427.349 220.75 427.479 220.95C427.965 221.693 428.535 222.378 429.179 222.99C429.359 223.17 429.429 223.45 429.329 223.69L428.219 226.53C428.099 226.83 428.219 227.18 428.519 227.33L431.019 228.56C431.299 228.71 431.639 228.61 431.819 228.35L433.319 225.98C433.39 225.865 433.497 225.776 433.623 225.727C433.75 225.678 433.889 225.672 434.019 225.71C435.159 226.01 436.359 226.21 437.549 226.11C437.839 226.11 438.109 226.31 438.189 226.6L438.689 228.23C438.789 228.53 439.119 228.73 439.439 228.67L442.139 228.13C442.209 228.12 442.259 228.1 442.309 228.08C442.425 228.022 442.521 227.93 442.582 227.815C442.643 227.7 442.666 227.569 442.649 227.44L442.409 225.27V224.74C443.496 224.139 444.476 223.361 445.309 222.44C445.395 222.345 445.509 222.279 445.634 222.25C445.759 222.222 445.89 222.232 446.009 222.28L448.289 223.18C448.609 223.3 448.959 223.16 449.109 222.86L450.049 220.95L450.319 220.37C450.391 220.226 450.408 220.061 450.365 219.906C450.323 219.75 450.224 219.617 450.089 219.53L448.119 218.28C448.009 218.21 447.924 218.108 447.876 217.988C447.828 217.868 447.818 217.736 447.849 217.61C448.029 216.83 448.129 216.03 448.149 215.23V215.03C448.148 214.895 448.191 214.763 448.27 214.653C448.349 214.544 448.46 214.462 448.589 214.42L451.239 213.59L451.319 213.55C451.579 213.43 451.719 213.14 451.669 212.85L451.119 210.14C451.085 209.984 450.995 209.847 450.865 209.755C450.736 209.662 450.577 209.621 450.419 209.64L447.399 209.98C447.272 209.996 447.144 209.973 447.032 209.914C446.919 209.855 446.827 209.763 446.769 209.65C446.344 208.876 445.83 208.155 445.239 207.5C445.154 207.413 445.095 207.305 445.068 207.186C445.041 207.068 445.049 206.944 445.089 206.83L446.159 204.09C446.221 203.943 446.224 203.779 446.168 203.63C446.113 203.481 446.002 203.359 445.859 203.29L443.379 202.08C443.234 202.008 443.068 201.993 442.912 202.038C442.757 202.082 442.624 202.183 442.539 202.32L441.339 204.18C441.262 204.299 441.147 204.389 441.013 204.436C440.879 204.484 440.733 204.485 440.599 204.44C439.499 204.06 438.349 203.86 437.199 203.83C437.065 203.828 436.936 203.785 436.828 203.706C436.721 203.627 436.64 203.517 436.599 203.39L435.839 201.01C435.79 200.854 435.685 200.722 435.545 200.639C435.405 200.556 435.239 200.528 435.079 200.56L432.379 201.1C432.222 201.131 432.083 201.221 431.991 201.351C431.898 201.481 431.858 201.642 431.879 201.8V201.92L432.179 204.41C432.19 204.541 432.164 204.672 432.101 204.787C432.039 204.903 431.944 204.998 431.829 205.06C430.927 205.528 430.092 206.117 429.349 206.81C429.261 206.894 429.152 206.95 429.033 206.973C428.914 206.996 428.791 206.985 428.679 206.94L426.359 206.04C426.208 205.976 426.039 205.972 425.885 206.027C425.731 206.083 425.604 206.195 425.529 206.34L424.319 208.78C424.249 208.922 424.234 209.086 424.276 209.238C424.319 209.391 424.416 209.523 424.549 209.61L426.129 210.61C426.248 210.687 426.34 210.801 426.389 210.934C426.437 211.068 426.441 211.214 426.399 211.35C425.919 212.77 425.729 214.25 425.829 215.75C425.837 215.89 425.799 216.03 425.719 216.146C425.639 216.262 425.523 216.348 425.389 216.39L423.249 217.06C422.949 217.16 422.749 217.48 422.819 217.8V217.84L423.359 220.47C423.429 220.82 423.729 221.04 424.059 221" fill="#FFE3E4"/>
<path d="M136.01 267.35C135.8 261.56 138.91 256.23 142.32 251.65C165.67 220.25 206.21 207.55 244.45 206.92C282.69 206.3 320.33 215.82 358.33 220.27C390.44 224.02 425.08 223.54 452.26 205.43C497.41 175.35 502.76 92.0505 466.96 52.7005C420.23 1.32047 305.14 9.53047 294.92 121.26" stroke="#F48F93" stroke-linecap="round" stroke-dasharray="3 3"/>
<path fill-rule="evenodd" clip-rule="evenodd" d="M411.87 226.591C412.07 227.111 412.25 227.671 412.37 228.271C412.579 229.751 412.335 231.261 411.67 232.601C410.953 234.058 409.791 235.25 408.353 236.003C406.914 236.757 405.272 237.032 403.666 236.791C402.06 236.549 400.572 235.802 399.419 234.659C398.265 233.515 397.506 232.035 397.25 230.431C397.043 229.02 397.233 227.579 397.8 226.271C398.238 225.377 398.826 224.565 399.54 223.871C400.44 223.003 401.54 222.372 402.743 222.032C403.945 221.693 405.214 221.656 406.434 221.925C407.654 222.194 408.789 222.761 409.738 223.575C410.686 224.389 411.419 225.425 411.87 226.591ZM388.61 236.921L392.24 236.521C392.54 236.481 392.84 236.621 393.01 236.871C393.609 237.808 394.317 238.671 395.12 239.441C395.238 239.55 395.32 239.693 395.356 239.85C395.391 240.007 395.379 240.171 395.32 240.321L393.92 243.881C393.77 244.261 393.94 244.701 394.32 244.881L397.45 246.431C397.8 246.611 398.23 246.491 398.45 246.161L400.34 243.191C400.51 242.891 400.87 242.761 401.21 242.851C402.65 243.231 404.15 243.381 405.64 243.291C405.818 243.28 405.994 243.33 406.141 243.431C406.288 243.533 406.397 243.68 406.45 243.851L407.09 245.891C407.22 246.291 407.61 246.521 408.02 246.441L411.42 245.761C411.614 245.724 411.788 245.615 411.905 245.455C412.022 245.295 412.074 245.097 412.05 244.901L411.75 242.181L411.67 241.511C413.017 240.755 414.23 239.782 415.26 238.631C415.367 238.512 415.508 238.43 415.663 238.394C415.819 238.358 415.982 238.371 416.13 238.431L419 239.551C419.189 239.626 419.4 239.627 419.589 239.553C419.779 239.478 419.933 239.334 420.02 239.151L421.2 236.751L421.54 236.071C421.627 235.889 421.645 235.682 421.59 235.488C421.535 235.295 421.41 235.128 421.24 235.021L418.77 233.431C418.629 233.344 418.519 233.215 418.456 233.063C418.393 232.91 418.381 232.741 418.42 232.581C418.65 231.601 418.78 230.601 418.8 229.601V229.271C418.814 229.109 418.877 228.955 418.981 228.83C419.084 228.705 419.224 228.615 419.38 228.571L422.68 227.531C422.73 227.531 422.77 227.511 422.78 227.491C422.944 227.417 423.079 227.29 423.163 227.131C423.246 226.971 423.273 226.788 423.24 226.611L422.56 223.211C422.519 223.014 422.405 222.841 422.243 222.724C422.08 222.608 421.879 222.556 421.68 222.581L417.88 223.011C417.725 223.03 417.567 223.002 417.428 222.931C417.289 222.859 417.175 222.748 417.1 222.611C416.559 221.663 415.911 220.781 415.17 219.981C415.064 219.865 414.993 219.723 414.964 219.569C414.936 219.415 414.952 219.256 415.01 219.111L416.35 215.691C416.423 215.507 416.425 215.302 416.355 215.116C416.284 214.931 416.147 214.779 415.97 214.691L412.87 213.171C412.686 213.081 412.476 213.063 412.28 213.12C412.084 213.178 411.916 213.306 411.81 213.481L410.31 215.801C410.214 215.954 410.068 216.07 409.897 216.13C409.727 216.19 409.541 216.19 409.37 216.131C407.991 215.658 406.547 215.401 405.09 215.371C404.9 215.391 404.708 215.343 404.55 215.235C404.393 215.127 404.279 214.966 404.23 214.781L403.29 211.791C403.228 211.599 403.098 211.437 402.925 211.334C402.752 211.231 402.548 211.194 402.35 211.231L398.97 211.911C398.776 211.949 398.603 212.059 398.484 212.218C398.366 212.376 398.311 212.573 398.33 212.771L398.35 212.931L398.71 216.081C398.731 216.246 398.7 216.414 398.621 216.561C398.542 216.708 398.42 216.827 398.27 216.901C397.135 217.489 396.085 218.229 395.15 219.101C395.041 219.204 394.906 219.274 394.759 219.304C394.612 219.335 394.46 219.323 394.32 219.271L391.4 218.151C391.208 218.078 390.996 218.079 390.805 218.155C390.614 218.231 390.459 218.376 390.37 218.561L388.86 221.641C388.773 221.819 388.754 222.022 388.805 222.213C388.857 222.404 388.975 222.57 389.14 222.681L391.12 223.951C391.27 224.049 391.384 224.195 391.444 224.365C391.504 224.535 391.506 224.719 391.45 224.891C390.85 226.661 390.61 228.531 390.74 230.391C390.755 230.569 390.709 230.748 390.609 230.897C390.509 231.046 390.361 231.157 390.19 231.211L387.49 232.051C387.302 232.113 387.144 232.242 387.046 232.414C386.948 232.586 386.918 232.787 386.96 232.981V233.041L387.63 236.361C387.72 236.781 388.1 237.061 388.53 237.011" fill="#FFD3D5"/>
<path fill-rule="evenodd" clip-rule="evenodd" d="M10.9506 285.82C11.1491 285.804 11.3489 285.828 11.5374 285.893C11.7258 285.957 11.8988 286.06 12.0454 286.195C12.1921 286.33 12.3091 286.494 12.3891 286.676C12.4692 286.859 12.5105 287.056 12.5105 287.255C12.5105 287.454 12.4692 287.651 12.3891 287.834C12.3091 288.016 12.1921 288.18 12.0454 288.315C11.8988 288.45 11.7258 288.553 11.5374 288.617C11.3489 288.682 11.1491 288.707 10.9506 288.69C10.5907 288.66 10.2553 288.496 10.0107 288.23C9.76623 287.964 9.63052 287.616 9.63052 287.255C9.63052 286.894 9.76623 286.546 10.0107 286.28C10.2553 286.014 10.5907 285.85 10.9506 285.82ZM30.1606 285.82C30.3591 285.804 30.5589 285.828 30.7474 285.893C30.9358 285.957 31.1088 286.06 31.2554 286.195C31.4021 286.33 31.5191 286.494 31.5991 286.676C31.6792 286.859 31.7205 287.056 31.7205 287.255C31.7205 287.454 31.6792 287.651 31.5991 287.834C31.5191 288.016 31.4021 288.18 31.2554 288.315C31.1088 288.45 30.9358 288.553 30.7474 288.617C30.5589 288.682 30.3591 288.707 30.1606 288.69C29.8007 288.66 29.4653 288.496 29.2207 288.23C28.9762 287.964 28.8405 287.616 28.8405 287.255C28.8405 286.894 28.9762 286.546 29.2207 286.28C29.4653 286.014 29.8007 285.85 30.1606 285.82ZM49.3806 285.82C49.5791 285.804 49.7789 285.828 49.9674 285.893C50.1558 285.957 50.3288 286.06 50.4754 286.195C50.6221 286.33 50.7391 286.494 50.8191 286.676C50.8992 286.859 50.9405 287.056 50.9405 287.255C50.9405 287.454 50.8992 287.651 50.8191 287.834C50.7391 288.016 50.6221 288.18 50.4754 288.315C50.3288 288.45 50.1558 288.553 49.9674 288.617C49.7789 288.682 49.5791 288.707 49.3806 288.69C49.0207 288.66 48.6853 288.496 48.4407 288.23C48.1962 287.964 48.0605 287.616 48.0605 287.255C48.0605 286.894 48.1962 286.546 48.4407 286.28C48.6853 286.014 49.0207 285.85 49.3806 285.82ZM68.5806 285.82C68.7791 285.803 68.979 285.827 69.1676 285.891C69.3563 285.955 69.5296 286.057 69.6767 286.192C69.8237 286.326 69.9413 286.489 70.022 286.671C70.1027 286.854 70.1447 287.05 70.1454 287.25C70.1461 287.449 70.1055 287.646 70.026 287.829C69.9466 288.011 69.8302 288.176 69.6841 288.311C69.5379 288.446 69.3653 288.55 69.1771 288.615C68.9889 288.681 68.7892 288.706 68.5906 288.69C68.2307 288.66 67.8953 288.496 67.6507 288.23C67.4062 287.964 67.2705 287.616 67.2705 287.255C67.2705 286.894 67.4062 286.546 67.6507 286.28C67.8953 286.014 68.2307 285.85 68.5906 285.82H68.5806ZM87.8106 285.82C88.0091 285.804 88.2089 285.828 88.3974 285.893C88.5858 285.957 88.7588 286.06 88.9054 286.195C89.052 286.33 89.1691 286.494 89.2491 286.676C89.3292 286.859 89.3705 287.056 89.3705 287.255C89.3705 287.454 89.3292 287.651 89.2491 287.834C89.1691 288.016 89.052 288.18 88.9054 288.315C88.7588 288.45 88.5858 288.553 88.3974 288.617C88.2089 288.682 88.0091 288.707 87.8106 288.69C87.4507 288.66 87.1153 288.496 86.8707 288.23C86.6262 287.964 86.4905 287.616 86.4905 287.255C86.4905 286.894 86.6262 286.546 86.8707 286.28C87.1153 286.014 87.4507 285.85 87.8106 285.82ZM107.011 285.82C107.209 285.804 107.409 285.828 107.597 285.893C107.786 285.957 107.959 286.06 108.105 286.195C108.252 286.33 108.369 286.494 108.449 286.676C108.529 286.859 108.571 287.056 108.571 287.255C108.571 287.454 108.529 287.651 108.449 287.834C108.369 288.016 108.252 288.18 108.105 288.315C107.959 288.45 107.786 288.553 107.597 288.617C107.409 288.682 107.209 288.707 107.011 288.69C106.651 288.66 106.315 288.496 106.071 288.23C105.826 287.964 105.691 287.616 105.691 287.255C105.691 286.894 105.826 286.546 106.071 286.28C106.315 286.014 106.651 285.85 107.011 285.82ZM126.231 285.82C126.429 285.804 126.629 285.828 126.817 285.893C127.006 285.957 127.179 286.06 127.325 286.195C127.472 286.33 127.589 286.494 127.669 286.676C127.749 286.859 127.791 287.056 127.791 287.255C127.791 287.454 127.749 287.651 127.669 287.834C127.589 288.016 127.472 288.18 127.325 288.315C127.179 288.45 127.006 288.553 126.817 288.617C126.629 288.682 126.429 288.707 126.231 288.69C125.871 288.66 125.535 288.496 125.291 288.23C125.046 287.964 124.911 287.616 124.911 287.255C124.911 286.894 125.046 286.546 125.291 286.28C125.535 286.014 125.871 285.85 126.231 285.82ZM2.08062 271.05C2.27914 271.034 2.47894 271.058 2.66739 271.123C2.85584 271.187 3.02884 271.29 3.17544 271.425C3.32205 271.56 3.43908 271.724 3.51914 271.906C3.59919 272.089 3.64052 272.286 3.64052 272.485C3.64052 272.684 3.59919 272.881 3.51914 273.064C3.43908 273.246 3.32205 273.41 3.17544 273.545C3.02884 273.68 2.85584 273.783 2.66739 273.847C2.47894 273.912 2.27914 273.937 2.08062 273.92C1.72072 273.89 1.38526 273.726 1.14074 273.46C0.896231 273.194 0.760521 272.846 0.760521 272.485C0.760521 272.124 0.896231 271.776 1.14074 271.51C1.38526 271.244 1.72072 271.08 2.08062 271.05ZM21.3006 271.05C21.4991 271.034 21.6989 271.058 21.8874 271.123C22.0758 271.187 22.2488 271.29 22.3954 271.425C22.5421 271.56 22.6591 271.724 22.7391 271.906C22.8192 272.089 22.8605 272.286 22.8605 272.485C22.8605 272.684 22.8192 272.881 22.7391 273.064C22.6591 273.246 22.5421 273.41 22.3954 273.545C22.2488 273.68 22.0758 273.783 21.8874 273.847C21.6989 273.912 21.4991 273.937 21.3006 273.92C20.9407 273.89 20.6053 273.726 20.3607 273.46C20.1162 273.194 19.9805 272.846 19.9805 272.485C19.9805 272.124 20.1162 271.776 20.3607 271.51C20.6053 271.244 20.9407 271.08 21.3006 271.05ZM40.5006 271.05C40.6991 271.034 40.8989 271.058 41.0874 271.123C41.2758 271.187 41.4488 271.29 41.5954 271.425C41.7421 271.56 41.8591 271.724 41.9391 271.906C42.0192 272.089 42.0605 272.286 42.0605 272.485C42.0605 272.684 42.0192 272.881 41.9391 273.064C41.8591 273.246 41.7421 273.41 41.5954 273.545C41.4488 273.68 41.2758 273.783 41.0874 273.847C40.8989 273.912 40.6991 273.937 40.5006 273.92C40.1407 273.89 39.8053 273.726 39.5607 273.46C39.3162 273.194 39.1805 272.846 39.1805 272.485C39.1805 272.124 39.3162 271.776 39.5607 271.51C39.8053 271.244 40.1407 271.08 40.5006 271.05ZM59.7206 271.05C59.9191 271.034 60.1189 271.058 60.3074 271.123C60.4958 271.187 60.6688 271.29 60.8154 271.425C60.9621 271.56 61.0791 271.724 61.1591 271.906C61.2392 272.089 61.2805 272.286 61.2805 272.485C61.2805 272.684 61.2392 272.881 61.1591 273.064C61.0791 273.246 60.9621 273.41 60.8154 273.545C60.6688 273.68 60.4958 273.783 60.3074 273.847C60.1189 273.912 59.9191 273.937 59.7206 273.92C59.3607 273.89 59.0253 273.726 58.7807 273.46C58.5362 273.194 58.4005 272.846 58.4005 272.485C58.4005 272.124 58.5362 271.776 58.7807 271.51C59.0253 271.244 59.3607 271.08 59.7206 271.05ZM78.9406 271.05C79.1391 271.034 79.3389 271.058 79.5274 271.123C79.7158 271.187 79.8888 271.29 80.0354 271.425C80.1821 271.56 80.2991 271.724 80.3791 271.906C80.4592 272.089 80.5005 272.286 80.5005 272.485C80.5005 272.684 80.4592 272.881 80.3791 273.064C80.2991 273.246 80.1821 273.41 80.0354 273.545C79.8888 273.68 79.7158 273.783 79.5274 273.847C79.3389 273.912 79.1391 273.937 78.9406 273.92C78.5807 273.89 78.2453 273.726 78.0007 273.46C77.7562 273.194 77.6205 272.846 77.6205 272.485C77.6205 272.124 77.7562 271.776 78.0007 271.51C78.2453 271.244 78.5807 271.08 78.9406 271.05ZM98.1506 271.05C98.3491 271.034 98.5489 271.058 98.7374 271.123C98.9258 271.187 99.0988 271.29 99.2454 271.425C99.3921 271.56 99.5091 271.724 99.5891 271.906C99.6692 272.089 99.7105 272.286 99.7105 272.485C99.7105 272.684 99.6692 272.881 99.5891 273.064C99.5091 273.246 99.3921 273.41 99.2454 273.545C99.0988 273.68 98.9258 273.783 98.7374 273.847C98.5489 273.912 98.3491 273.937 98.1506 273.92C97.7907 273.89 97.4553 273.726 97.2107 273.46C96.9662 273.194 96.8305 272.846 96.8305 272.485C96.8305 272.124 96.9662 271.776 97.2107 271.51C97.4553 271.244 97.7907 271.08 98.1506 271.05ZM117.361 271.05C117.559 271.034 117.759 271.058 117.947 271.123C118.136 271.187 118.309 271.29 118.455 271.425C118.602 271.56 118.719 271.724 118.799 271.906C118.879 272.089 118.921 272.286 118.921 272.485C118.921 272.684 118.879 272.881 118.799 273.064C118.719 273.246 118.602 273.41 118.455 273.545C118.309 273.68 118.136 273.783 117.947 273.847C117.759 273.912 117.559 273.937 117.361 273.92C117.001 273.89 116.665 273.726 116.421 273.46C116.176 273.194 116.041 272.846 116.041 272.485C116.041 272.124 116.176 271.776 116.421 271.51C116.665 271.244 117.001 271.08 117.361 271.05ZM10.9606 254.8C11.1591 254.784 11.3589 254.808 11.5474 254.873C11.7358 254.937 11.9088 255.04 12.0554 255.175C12.2021 255.31 12.3191 255.474 12.3991 255.656C12.4792 255.839 12.5205 256.036 12.5205 256.235C12.5205 256.434 12.4792 256.631 12.3991 256.814C12.3191 256.996 12.2021 257.16 12.0554 257.295C11.9088 257.43 11.7358 257.533 11.5474 257.597C11.3589 257.662 11.1591 257.687 10.9606 257.67C10.6007 257.64 10.2653 257.476 10.0207 257.21C9.77623 256.944 9.64052 256.596 9.64052 256.235C9.64052 255.874 9.77623 255.526 10.0207 255.26C10.2653 254.994 10.6007 254.83 10.9606 254.8ZM30.1706 254.8C30.3691 254.784 30.5689 254.808 30.7574 254.873C30.9458 254.937 31.1188 255.04 31.2654 255.175C31.4121 255.31 31.5291 255.474 31.6091 255.656C31.6892 255.839 31.7305 256.036 31.7305 256.235C31.7305 256.434 31.6892 256.631 31.6091 256.814C31.5291 256.996 31.4121 257.16 31.2654 257.295C31.1188 257.43 30.9458 257.533 30.7574 257.597C30.5689 257.662 30.3691 257.687 30.1706 257.67C29.8107 257.64 29.4753 257.476 29.2307 257.21C28.9862 256.944 28.8505 256.596 28.8505 256.235C28.8505 255.874 28.9862 255.526 29.2307 255.26C29.4753 254.994 29.8107 254.83 30.1706 254.8ZM49.3906 254.8C49.5891 254.784 49.7889 254.808 49.9774 254.873C50.1658 254.937 50.3388 255.04 50.4854 255.175C50.6321 255.31 50.7491 255.474 50.8291 255.656C50.9092 255.839 50.9505 256.036 50.9505 256.235C50.9505 256.434 50.9092 256.631 50.8291 256.814C50.7491 256.996 50.6321 257.16 50.4854 257.295C50.3388 257.43 50.1658 257.533 49.9774 257.597C49.7889 257.662 49.5891 257.687 49.3906 257.67C49.0307 257.64 48.6953 257.476 48.4507 257.21C48.2062 256.944 48.0705 256.596 48.0705 256.235C48.0705 255.874 48.2062 255.526 48.4507 255.26C48.6953 254.994 49.0307 254.83 49.3906 254.8ZM68.6006 254.8C68.7991 254.784 68.9989 254.808 69.1874 254.873C69.3758 254.937 69.5488 255.04 69.6954 255.175C69.842 255.31 69.9591 255.474 70.0391 255.656C70.1192 255.839 70.1605 256.036 70.1605 256.235C70.1605 256.434 70.1192 256.631 70.0391 256.814C69.9591 256.996 69.842 257.16 69.6954 257.295C69.5488 257.43 69.3758 257.533 69.1874 257.597C68.9989 257.662 68.7991 257.687 68.6006 257.67C68.2407 257.64 67.9053 257.476 67.6607 257.21C67.4162 256.944 67.2805 256.596 67.2805 256.235C67.2805 255.874 67.4162 255.526 67.6607 255.26C67.9053 254.994 68.2407 254.83 68.6006 254.8ZM87.8206 254.8C88.0191 254.784 88.2189 254.808 88.4074 254.873C88.5958 254.937 88.7688 255.04 88.9154 255.175C89.062 255.31 89.1791 255.474 89.2591 255.656C89.3392 255.839 89.3805 256.036 89.3805 256.235C89.3805 256.434 89.3392 256.631 89.2591 256.814C89.1791 256.996 89.062 257.16 88.9154 257.295C88.7688 257.43 88.5958 257.533 88.4074 257.597C88.2189 257.662 88.0191 257.687 87.8206 257.67C87.4607 257.64 87.1253 257.476 86.8807 257.21C86.6362 256.944 86.5005 256.596 86.5005 256.235C86.5005 255.874 86.6362 255.526 86.8807 255.26C87.1253 254.994 87.4607 254.83 87.8206 254.8ZM107.021 254.8C107.219 254.784 107.419 254.808 107.607 254.873C107.796 254.937 107.969 255.04 108.115 255.175C108.262 255.31 108.379 255.474 108.459 255.656C108.539 255.839 108.581 256.036 108.581 256.235C108.581 256.434 108.539 256.631 108.459 256.814C108.379 256.996 108.262 257.16 108.115 257.295C107.969 257.43 107.796 257.533 107.607 257.597C107.419 257.662 107.219 257.687 107.021 257.67C106.661 257.64 106.325 257.476 106.081 257.21C105.836 256.944 105.701 256.596 105.701 256.235C105.701 255.874 105.836 255.526 106.081 255.26C106.325 254.994 106.661 254.83 107.021 254.8ZM126.241 254.8C126.439 254.784 126.639 254.808 126.827 254.873C127.016 254.937 127.189 255.04 127.335 255.175C127.482 255.31 127.599 255.474 127.679 255.656C127.759 255.839 127.801 256.036 127.801 256.235C127.801 256.434 127.759 256.631 127.679 256.814C127.599 256.996 127.482 257.16 127.335 257.295C127.189 257.43 127.016 257.533 126.827 257.597C126.639 257.662 126.439 257.687 126.241 257.67C125.881 257.64 125.545 257.476 125.301 257.21C125.056 256.944 124.921 256.596 124.921 256.235C124.921 255.874 125.056 255.526 125.301 255.26C125.545 254.994 125.881 254.83 126.241 254.8ZM2.08062 240.03C2.27914 240.014 2.47894 240.038 2.66739 240.103C2.85584 240.167 3.02884 240.27 3.17544 240.405C3.32205 240.54 3.43908 240.704 3.51914 240.886C3.59919 241.069 3.64052 241.266 3.64052 241.465C3.64052 241.664 3.59919 241.861 3.51914 242.044C3.43908 242.226 3.32205 242.39 3.17544 242.525C3.02884 242.66 2.85584 242.763 2.66739 242.827C2.47894 242.892 2.27914 242.917 2.08062 242.9C1.72072 242.87 1.38526 242.706 1.14074 242.44C0.896231 242.174 0.760521 241.826 0.760521 241.465C0.760521 241.104 0.896231 240.756 1.14074 240.49C1.38526 240.224 1.72072 240.06 2.08062 240.03ZM21.3006 240.03C21.4991 240.014 21.6989 240.038 21.8874 240.103C22.0758 240.167 22.2488 240.27 22.3954 240.405C22.5421 240.54 22.6591 240.704 22.7391 240.886C22.8192 241.069 22.8605 241.266 22.8605 241.465C22.8605 241.664 22.8192 241.861 22.7391 242.044C22.6591 242.226 22.5421 242.39 22.3954 242.525C22.2488 242.66 22.0758 242.763 21.8874 242.827C21.6989 242.892 21.4991 242.917 21.3006 242.9C20.9407 242.87 20.6053 242.706 20.3607 242.44C20.1162 242.174 19.9805 241.826 19.9805 241.465C19.9805 241.104 20.1162 240.756 20.3607 240.49C20.6053 240.224 20.9407 240.06 21.3006 240.03ZM40.5006 240.03C40.6991 240.014 40.8989 240.038 41.0874 240.103C41.2758 240.167 41.4488 240.27 41.5954 240.405C41.7421 240.54 41.8591 240.704 41.9391 240.886C42.0192 241.069 42.0605 241.266 42.0605 241.465C42.0605 241.664 42.0192 241.861 41.9391 242.044C41.8591 242.226 41.7421 242.39 41.5954 242.525C41.4488 242.66 41.2758 242.763 41.0874 242.827C40.8989 242.892 40.6991 242.917 40.5006 242.9C40.1407 242.87 39.8053 242.706 39.5607 242.44C39.3162 242.174 39.1805 241.826 39.1805 241.465C39.1805 241.104 39.3162 240.756 39.5607 240.49C39.8053 240.224 40.1407 240.06 40.5006 240.03ZM59.7206 240.03C59.9191 240.014 60.1189 240.038 60.3074 240.103C60.4958 240.167 60.6688 240.27 60.8154 240.405C60.9621 240.54 61.0791 240.704 61.1591 240.886C61.2392 241.069 61.2805 241.266 61.2805 241.465C61.2805 241.664 61.2392 241.861 61.1591 242.044C61.0791 242.226 60.9621 242.39 60.8154 242.525C60.6688 242.66 60.4958 242.763 60.3074 242.827C60.1189 242.892 59.9191 242.917 59.7206 242.9C59.3607 242.87 59.0253 242.706 58.7807 242.44C58.5362 242.174 58.4005 241.826 58.4005 241.465C58.4005 241.104 58.5362 240.756 58.7807 240.49C59.0253 240.224 59.3607 240.06 59.7206 240.03ZM78.9406 240.03C79.1391 240.014 79.3389 240.038 79.5274 240.103C79.7158 240.167 79.8888 240.27 80.0354 240.405C80.1821 240.54 80.2991 240.704 80.3791 240.886C80.4592 241.069 80.5005 241.266 80.5005 241.465C80.5005 241.664 80.4592 241.861 80.3791 242.044C80.2991 242.226 80.1821 242.39 80.0354 242.525C79.8888 242.66 79.7158 242.763 79.5274 242.827C79.3389 242.892 79.1391 242.917 78.9406 242.9C78.5807 242.87 78.2453 242.706 78.0007 242.44C77.7562 242.174 77.6205 241.826 77.6205 241.465C77.6205 241.104 77.7562 240.756 78.0007 240.49C78.2453 240.224 78.5807 240.06 78.9406 240.03ZM98.1506 240.03C98.3491 240.014 98.5489 240.038 98.7374 240.103C98.9258 240.167 99.0988 240.27 99.2454 240.405C99.3921 240.54 99.5091 240.704 99.5891 240.886C99.6692 241.069 99.7105 241.266 99.7105 241.465C99.7105 241.664 99.6692 241.861 99.5891 242.044C99.5091 242.226 99.3921 242.39 99.2454 242.525C99.0988 242.66 98.9258 242.763 98.7374 242.827C98.5489 242.892 98.3491 242.917 98.1506 242.9C97.7907 242.87 97.4553 242.706 97.2107 242.44C96.9662 242.174 96.8305 241.826 96.8305 241.465C96.8305 241.104 96.9662 240.756 97.2107 240.49C97.4553 240.224 97.7907 240.06 98.1506 240.03ZM117.361 240.03C117.559 240.014 117.759 240.038 117.947 240.103C118.136 240.167 118.309 240.27 118.455 240.405C118.602 240.54 118.719 240.704 118.799 240.886C118.879 241.069 118.921 241.266 118.921 241.465C118.921 241.664 118.879 241.861 118.799 242.044C118.719 242.226 118.602 242.39 118.455 242.525C118.309 242.66 118.136 242.763 117.947 242.827C117.759 242.892 117.559 242.917 117.361 242.9C117.001 242.87 116.665 242.706 116.421 242.44C116.176 242.174 116.041 241.826 116.041 241.465C116.041 241.104 116.176 240.756 116.421 240.49C116.665 240.224 117.001 240.06 117.361 240.03ZM49.3806 223.8C49.7599 223.8 50.1236 223.951 50.3918 224.219C50.66 224.487 50.8106 224.851 50.8106 225.23C50.8106 225.609 50.66 225.973 50.3918 226.241C50.1236 226.509 49.7599 226.66 49.3806 226.66C49.0207 226.63 48.6853 226.466 48.4407 226.2C48.1962 225.934 48.0605 225.586 48.0605 225.225C48.0605 224.864 48.1962 224.516 48.4407 224.25C48.6853 223.984 49.0207 223.82 49.3806 223.79V223.8ZM68.5806 223.79C68.7922 223.738 69.0127 223.735 69.2256 223.781C69.4385 223.827 69.6382 223.92 69.8097 224.055C69.9813 224.189 70.1202 224.36 70.2159 224.556C70.3117 224.751 70.3618 224.966 70.3626 225.184C70.3634 225.402 70.3148 225.617 70.2204 225.813C70.126 226.009 69.9884 226.181 69.8178 226.317C69.6472 226.452 69.4482 226.547 69.2356 226.594C69.0231 226.642 68.8025 226.64 68.5906 226.59C68.2074 226.59 67.8398 226.438 67.5689 226.167C67.2979 225.896 67.1456 225.528 67.1456 225.145C67.1456 224.762 67.2979 224.394 67.5689 224.123C67.8398 223.852 68.2074 223.7 68.5906 223.7L68.5806 223.79ZM87.8106 223.79C88.0223 223.739 88.2429 223.737 88.4556 223.783C88.6684 223.83 88.8677 223.924 89.0388 224.059C89.2099 224.194 89.3481 224.366 89.4432 224.561C89.5383 224.757 89.5877 224.972 89.5877 225.19C89.5877 225.408 89.5383 225.623 89.4432 225.819C89.3481 226.015 89.2099 226.186 89.0388 226.321C88.8677 226.456 88.6684 226.55 88.4556 226.597C88.2429 226.643 88.0223 226.641 87.8106 226.59C87.4274 226.59 87.0598 226.438 86.7889 226.167C86.5179 225.896 86.3656 225.528 86.3656 225.145C86.3656 224.762 86.5179 224.394 86.7889 224.123C87.0598 223.852 87.4274 223.7 87.8106 223.7V223.79ZM10.9506 223.79C11.1587 223.747 11.3738 223.75 11.5803 223.801C11.7867 223.851 11.9794 223.947 12.1443 224.081C12.3092 224.215 12.4421 224.384 12.5333 224.576C12.6246 224.768 12.672 224.978 12.672 225.19C12.672 225.403 12.6246 225.612 12.5333 225.804C12.4421 225.996 12.3092 226.165 12.1443 226.3C11.9794 226.434 11.7867 226.529 11.5803 226.58C11.3738 226.63 11.1587 226.633 10.9506 226.59C10.5674 226.59 10.1998 226.438 9.92885 226.167C9.65786 225.896 9.50562 225.528 9.50562 225.145C9.50562 224.762 9.65786 224.394 9.92885 224.123C10.1998 223.852 10.5674 223.7 10.9506 223.7V223.79ZM30.1606 223.79C30.3687 223.747 30.5838 223.75 30.7903 223.801C30.9967 223.851 31.1894 223.947 31.3543 224.081C31.5192 224.215 31.6521 224.384 31.7434 224.576C31.8346 224.768 31.882 224.978 31.882 225.19C31.882 225.403 31.8346 225.612 31.7434 225.804C31.6521 225.996 31.5192 226.165 31.3543 226.3C31.1894 226.434 30.9967 226.529 30.7903 226.58C30.5838 226.63 30.3687 226.633 30.1606 226.59C29.7774 226.59 29.4098 226.438 29.1389 226.167C28.8679 225.896 28.7156 225.528 28.7156 225.145C28.7156 224.762 28.8679 224.394 29.1389 224.123C29.4098 223.852 29.7774 223.7 30.1606 223.7V223.79ZM107.021 223.79C107.232 223.739 107.453 223.737 107.666 223.783C107.878 223.83 108.078 223.924 108.249 224.059C108.42 224.194 108.558 224.366 108.653 224.561C108.748 224.757 108.798 224.972 108.798 225.19C108.798 225.408 108.748 225.623 108.653 225.819C108.558 226.015 108.42 226.186 108.249 226.321C108.078 226.456 107.878 226.55 107.666 226.597C107.453 226.643 107.232 226.641 107.021 226.59C106.637 226.59 106.27 226.438 105.999 226.167C105.728 225.896 105.576 225.528 105.576 225.145C105.576 224.762 105.728 224.394 105.999 224.123C106.27 223.852 106.637 223.7 107.021 223.7V223.79ZM126.231 223.79C126.442 223.739 126.663 223.737 126.876 223.783C127.088 223.83 127.288 223.924 127.459 224.059C127.63 224.194 127.768 224.366 127.863 224.561C127.958 224.757 128.008 224.972 128.008 225.19C128.008 225.408 127.958 225.623 127.863 225.819C127.768 226.015 127.63 226.186 127.459 226.321C127.288 226.456 127.088 226.55 126.876 226.597C126.663 226.643 126.442 226.641 126.231 226.59C125.847 226.59 125.48 226.438 125.209 226.167C124.938 225.896 124.786 225.528 124.786 225.145C124.786 224.762 124.938 224.394 125.209 224.123C125.48 223.852 125.847 223.7 126.231 223.7V223.79ZM117.361 208.99C117.571 208.943 117.79 208.943 118 208.992C118.211 209.041 118.407 209.136 118.576 209.271C118.745 209.406 118.881 209.577 118.974 209.771C119.068 209.966 119.116 210.179 119.116 210.395C119.116 210.611 119.068 210.824 118.974 211.019C118.881 211.213 118.745 211.384 118.576 211.519C118.407 211.654 118.211 211.75 118 211.798C117.79 211.847 117.571 211.847 117.361 211.8C116.979 211.8 116.612 211.648 116.342 211.378C116.072 211.108 115.921 210.742 115.921 210.36C115.921 209.978 116.072 209.612 116.342 209.342C116.612 209.072 116.979 208.92 117.361 208.92V208.99ZM2.08062 208.99C2.29008 208.947 2.50658 208.95 2.7144 209.001C2.92221 209.052 3.11612 209.148 3.28202 209.283C3.44793 209.418 3.58167 209.589 3.67352 209.782C3.76537 209.975 3.81303 210.186 3.81303 210.4C3.81303 210.614 3.76537 210.825 3.67352 211.018C3.58167 211.212 3.44793 211.382 3.28202 211.517C3.11612 211.652 2.92221 211.748 2.7144 211.799C2.50658 211.85 2.29008 211.854 2.08062 211.81C1.69871 211.81 1.33244 211.658 1.06239 211.388C0.792339 211.118 0.640625 210.752 0.640625 210.37C0.640625 209.988 0.792339 209.622 1.06239 209.352C1.33244 209.082 1.69871 208.93 2.08062 208.93V208.99ZM40.5106 208.99C40.7173 208.951 40.9301 208.958 41.1338 209.01C41.3374 209.063 41.5271 209.16 41.689 209.294C41.851 209.428 41.9814 209.596 42.0709 209.787C42.1604 209.977 42.2068 210.185 42.2068 210.395C42.2068 210.605 42.1604 210.813 42.0709 211.004C41.9814 211.194 41.851 211.362 41.689 211.496C41.5271 211.631 41.3374 211.727 41.1338 211.78C40.9301 211.832 40.7173 211.839 40.5106 211.8C40.1314 211.8 39.7676 211.649 39.4995 211.381C39.2313 211.113 39.0806 210.749 39.0806 210.37C39.0806 209.991 39.2313 209.627 39.4995 209.359C39.7676 209.091 40.1314 208.94 40.5106 208.94V208.99ZM78.9406 208.99C79.1473 208.951 79.3601 208.958 79.5638 209.01C79.7674 209.063 79.957 209.16 80.119 209.294C80.281 209.428 80.4114 209.596 80.5009 209.787C80.5904 209.977 80.6368 210.185 80.6368 210.395C80.6368 210.605 80.5904 210.813 80.5009 211.004C80.4114 211.194 80.281 211.362 80.119 211.496C79.957 211.631 79.7674 211.727 79.5638 211.78C79.3601 211.832 79.1473 211.839 78.9406 211.8C78.5614 211.8 78.1976 211.649 77.9295 211.381C77.6613 211.113 77.5106 210.749 77.5106 210.37C77.5106 209.991 77.6613 209.627 77.9295 209.359C78.1976 209.091 78.5614 208.94 78.9406 208.94V208.99ZM21.3006 208.99C21.5101 208.947 21.7266 208.95 21.9344 209.001C22.1422 209.052 22.3361 209.148 22.502 209.283C22.6679 209.418 22.8017 209.589 22.8935 209.782C22.9854 209.975 23.033 210.186 23.033 210.4C23.033 210.614 22.9854 210.825 22.8935 211.018C22.8017 211.212 22.6679 211.382 22.502 211.517C22.3361 211.652 22.1422 211.748 21.9344 211.799C21.7266 211.85 21.5101 211.854 21.3006 211.81C20.9187 211.81 20.5524 211.658 20.2824 211.388C20.0123 211.118 19.8606 210.752 19.8606 210.37C19.8606 209.988 20.0123 209.622 20.2824 209.352C20.5524 209.082 20.9187 208.93 21.3006 208.93V208.99ZM98.1506 208.99C98.3601 208.947 98.5766 208.95 98.7844 209.001C98.9922 209.052 99.1861 209.148 99.352 209.283C99.5179 209.418 99.6517 209.589 99.7435 209.782C99.8354 209.975 99.883 210.186 99.883 210.4C99.883 210.614 99.8354 210.825 99.7435 211.018C99.6517 211.212 99.5179 211.382 99.352 211.517C99.1861 211.652 98.9922 211.748 98.7844 211.799C98.5766 211.85 98.3601 211.854 98.1506 211.81C97.7687 211.81 97.4024 211.658 97.1324 211.388C96.8623 211.118 96.7106 210.752 96.7106 210.37C96.7106 209.988 96.8623 209.622 97.1324 209.352C97.4024 209.082 97.7687 208.93 98.1506 208.93V208.99ZM59.7206 208.99C59.9273 208.951 60.1401 208.958 60.3438 209.01C60.5475 209.063 60.737 209.16 60.899 209.294C61.061 209.428 61.1914 209.596 61.2809 209.787C61.3704 209.977 61.4169 210.185 61.4169 210.395C61.4169 210.605 61.3704 210.813 61.2809 211.004C61.1914 211.194 61.061 211.362 60.899 211.496C60.737 211.631 60.5475 211.727 60.3438 211.78C60.1401 211.832 59.9273 211.839 59.7206 211.8C59.3414 211.8 58.9776 211.649 58.7095 211.381C58.4413 211.113 58.2906 210.749 58.2906 210.37C58.2906 209.991 58.4413 209.627 58.7095 209.359C58.9776 209.091 59.3414 208.94 59.7206 208.94V208.99ZM10.9506 192.69C11.1491 192.674 11.3489 192.698 11.5374 192.763C11.7258 192.827 11.8988 192.93 12.0454 193.065C12.1921 193.2 12.3091 193.364 12.3891 193.546C12.4692 193.729 12.5105 193.926 12.5105 194.125C12.5105 194.324 12.4692 194.521 12.3891 194.704C12.3091 194.886 12.1921 195.05 12.0454 195.185C11.8988 195.32 11.7258 195.423 11.5374 195.487C11.3489 195.552 11.1491 195.577 10.9506 195.56C10.5907 195.53 10.2553 195.366 10.0107 195.1C9.76623 194.834 9.63052 194.486 9.63052 194.125C9.63052 193.764 9.76623 193.416 10.0107 193.15C10.2553 192.884 10.5907 192.72 10.9506 192.69ZM30.1506 192.69C30.3491 192.674 30.5489 192.698 30.7374 192.763C30.9258 192.827 31.0988 192.93 31.2454 193.065C31.3921 193.2 31.5091 193.364 31.5891 193.546C31.6692 193.729 31.7105 193.926 31.7105 194.125C31.7105 194.324 31.6692 194.521 31.5891 194.704C31.5091 194.886 31.3921 195.05 31.2454 195.185C31.0988 195.32 30.9258 195.423 30.7374 195.487C30.5489 195.552 30.3491 195.577 30.1506 195.56C29.7907 195.53 29.4553 195.366 29.2107 195.1C28.9662 194.834 28.8305 194.486 28.8305 194.125C28.8305 193.764 28.9662 193.416 29.2107 193.15C29.4553 192.884 29.7907 192.72 30.1506 192.69ZM49.3806 192.69C49.5791 192.674 49.7789 192.698 49.9674 192.763C50.1558 192.827 50.3288 192.93 50.4754 193.065C50.6221 193.2 50.7391 193.364 50.8191 193.546C50.8992 193.729 50.9405 193.926 50.9405 194.125C50.9405 194.324 50.8992 194.521 50.8191 194.704C50.7391 194.886 50.6221 195.05 50.4754 195.185C50.3288 195.32 50.1558 195.423 49.9674 195.487C49.7789 195.552 49.5791 195.577 49.3806 195.56C49.0207 195.53 48.6853 195.366 48.4407 195.1C48.1962 194.834 48.0605 194.486 48.0605 194.125C48.0605 193.764 48.1962 193.416 48.4407 193.15C48.6853 192.884 49.0207 192.72 49.3806 192.69ZM68.5806 192.69C68.7791 192.674 68.9789 192.698 69.1674 192.763C69.3558 192.827 69.5288 192.93 69.6754 193.065C69.8221 193.2 69.9391 193.364 70.0191 193.546C70.0992 193.729 70.1405 193.926 70.1405 194.125C70.1405 194.324 70.0992 194.521 70.0191 194.704C69.9391 194.886 69.8221 195.05 69.6754 195.185C69.5288 195.32 69.3558 195.423 69.1674 195.487C68.9789 195.552 68.7791 195.577 68.5806 195.56C68.2207 195.53 67.8853 195.366 67.6407 195.1C67.3962 194.834 67.2605 194.486 67.2605 194.125C67.2605 193.764 67.3962 193.416 67.6407 193.15C67.8853 192.884 68.2207 192.72 68.5806 192.69ZM87.8106 192.69C88.0091 192.674 88.2089 192.698 88.3974 192.763C88.5858 192.827 88.7588 192.93 88.9054 193.065C89.052 193.2 89.1691 193.364 89.2491 193.546C89.3292 193.729 89.3705 193.926 89.3705 194.125C89.3705 194.324 89.3292 194.521 89.2491 194.704C89.1691 194.886 89.052 195.05 88.9054 195.185C88.7588 195.32 88.5858 195.423 88.3974 195.487C88.2089 195.552 88.0091 195.577 87.8106 195.56C87.4507 195.53 87.1153 195.366 86.8707 195.1C86.6262 194.834 86.4905 194.486 86.4905 194.125C86.4905 193.764 86.6262 193.416 86.8707 193.15C87.1153 192.884 87.4507 192.72 87.8106 192.69ZM107.011 192.69C107.209 192.674 107.409 192.698 107.597 192.763C107.786 192.827 107.959 192.93 108.105 193.065C108.252 193.2 108.369 193.364 108.449 193.546C108.529 193.729 108.571 193.926 108.571 194.125C108.571 194.324 108.529 194.521 108.449 194.704C108.369 194.886 108.252 195.05 108.105 195.185C107.959 195.32 107.786 195.423 107.597 195.487C107.409 195.552 107.209 195.577 107.011 195.56C106.651 195.53 106.315 195.366 106.071 195.1C105.826 194.834 105.691 194.486 105.691 194.125C105.691 193.764 105.826 193.416 106.071 193.15C106.315 192.884 106.651 192.72 107.011 192.69ZM126.231 192.69C126.429 192.674 126.629 192.698 126.817 192.763C127.006 192.827 127.179 192.93 127.325 193.065C127.472 193.2 127.589 193.364 127.669 193.546C127.749 193.729 127.791 193.926 127.791 194.125C127.791 194.324 127.749 194.521 127.669 194.704C127.589 194.886 127.472 195.05 127.325 195.185C127.179 195.32 127.006 195.423 126.817 195.487C126.629 195.552 126.429 195.577 126.231 195.56C125.871 195.53 125.535 195.366 125.291 195.1C125.046 194.834 124.911 194.486 124.911 194.125C124.911 193.764 125.046 193.416 125.291 193.15C125.535 192.884 125.871 192.72 126.231 192.69ZM2.08062 178C2.27914 177.984 2.47894 178.008 2.66739 178.073C2.85584 178.137 3.02884 178.24 3.17544 178.375C3.32205 178.51 3.43908 178.674 3.51914 178.856C3.59919 179.039 3.64052 179.236 3.64052 179.435C3.64052 179.634 3.59919 179.831 3.51914 180.014C3.43908 180.196 3.32205 180.36 3.17544 180.495C3.02884 180.63 2.85584 180.733 2.66739 180.797C2.47894 180.862 2.27914 180.887 2.08062 180.87C1.72072 180.84 1.38526 180.676 1.14074 180.41C0.896231 180.144 0.760521 179.796 0.760521 179.435C0.760521 179.074 0.896231 178.726 1.14074 178.46C1.38526 178.194 1.72072 178.03 2.08062 178ZM21.3006 178C21.4991 177.984 21.6989 178.008 21.8874 178.073C22.0758 178.137 22.2488 178.24 22.3954 178.375C22.5421 178.51 22.6591 178.674 22.7391 178.856C22.8192 179.039 22.8605 179.236 22.8605 179.435C22.8605 179.634 22.8192 179.831 22.7391 180.014C22.6591 180.196 22.5421 180.36 22.3954 180.495C22.2488 180.63 22.0758 180.733 21.8874 180.797C21.6989 180.862 21.4991 180.887 21.3006 180.87C20.9407 180.84 20.6053 180.676 20.3607 180.41C20.1162 180.144 19.9805 179.796 19.9805 179.435C19.9805 179.074 20.1162 178.726 20.3607 178.46C20.6053 178.194 20.9407 178.03 21.3006 178ZM40.5006 178C40.6991 177.984 40.8989 178.008 41.0874 178.073C41.2758 178.137 41.4488 178.24 41.5954 178.375C41.7421 178.51 41.8591 178.674 41.9391 178.856C42.0192 179.039 42.0605 179.236 42.0605 179.435C42.0605 179.634 42.0192 179.831 41.9391 180.014C41.8591 180.196 41.7421 180.36 41.5954 180.495C41.4488 180.63 41.2758 180.733 41.0874 180.797C40.8989 180.862 40.6991 180.887 40.5006 180.87C40.1407 180.84 39.8053 180.676 39.5607 180.41C39.3162 180.144 39.1805 179.796 39.1805 179.435C39.1805 179.074 39.3162 178.726 39.5607 178.46C39.8053 178.194 40.1407 178.03 40.5006 178ZM59.7206 178C59.9191 177.984 60.1189 178.008 60.3074 178.073C60.4958 178.137 60.6688 178.24 60.8154 178.375C60.9621 178.51 61.0791 178.674 61.1591 178.856C61.2392 179.039 61.2805 179.236 61.2805 179.435C61.2805 179.634 61.2392 179.831 61.1591 180.014C61.0791 180.196 60.9621 180.36 60.8154 180.495C60.6688 180.63 60.4958 180.733 60.3074 180.797C60.1189 180.862 59.9191 180.887 59.7206 180.87C59.3607 180.84 59.0253 180.676 58.7807 180.41C58.5362 180.144 58.4005 179.796 58.4005 179.435C58.4005 179.074 58.5362 178.726 58.7807 178.46C59.0253 178.194 59.3607 178.03 59.7206 178ZM78.9506 178C79.1491 177.984 79.3489 178.008 79.5374 178.073C79.7258 178.137 79.8988 178.24 80.0454 178.375C80.1921 178.51 80.3091 178.674 80.3891 178.856C80.4692 179.039 80.5105 179.236 80.5105 179.435C80.5105 179.634 80.4692 179.831 80.3891 180.014C80.3091 180.196 80.1921 180.36 80.0454 180.495C79.8988 180.63 79.7258 180.733 79.5374 180.797C79.3489 180.862 79.1491 180.887 78.9506 180.87C78.5907 180.84 78.2553 180.676 78.0107 180.41C77.7662 180.144 77.6305 179.796 77.6305 179.435C77.6305 179.074 77.7662 178.726 78.0107 178.46C78.2553 178.194 78.5907 178.03 78.9506 178ZM98.1506 178C98.3491 177.984 98.5489 178.008 98.7374 178.073C98.9258 178.137 99.0988 178.24 99.2454 178.375C99.3921 178.51 99.5091 178.674 99.5891 178.856C99.6692 179.039 99.7105 179.236 99.7105 179.435C99.7105 179.634 99.6692 179.831 99.5891 180.014C99.5091 180.196 99.3921 180.36 99.2454 180.495C99.0988 180.63 98.9258 180.733 98.7374 180.797C98.5489 180.862 98.3491 180.887 98.1506 180.87C97.7907 180.84 97.4553 180.676 97.2107 180.41C96.9662 180.144 96.8305 179.796 96.8305 179.435C96.8305 179.074 96.9662 178.726 97.2107 178.46C97.4553 178.194 97.7907 178.03 98.1506 178ZM117.361 178C117.559 177.984 117.759 178.008 117.947 178.073C118.136 178.137 118.309 178.24 118.455 178.375C118.602 178.51 118.719 178.674 118.799 178.856C118.879 179.039 118.921 179.236 118.921 179.435C118.921 179.634 118.879 179.831 118.799 180.014C118.719 180.196 118.602 180.36 118.455 180.495C118.309 180.63 118.136 180.733 117.947 180.797C117.759 180.862 117.559 180.887 117.361 180.87C117.001 180.84 116.665 180.676 116.421 180.41C116.176 180.144 116.041 179.796 116.041 179.435C116.041 179.074 116.176 178.726 116.421 178.46C116.665 178.194 117.001 178.03 117.361 178Z" fill="#FFE8E8"/>
<path fill-rule="evenodd" clip-rule="evenodd" d="M444.95 107.82C445.148 107.804 445.348 107.828 445.537 107.893C445.725 107.957 445.898 108.06 446.045 108.195C446.191 108.33 446.308 108.494 446.388 108.676C446.468 108.859 446.51 109.056 446.51 109.255C446.51 109.454 446.468 109.651 446.388 109.834C446.308 110.016 446.191 110.18 446.045 110.315C445.898 110.45 445.725 110.553 445.537 110.617C445.348 110.682 445.148 110.707 444.95 110.69C444.59 110.66 444.255 110.496 444.01 110.23C443.765 109.964 443.63 109.616 443.63 109.255C443.63 108.894 443.765 108.546 444.01 108.28C444.255 108.014 444.59 107.85 444.95 107.82ZM464.16 107.82C464.358 107.804 464.558 107.828 464.747 107.893C464.935 107.957 465.108 108.06 465.255 108.195C465.401 108.33 465.518 108.494 465.598 108.676C465.678 108.859 465.72 109.056 465.72 109.255C465.72 109.454 465.678 109.651 465.598 109.834C465.518 110.016 465.401 110.18 465.255 110.315C465.108 110.45 464.935 110.553 464.747 110.617C464.558 110.682 464.358 110.707 464.16 110.69C463.8 110.66 463.465 110.496 463.22 110.23C462.975 109.964 462.84 109.616 462.84 109.255C462.84 108.894 462.975 108.546 463.22 108.28C463.465 108.014 463.8 107.85 464.16 107.82ZM483.38 107.82C483.578 107.804 483.778 107.828 483.967 107.893C484.155 107.957 484.328 108.06 484.475 108.195C484.621 108.33 484.738 108.494 484.818 108.676C484.898 108.859 484.94 109.056 484.94 109.255C484.94 109.454 484.898 109.651 484.818 109.834C484.738 110.016 484.621 110.18 484.475 110.315C484.328 110.45 484.155 110.553 483.967 110.617C483.778 110.682 483.578 110.707 483.38 110.69C483.02 110.66 482.685 110.496 482.44 110.23C482.195 109.964 482.06 109.616 482.06 109.255C482.06 108.894 482.195 108.546 482.44 108.28C482.685 108.014 483.02 107.85 483.38 107.82ZM502.59 107.82C502.788 107.804 502.988 107.828 503.177 107.893C503.365 107.957 503.538 108.06 503.685 108.195C503.831 108.33 503.948 108.494 504.028 108.676C504.108 108.859 504.15 109.056 504.15 109.255C504.15 109.454 504.108 109.651 504.028 109.834C503.948 110.016 503.831 110.18 503.685 110.315C503.538 110.45 503.365 110.553 503.177 110.617C502.988 110.682 502.788 110.707 502.59 110.69C502.23 110.66 501.895 110.496 501.65 110.23C501.405 109.964 501.27 109.616 501.27 109.255C501.27 108.894 501.405 108.546 501.65 108.28C501.895 108.014 502.23 107.85 502.59 107.82ZM521.81 107.82C522.008 107.804 522.208 107.828 522.397 107.893C522.585 107.957 522.758 108.06 522.905 108.195C523.051 108.33 523.168 108.494 523.248 108.676C523.328 108.859 523.37 109.056 523.37 109.255C523.37 109.454 523.328 109.651 523.248 109.834C523.168 110.016 523.051 110.18 522.905 110.315C522.758 110.45 522.585 110.553 522.397 110.617C522.208 110.682 522.008 110.707 521.81 110.69C521.45 110.66 521.115 110.496 520.87 110.23C520.625 109.964 520.49 109.616 520.49 109.255C520.49 108.894 520.625 108.546 520.87 108.28C521.115 108.014 521.45 107.85 521.81 107.82ZM541.01 107.82C541.208 107.804 541.408 107.828 541.597 107.893C541.785 107.957 541.958 108.06 542.105 108.195C542.251 108.33 542.368 108.494 542.448 108.676C542.528 108.859 542.57 109.056 542.57 109.255C542.57 109.454 542.528 109.651 542.448 109.834C542.368 110.016 542.251 110.18 542.105 110.315C541.958 110.45 541.785 110.553 541.597 110.617C541.408 110.682 541.208 110.707 541.01 110.69C540.65 110.66 540.315 110.496 540.07 110.23C539.825 109.964 539.69 109.616 539.69 109.255C539.69 108.894 539.825 108.546 540.07 108.28C540.315 108.014 540.65 107.85 541.01 107.82ZM560.23 107.82C560.428 107.804 560.628 107.828 560.817 107.893C561.005 107.957 561.178 108.06 561.325 108.195C561.471 108.33 561.588 108.494 561.668 108.676C561.748 108.859 561.79 109.056 561.79 109.255C561.79 109.454 561.748 109.651 561.668 109.834C561.588 110.016 561.471 110.18 561.325 110.315C561.178 110.45 561.005 110.553 560.817 110.617C560.628 110.682 560.428 110.707 560.23 110.69C559.87 110.66 559.534 110.496 559.29 110.23C559.045 109.964 558.91 109.616 558.91 109.255C558.91 108.894 559.045 108.546 559.29 108.28C559.534 108.014 559.87 107.85 560.23 107.82ZM436.08 93.0501C436.278 93.0335 436.478 93.0583 436.667 93.1229C436.855 93.1875 437.028 93.2905 437.175 93.4253C437.321 93.5602 437.438 93.724 437.518 93.9064C437.598 94.0889 437.64 94.2859 437.64 94.4851C437.64 94.6843 437.598 94.8814 437.518 95.0638C437.438 95.2462 437.321 95.41 437.175 95.5449C437.028 95.6798 436.855 95.7827 436.667 95.8473C436.478 95.9119 436.278 95.9367 436.08 95.9201C435.72 95.89 435.384 95.7258 435.14 95.46C434.895 95.1942 434.76 94.8463 434.76 94.4851C434.76 94.124 434.895 93.776 435.14 93.5102C435.384 93.2444 435.72 93.0802 436.08 93.0501ZM455.3 93.0501C455.498 93.0335 455.698 93.0583 455.887 93.1229C456.075 93.1875 456.248 93.2905 456.395 93.4253C456.541 93.5602 456.658 93.724 456.738 93.9064C456.818 94.0889 456.86 94.2859 456.86 94.4851C456.86 94.6843 456.818 94.8814 456.738 95.0638C456.658 95.2462 456.541 95.41 456.395 95.5449C456.248 95.6798 456.075 95.7827 455.887 95.8473C455.698 95.9119 455.498 95.9367 455.3 95.9201C454.94 95.89 454.604 95.7258 454.36 95.46C454.115 95.1942 453.98 94.8463 453.98 94.4851C453.98 94.124 454.115 93.776 454.36 93.5102C454.604 93.2444 454.94 93.0802 455.3 93.0501ZM474.5 93.0501C474.698 93.0335 474.898 93.0583 475.087 93.1229C475.275 93.1875 475.448 93.2905 475.595 93.4253C475.741 93.5602 475.858 93.724 475.938 93.9064C476.018 94.0889 476.06 94.2859 476.06 94.4851C476.06 94.6843 476.018 94.8814 475.938 95.0638C475.858 95.2462 475.741 95.41 475.595 95.5449C475.448 95.6798 475.275 95.7827 475.087 95.8473C474.898 95.9119 474.698 95.9367 474.5 95.9201C474.14 95.89 473.805 95.7258 473.56 95.46C473.315 95.1942 473.18 94.8463 473.18 94.4851C473.18 94.124 473.315 93.776 473.56 93.5102C473.805 93.2444 474.14 93.0802 474.5 93.0501ZM493.72 93.0501C493.918 93.0335 494.118 93.0583 494.307 93.1229C494.495 93.1875 494.668 93.2905 494.815 93.4253C494.961 93.5602 495.078 93.724 495.158 93.9064C495.238 94.0889 495.28 94.2859 495.28 94.4851C495.28 94.6843 495.238 94.8814 495.158 95.0638C495.078 95.2462 494.961 95.41 494.815 95.5449C494.668 95.6798 494.495 95.7827 494.307 95.8473C494.118 95.9119 493.918 95.9367 493.72 95.9201C493.36 95.89 493.025 95.7258 492.78 95.46C492.535 95.1942 492.4 94.8463 492.4 94.4851C492.4 94.124 492.535 93.776 492.78 93.5102C493.025 93.2444 493.36 93.0802 493.72 93.0501ZM512.94 93.0501C513.138 93.0335 513.338 93.0583 513.527 93.1229C513.715 93.1875 513.888 93.2905 514.035 93.4253C514.181 93.5602 514.298 93.724 514.378 93.9064C514.458 94.0889 514.5 94.2859 514.5 94.4851C514.5 94.6843 514.458 94.8814 514.378 95.0638C514.298 95.2462 514.181 95.41 514.035 95.5449C513.888 95.6798 513.715 95.7827 513.527 95.8473C513.338 95.9119 513.138 95.9367 512.94 95.9201C512.58 95.89 512.245 95.7258 512 95.46C511.755 95.1942 511.62 94.8463 511.62 94.4851C511.62 94.124 511.755 93.776 512 93.5102C512.245 93.2444 512.58 93.0802 512.94 93.0501ZM532.14 93.0501C532.338 93.0335 532.538 93.0583 532.727 93.1229C532.915 93.1875 533.088 93.2905 533.235 93.4253C533.381 93.5602 533.498 93.724 533.578 93.9064C533.658 94.0889 533.7 94.2859 533.7 94.4851C533.7 94.6843 533.658 94.8814 533.578 95.0638C533.498 95.2462 533.381 95.41 533.235 95.5449C533.088 95.6798 532.915 95.7827 532.727 95.8473C532.538 95.9119 532.338 95.9367 532.14 95.9201C531.78 95.89 531.445 95.7258 531.2 95.46C530.955 95.1942 530.82 94.8463 530.82 94.4851C530.82 94.124 530.955 93.776 531.2 93.5102C531.445 93.2444 531.78 93.0802 532.14 93.0501ZM551.36 93.0501C551.558 93.0335 551.758 93.0583 551.947 93.1229C552.135 93.1875 552.308 93.2905 552.455 93.4253C552.601 93.5602 552.718 93.724 552.798 93.9064C552.878 94.0889 552.92 94.2859 552.92 94.4851C552.92 94.6843 552.878 94.8814 552.798 95.0638C552.718 95.2462 552.601 95.41 552.455 95.5449C552.308 95.6798 552.135 95.7827 551.947 95.8473C551.758 95.9119 551.558 95.9367 551.36 95.9201C551 95.89 550.664 95.7258 550.42 95.46C550.175 95.1942 550.04 94.8463 550.04 94.4851C550.04 94.124 550.175 93.776 550.42 93.5102C550.664 93.2444 551 93.0802 551.36 93.0501ZM444.96 76.8001C445.158 76.7835 445.358 76.8083 445.547 76.8729C445.735 76.9375 445.908 77.0405 446.055 77.1753C446.201 77.3102 446.318 77.474 446.398 77.6564C446.478 77.8389 446.52 78.0359 446.52 78.2351C446.52 78.4343 446.478 78.6314 446.398 78.8138C446.318 78.9962 446.201 79.16 446.055 79.2949C445.908 79.4298 445.735 79.5327 445.547 79.5973C445.358 79.6619 445.158 79.6867 444.96 79.6701C444.6 79.64 444.265 79.4758 444.02 79.21C443.775 78.9442 443.64 78.5963 443.64 78.2351C443.64 77.874 443.775 77.526 444.02 77.2602C444.265 76.9944 444.6 76.8302 444.96 76.8001ZM464.17 76.8001C464.368 76.7835 464.568 76.8083 464.757 76.8729C464.945 76.9375 465.118 77.0405 465.265 77.1753C465.411 77.3102 465.528 77.474 465.608 77.6564C465.688 77.8389 465.73 78.0359 465.73 78.2351C465.73 78.4343 465.688 78.6314 465.608 78.8138C465.528 78.9962 465.411 79.16 465.265 79.2949C465.118 79.4298 464.945 79.5327 464.757 79.5973C464.568 79.6619 464.368 79.6867 464.17 79.6701C463.81 79.64 463.475 79.4758 463.23 79.21C462.985 78.9442 462.85 78.5963 462.85 78.2351C462.85 77.874 462.985 77.526 463.23 77.2602C463.475 76.9944 463.81 76.8302 464.17 76.8001ZM483.39 76.8001C483.588 76.7835 483.788 76.8083 483.977 76.8729C484.165 76.9375 484.338 77.0405 484.485 77.1753C484.631 77.3102 484.748 77.474 484.828 77.6564C484.908 77.8389 484.95 78.0359 484.95 78.2351C484.95 78.4343 484.908 78.6314 484.828 78.8138C484.748 78.9962 484.631 79.16 484.485 79.2949C484.338 79.4298 484.165 79.5327 483.977 79.5973C483.788 79.6619 483.588 79.6867 483.39 79.6701C483.03 79.64 482.695 79.4758 482.45 79.21C482.205 78.9442 482.07 78.5963 482.07 78.2351C482.07 77.874 482.205 77.526 482.45 77.2602C482.695 76.9944 483.03 76.8302 483.39 76.8001ZM502.6 76.8001C502.798 76.7835 502.998 76.8083 503.187 76.8729C503.375 76.9375 503.548 77.0405 503.695 77.1753C503.841 77.3102 503.958 77.474 504.038 77.6564C504.118 77.8389 504.16 78.0359 504.16 78.2351C504.16 78.4343 504.118 78.6314 504.038 78.8138C503.958 78.9962 503.841 79.16 503.695 79.2949C503.548 79.4298 503.375 79.5327 503.187 79.5973C502.998 79.6619 502.798 79.6867 502.6 79.6701C502.24 79.64 501.905 79.4758 501.66 79.21C501.415 78.9442 501.28 78.5963 501.28 78.2351C501.28 77.874 501.415 77.526 501.66 77.2602C501.905 76.9944 502.24 76.8302 502.6 76.8001ZM521.82 76.8001C522.018 76.7835 522.218 76.8083 522.407 76.8729C522.595 76.9375 522.768 77.0405 522.915 77.1753C523.061 77.3102 523.178 77.474 523.258 77.6564C523.338 77.8389 523.38 78.0359 523.38 78.2351C523.38 78.4343 523.338 78.6314 523.258 78.8138C523.178 78.9962 523.061 79.16 522.915 79.2949C522.768 79.4298 522.595 79.5327 522.407 79.5973C522.218 79.6619 522.018 79.6867 521.82 79.6701C521.46 79.64 521.125 79.4758 520.88 79.21C520.635 78.9442 520.5 78.5963 520.5 78.2351C520.5 77.874 520.635 77.526 520.88 77.2602C521.125 76.9944 521.46 76.8302 521.82 76.8001ZM541.02 76.8001C541.218 76.7835 541.418 76.8083 541.607 76.8729C541.795 76.9375 541.968 77.0405 542.115 77.1753C542.261 77.3102 542.378 77.474 542.458 77.6564C542.538 77.8389 542.58 78.0359 542.58 78.2351C542.58 78.4343 542.538 78.6314 542.458 78.8138C542.378 78.9962 542.261 79.16 542.115 79.2949C541.968 79.4298 541.795 79.5327 541.607 79.5973C541.418 79.6619 541.218 79.6867 541.02 79.6701C540.66 79.64 540.325 79.4758 540.08 79.21C539.836 78.9442 539.7 78.5963 539.7 78.2351C539.7 77.874 539.836 77.526 540.08 77.2602C540.325 76.9944 540.66 76.8302 541.02 76.8001ZM560.24 76.8001C560.438 76.7835 560.638 76.8083 560.827 76.8729C561.015 76.9375 561.188 77.0405 561.335 77.1753C561.481 77.3102 561.598 77.474 561.678 77.6564C561.758 77.8389 561.8 78.0359 561.8 78.2351C561.8 78.4343 561.758 78.6314 561.678 78.8138C561.598 78.9962 561.481 79.16 561.335 79.2949C561.188 79.4298 561.015 79.5327 560.827 79.5973C560.638 79.6619 560.438 79.6867 560.24 79.6701C559.88 79.64 559.545 79.4758 559.3 79.21C559.055 78.9442 558.92 78.5963 558.92 78.2351C558.92 77.874 559.055 77.526 559.3 77.2602C559.545 76.9944 559.88 76.8302 560.24 76.8001ZM436.08 62.0301C436.278 62.0135 436.478 62.0383 436.667 62.1029C436.855 62.1675 437.028 62.2705 437.175 62.4053C437.321 62.5402 437.438 62.704 437.518 62.8865C437.598 63.0689 437.64 63.2659 437.64 63.4651C437.64 63.6643 437.598 63.8614 437.518 64.0438C437.438 64.2262 437.321 64.39 437.175 64.5249C437.028 64.6598 436.855 64.7627 436.667 64.8273C436.478 64.8919 436.278 64.9167 436.08 64.9001C435.72 64.87 435.384 64.7058 435.14 64.44C434.895 64.1742 434.76 63.8263 434.76 63.4651C434.76 63.104 434.895 62.756 435.14 62.4902C435.384 62.2244 435.72 62.0602 436.08 62.0301ZM455.3 62.0301C455.498 62.0135 455.698 62.0383 455.887 62.1029C456.075 62.1675 456.248 62.2705 456.395 62.4053C456.541 62.5402 456.658 62.704 456.738 62.8865C456.818 63.0689 456.86 63.2659 456.86 63.4651C456.86 63.6643 456.818 63.8614 456.738 64.0438C456.658 64.2262 456.541 64.39 456.395 64.5249C456.248 64.6598 456.075 64.7627 455.887 64.8273C455.698 64.8919 455.498 64.9167 455.3 64.9001C454.94 64.87 454.604 64.7058 454.36 64.44C454.115 64.1742 453.98 63.8263 453.98 63.4651C453.98 63.104 454.115 62.756 454.36 62.4902C454.604 62.2244 454.94 62.0602 455.3 62.0301ZM474.5 62.0301C474.698 62.0135 474.898 62.0383 475.087 62.1029C475.275 62.1675 475.448 62.2705 475.595 62.4053C475.741 62.5402 475.858 62.704 475.938 62.8865C476.018 63.0689 476.06 63.2659 476.06 63.4651C476.06 63.6643 476.018 63.8614 475.938 64.0438C475.858 64.2262 475.741 64.39 475.595 64.5249C475.448 64.6598 475.275 64.7627 475.087 64.8273C474.898 64.8919 474.698 64.9167 474.5 64.9001C474.14 64.87 473.805 64.7058 473.56 64.44C473.315 64.1742 473.18 63.8263 473.18 63.4651C473.18 63.104 473.315 62.756 473.56 62.4902C473.805 62.2244 474.14 62.0602 474.5 62.0301ZM493.72 62.0301C493.918 62.0135 494.118 62.0383 494.307 62.1029C494.495 62.1675 494.668 62.2705 494.815 62.4053C494.961 62.5402 495.078 62.704 495.158 62.8865C495.238 63.0689 495.28 63.2659 495.28 63.4651C495.28 63.6643 495.238 63.8614 495.158 64.0438C495.078 64.2262 494.961 64.39 494.815 64.5249C494.668 64.6598 494.495 64.7627 494.307 64.8273C494.118 64.8919 493.918 64.9167 493.72 64.9001C493.36 64.87 493.025 64.7058 492.78 64.44C492.535 64.1742 492.4 63.8263 492.4 63.4651C492.4 63.104 492.535 62.756 492.78 62.4902C493.025 62.2244 493.36 62.0602 493.72 62.0301ZM512.94 62.0301C513.138 62.0135 513.338 62.0383 513.527 62.1029C513.715 62.1675 513.888 62.2705 514.035 62.4053C514.181 62.5402 514.298 62.704 514.378 62.8865C514.458 63.0689 514.5 63.2659 514.5 63.4651C514.5 63.6643 514.458 63.8614 514.378 64.0438C514.298 64.2262 514.181 64.39 514.035 64.5249C513.888 64.6598 513.715 64.7627 513.527 64.8273C513.338 64.8919 513.138 64.9167 512.94 64.9001C512.58 64.87 512.245 64.7058 512 64.44C511.755 64.1742 511.62 63.8263 511.62 63.4651C511.62 63.104 511.755 62.756 512 62.4902C512.245 62.2244 512.58 62.0602 512.94 62.0301ZM532.14 62.0301C532.338 62.0135 532.538 62.0383 532.727 62.1029C532.915 62.1675 533.088 62.2705 533.235 62.4053C533.381 62.5402 533.498 62.704 533.578 62.8865C533.658 63.0689 533.7 63.2659 533.7 63.4651C533.7 63.6643 533.658 63.8614 533.578 64.0438C533.498 64.2262 533.381 64.39 533.235 64.5249C533.088 64.6598 532.915 64.7627 532.727 64.8273C532.538 64.8919 532.338 64.9167 532.14 64.9001C531.78 64.87 531.445 64.7058 531.2 64.44C530.955 64.1742 530.82 63.8263 530.82 63.4651C530.82 63.104 530.955 62.756 531.2 62.4902C531.445 62.2244 531.78 62.0602 532.14 62.0301ZM551.36 62.0301C551.558 62.0135 551.758 62.0383 551.947 62.1029C552.135 62.1675 552.308 62.2705 552.455 62.4053C552.601 62.5402 552.718 62.704 552.798 62.8865C552.878 63.0689 552.92 63.2659 552.92 63.4651C552.92 63.6643 552.878 63.8614 552.798 64.0438C552.718 64.2262 552.601 64.39 552.455 64.5249C552.308 64.6598 552.135 64.7627 551.947 64.8273C551.758 64.8919 551.558 64.9167 551.36 64.9001C551 64.87 550.664 64.7058 550.42 64.44C550.175 64.1742 550.04 63.8263 550.04 63.4651C550.04 63.104 550.175 62.756 550.42 62.4902C550.664 62.2244 551 62.0602 551.36 62.0301ZM483.38 45.8001C483.759 45.8001 484.123 45.9508 484.391 46.219C484.659 46.4871 484.81 46.8509 484.81 47.2301C484.81 47.6094 484.659 47.9731 484.391 48.2413C484.123 48.5095 483.759 48.6601 483.38 48.6601C483.02 48.63 482.685 48.4658 482.44 48.2C482.195 47.9342 482.06 47.5863 482.06 47.2251C482.06 46.864 482.195 46.516 482.44 46.2502C482.685 45.9844 483.02 45.8202 483.38 45.7901V45.8001ZM502.59 45.7901C502.788 45.7735 502.988 45.7983 503.177 45.8629C503.365 45.9275 503.538 46.0305 503.685 46.1653C503.831 46.3002 503.948 46.464 504.028 46.6465C504.108 46.8289 504.15 47.0259 504.15 47.2251C504.15 47.4243 504.108 47.6214 504.028 47.8038C503.948 47.9862 503.831 48.15 503.685 48.2849C503.538 48.4198 503.365 48.5227 503.177 48.5873C502.988 48.6519 502.788 48.6767 502.59 48.6601C502.23 48.63 501.895 48.4658 501.65 48.2C501.405 47.9342 501.27 47.5863 501.27 47.2251C501.27 46.864 501.405 46.516 501.65 46.2502C501.895 45.9844 502.23 45.8202 502.59 45.7901ZM521.81 45.7901C522.008 45.7735 522.208 45.7983 522.397 45.8629C522.585 45.9275 522.758 46.0305 522.905 46.1653C523.051 46.3002 523.168 46.464 523.248 46.6465C523.328 46.8289 523.37 47.0259 523.37 47.2251C523.37 47.4243 523.328 47.6214 523.248 47.8038C523.168 47.9862 523.051 48.15 522.905 48.2849C522.758 48.4198 522.585 48.5227 522.397 48.5873C522.208 48.6519 522.008 48.6767 521.81 48.6601C521.45 48.63 521.115 48.4658 520.87 48.2C520.625 47.9342 520.49 47.5863 520.49 47.2251C520.49 46.864 520.625 46.516 520.87 46.2502C521.115 45.9844 521.45 45.8202 521.81 45.7901ZM444.95 45.7901C445.329 45.7901 445.693 45.9408 445.961 46.209C446.229 46.4771 446.38 46.8409 446.38 47.2201C446.38 47.5994 446.229 47.9631 445.961 48.2313C445.693 48.4995 445.329 48.6501 444.95 48.6501C444.571 48.6501 444.207 48.4995 443.939 48.2313C443.671 47.9631 443.52 47.5994 443.52 47.2201C443.52 46.8409 443.671 46.4771 443.939 46.209C444.207 45.9408 444.571 45.7901 444.95 45.7901ZM464.15 45.7901C464.529 45.7901 464.893 45.9408 465.161 46.209C465.429 46.4771 465.58 46.8409 465.58 47.2201C465.58 47.5994 465.429 47.9631 465.161 48.2313C464.893 48.4995 464.529 48.6501 464.15 48.6501C463.771 48.6501 463.407 48.4995 463.139 48.2313C462.871 47.9631 462.72 47.5994 462.72 47.2201C462.72 46.8409 462.871 46.4771 463.139 46.209C463.407 45.9408 463.771 45.7901 464.15 45.7901ZM541.02 45.7901C541.218 45.7735 541.418 45.7983 541.607 45.8629C541.795 45.9275 541.968 46.0305 542.115 46.1653C542.261 46.3002 542.378 46.464 542.458 46.6465C542.538 46.8289 542.58 47.0259 542.58 47.2251C542.58 47.4243 542.538 47.6214 542.458 47.8038C542.378 47.9862 542.261 48.15 542.115 48.2849C541.968 48.4198 541.795 48.5227 541.607 48.5873C541.418 48.6519 541.218 48.6767 541.02 48.6601C540.66 48.63 540.325 48.4658 540.08 48.2C539.836 47.9342 539.7 47.5863 539.7 47.2251C539.7 46.864 539.836 46.516 540.08 46.2502C540.325 45.9844 540.66 45.8202 541.02 45.7901ZM560.22 45.7901C560.418 45.7735 560.618 45.7983 560.807 45.8629C560.995 45.9275 561.168 46.0305 561.315 46.1653C561.461 46.3002 561.578 46.464 561.658 46.6465C561.738 46.8289 561.78 47.0259 561.78 47.2251C561.78 47.4243 561.738 47.6214 561.658 47.8038C561.578 47.9862 561.461 48.15 561.315 48.2849C561.168 48.4198 560.995 48.5227 560.807 48.5873C560.618 48.6519 560.418 48.6767 560.22 48.6601C559.86 48.63 559.524 48.4658 559.28 48.2C559.035 47.9342 558.9 47.5863 558.9 47.2251C558.9 46.864 559.035 46.516 559.28 46.2502C559.524 45.9844 559.86 45.8202 560.22 45.7901ZM551.36 31.0201C551.558 31.0035 551.758 31.0283 551.947 31.0929C552.135 31.1575 552.308 31.2605 552.455 31.3953C552.601 31.5302 552.718 31.694 552.798 31.8765C552.878 32.0589 552.92 32.2559 552.92 32.4551C552.92 32.6543 552.878 32.8514 552.798 33.0338C552.718 33.2162 552.601 33.38 552.455 33.5149C552.308 33.6498 552.135 33.7527 551.947 33.8173C551.758 33.8819 551.558 33.9067 551.36 33.8901C551 33.86 550.664 33.6958 550.42 33.43C550.175 33.1642 550.04 32.8163 550.04 32.4551C550.04 32.094 550.175 31.746 550.42 31.4802C550.664 31.2144 551 31.0502 551.36 31.0201ZM436.08 31.0201C436.278 31.0035 436.478 31.0283 436.667 31.0929C436.855 31.1575 437.028 31.2605 437.175 31.3953C437.321 31.5302 437.438 31.694 437.518 31.8765C437.598 32.0589 437.64 32.2559 437.64 32.4551C437.64 32.6543 437.598 32.8514 437.518 33.0338C437.438 33.2162 437.321 33.38 437.175 33.5149C437.028 33.6498 436.855 33.7527 436.667 33.8173C436.478 33.8819 436.278 33.9067 436.08 33.8901C435.72 33.86 435.384 33.6958 435.14 33.43C434.895 33.1642 434.76 32.8163 434.76 32.4551C434.76 32.094 434.895 31.746 435.14 31.4802C435.384 31.2144 435.72 31.0502 436.08 31.0201ZM474.51 31.0201C474.889 31.0201 475.253 31.1708 475.521 31.439C475.789 31.7071 475.94 32.0709 475.94 32.4501C475.94 32.8294 475.789 33.1931 475.521 33.4613C475.253 33.7295 474.889 33.8801 474.51 33.8801C474.131 33.8801 473.767 33.7295 473.499 33.4613C473.231 33.1931 473.08 32.8294 473.08 32.4501C473.08 32.0709 473.231 31.7071 473.499 31.439C473.767 31.1708 474.131 31.0201 474.51 31.0201ZM512.94 31.0201C513.319 31.0201 513.683 31.1708 513.951 31.439C514.219 31.7071 514.37 32.0709 514.37 32.4501C514.37 32.8294 514.219 33.1931 513.951 33.4613C513.683 33.7295 513.319 33.8801 512.94 33.8801C512.561 33.8801 512.197 33.7295 511.929 33.4613C511.661 33.1931 511.51 32.8294 511.51 32.4501C511.51 32.0709 511.661 31.7071 511.929 31.439C512.197 31.1708 512.561 31.0201 512.94 31.0201ZM455.3 31.0201C455.498 31.0035 455.698 31.0283 455.887 31.0929C456.075 31.1575 456.248 31.2605 456.395 31.3953C456.541 31.5302 456.658 31.694 456.738 31.8765C456.818 32.0589 456.86 32.2559 456.86 32.4551C456.86 32.6543 456.818 32.8514 456.738 33.0338C456.658 33.2162 456.541 33.38 456.395 33.5149C456.248 33.6498 456.075 33.7527 455.887 33.8173C455.698 33.8819 455.498 33.9067 455.3 33.8901C454.94 33.86 454.604 33.6958 454.36 33.43C454.115 33.1642 453.98 32.8163 453.98 32.4551C453.98 32.094 454.115 31.746 454.36 31.4802C454.604 31.2144 454.94 31.0502 455.3 31.0201ZM532.15 31.0201C532.348 31.0035 532.548 31.0283 532.737 31.0929C532.925 31.1575 533.098 31.2605 533.245 31.3953C533.391 31.5302 533.508 31.694 533.588 31.8765C533.668 32.0589 533.71 32.2559 533.71 32.4551C533.71 32.6543 533.668 32.8514 533.588 33.0338C533.508 33.2162 533.391 33.38 533.245 33.5149C533.098 33.6498 532.925 33.7527 532.737 33.8173C532.548 33.8819 532.348 33.9067 532.15 33.8901C531.79 33.86 531.455 33.6958 531.21 33.43C530.966 33.1642 530.83 32.8163 530.83 32.4551C530.83 32.094 530.966 31.746 531.21 31.4802C531.455 31.2144 531.79 31.0502 532.15 31.0201ZM493.72 31.0201C494.099 31.0201 494.463 31.1708 494.731 31.439C494.999 31.7071 495.15 32.0709 495.15 32.4501C495.15 32.8294 494.999 33.1931 494.731 33.4613C494.463 33.7295 494.099 33.8801 493.72 33.8801C493.341 33.8801 492.977 33.7295 492.709 33.4613C492.441 33.1931 492.29 32.8294 492.29 32.4501C492.29 32.0709 492.441 31.7071 492.709 31.439C492.977 31.1708 493.341 31.0201 493.72 31.0201ZM444.95 14.7701C445.148 14.7535 445.348 14.7783 445.537 14.8429C445.725 14.9075 445.898 15.0105 446.045 15.1453C446.191 15.2802 446.308 15.444 446.388 15.6265C446.468 15.8089 446.51 16.0059 446.51 16.2051C446.51 16.4043 446.468 16.6014 446.388 16.7838C446.308 16.9662 446.191 17.13 446.045 17.2649C445.898 17.3998 445.725 17.5027 445.537 17.5673C445.348 17.6319 445.148 17.6567 444.95 17.6401C444.59 17.61 444.255 17.4458 444.01 17.18C443.765 16.9142 443.63 16.5663 443.63 16.2051C443.63 15.844 443.765 15.496 444.01 15.2302C444.255 14.9644 444.59 14.8002 444.95 14.7701ZM464.16 14.7701C464.358 14.7535 464.558 14.7783 464.747 14.8429C464.935 14.9075 465.108 15.0105 465.255 15.1453C465.401 15.2802 465.518 15.444 465.598 15.6265C465.678 15.8089 465.72 16.0059 465.72 16.2051C465.72 16.4043 465.678 16.6014 465.598 16.7838C465.518 16.9662 465.401 17.13 465.255 17.2649C465.108 17.3998 464.935 17.5027 464.747 17.5673C464.558 17.6319 464.358 17.6567 464.16 17.6401C463.8 17.61 463.465 17.4458 463.22 17.18C462.975 16.9142 462.84 16.5663 462.84 16.2051C462.84 15.844 462.975 15.496 463.22 15.2302C463.465 14.9644 463.8 14.8002 464.16 14.7701ZM483.38 14.7701C483.578 14.7535 483.778 14.7783 483.967 14.8429C484.155 14.9075 484.328 15.0105 484.475 15.1453C484.621 15.2802 484.738 15.444 484.818 15.6265C484.898 15.8089 484.94 16.0059 484.94 16.2051C484.94 16.4043 484.898 16.6014 484.818 16.7838C484.738 16.9662 484.621 17.13 484.475 17.2649C484.328 17.3998 484.155 17.5027 483.967 17.5673C483.778 17.6319 483.578 17.6567 483.38 17.6401C483.02 17.61 482.685 17.4458 482.44 17.18C482.195 16.9142 482.06 16.5663 482.06 16.2051C482.06 15.844 482.195 15.496 482.44 15.2302C482.685 14.9644 483.02 14.8002 483.38 14.7701ZM502.59 14.7701C502.788 14.7535 502.988 14.7783 503.177 14.8429C503.365 14.9075 503.538 15.0105 503.685 15.1453C503.831 15.2802 503.948 15.444 504.028 15.6265C504.108 15.8089 504.15 16.0059 504.15 16.2051C504.15 16.4043 504.108 16.6014 504.028 16.7838C503.948 16.9662 503.831 17.13 503.685 17.2649C503.538 17.3998 503.365 17.5027 503.177 17.5673C502.988 17.6319 502.788 17.6567 502.59 17.6401C502.23 17.61 501.895 17.4458 501.65 17.18C501.405 16.9142 501.27 16.5663 501.27 16.2051C501.27 15.844 501.405 15.496 501.65 15.2302C501.895 14.9644 502.23 14.8002 502.59 14.7701ZM521.81 14.7701C522.008 14.7535 522.208 14.7783 522.397 14.8429C522.585 14.9075 522.758 15.0105 522.905 15.1453C523.051 15.2802 523.168 15.444 523.248 15.6265C523.328 15.8089 523.37 16.0059 523.37 16.2051C523.37 16.4043 523.328 16.6014 523.248 16.7838C523.168 16.9662 523.051 17.13 522.905 17.2649C522.758 17.3998 522.585 17.5027 522.397 17.5673C522.208 17.6319 522.008 17.6567 521.81 17.6401C521.45 17.61 521.115 17.4458 520.87 17.18C520.625 16.9142 520.49 16.5663 520.49 16.2051C520.49 15.844 520.625 15.496 520.87 15.2302C521.115 14.9644 521.45 14.8002 521.81 14.7701ZM541.01 14.7701C541.208 14.7535 541.408 14.7783 541.597 14.8429C541.785 14.9075 541.958 15.0105 542.105 15.1453C542.251 15.2802 542.368 15.444 542.448 15.6265C542.528 15.8089 542.57 16.0059 542.57 16.2051C542.57 16.4043 542.528 16.6014 542.448 16.7838C542.368 16.9662 542.251 17.13 542.105 17.2649C541.958 17.3998 541.785 17.5027 541.597 17.5673C541.408 17.6319 541.208 17.6567 541.01 17.6401C540.65 17.61 540.315 17.4458 540.07 17.18C539.825 16.9142 539.69 16.5663 539.69 16.2051C539.69 15.844 539.825 15.496 540.07 15.2302C540.315 14.9644 540.65 14.8002 541.01 14.7701ZM560.23 14.7701C560.428 14.7535 560.628 14.7783 560.817 14.8429C561.005 14.9075 561.178 15.0105 561.325 15.1453C561.471 15.2802 561.588 15.444 561.668 15.6265C561.748 15.8089 561.79 16.0059 561.79 16.2051C561.79 16.4043 561.748 16.6014 561.668 16.7838C561.588 16.9662 561.471 17.13 561.325 17.2649C561.178 17.3998 561.005 17.5027 560.817 17.5673C560.628 17.6319 560.428 17.6567 560.23 17.6401C559.87 17.61 559.534 17.4458 559.29 17.18C559.045 16.9142 558.91 16.5663 558.91 16.2051C558.91 15.844 559.045 15.496 559.29 15.2302C559.534 14.9644 559.87 14.8002 560.23 14.7701ZM436.08 0.000117317C436.278 -0.016469 436.478 0.00831452 436.667 0.0729008C436.855 0.137487 437.028 0.240471 437.175 0.375341C437.321 0.510212 437.438 0.674034 437.518 0.85645C437.598 1.03887 437.64 1.23591 437.64 1.43512C437.64 1.63433 437.598 1.83137 437.518 2.01378C437.438 2.1962 437.321 2.36002 437.175 2.49489C437.028 2.62976 436.855 2.73275 436.667 2.79733C436.478 2.86192 436.278 2.8867 436.08 2.87012C435.72 2.84005 435.384 2.67584 435.14 2.41004C434.895 2.14425 434.76 1.79627 434.76 1.43512C434.76 1.07396 434.895 0.725989 435.14 0.460194C435.384 0.194399 435.72 0.0301876 436.08 0.000117317ZM455.3 0.000117317C455.498 -0.016469 455.698 0.00831452 455.887 0.0729008C456.075 0.137487 456.248 0.240471 456.395 0.375341C456.541 0.510212 456.658 0.674034 456.738 0.85645C456.818 1.03887 456.86 1.23591 456.86 1.43512C456.86 1.63433 456.818 1.83137 456.738 2.01378C456.658 2.1962 456.541 2.36002 456.395 2.49489C456.248 2.62976 456.075 2.73275 455.887 2.79733C455.698 2.86192 455.498 2.8867 455.3 2.87012C454.94 2.84005 454.604 2.67584 454.36 2.41004C454.115 2.14425 453.98 1.79627 453.98 1.43512C453.98 1.07396 454.115 0.725989 454.36 0.460194C454.604 0.194399 454.94 0.0301876 455.3 0.000117317ZM474.5 0.000117317C474.698 -0.016469 474.898 0.00831452 475.087 0.0729008C475.275 0.137487 475.448 0.240471 475.595 0.375341C475.741 0.510212 475.858 0.674034 475.938 0.85645C476.018 1.03887 476.06 1.23591 476.06 1.43512C476.06 1.63433 476.018 1.83137 475.938 2.01378C475.858 2.1962 475.741 2.36002 475.595 2.49489C475.448 2.62976 475.275 2.73275 475.087 2.79733C474.898 2.86192 474.698 2.8867 474.5 2.87012C474.14 2.84005 473.805 2.67584 473.56 2.41004C473.315 2.14425 473.18 1.79627 473.18 1.43512C473.18 1.07396 473.315 0.725989 473.56 0.460194C473.805 0.194399 474.14 0.0301876 474.5 0.000117317ZM493.72 0.000117317C493.918 -0.016469 494.118 0.00831452 494.307 0.0729008C494.495 0.137487 494.668 0.240471 494.815 0.375341C494.961 0.510212 495.078 0.674034 495.158 0.85645C495.238 1.03887 495.28 1.23591 495.28 1.43512C495.28 1.63433 495.238 1.83137 495.158 2.01378C495.078 2.1962 494.961 2.36002 494.815 2.49489C494.668 2.62976 494.495 2.73275 494.307 2.79733C494.118 2.86192 493.918 2.8867 493.72 2.87012C493.36 2.84005 493.025 2.67584 492.78 2.41004C492.535 2.14425 492.4 1.79627 492.4 1.43512C492.4 1.07396 492.535 0.725989 492.78 0.460194C493.025 0.194399 493.36 0.0301876 493.72 0.000117317ZM512.95 0.000117317C513.148 -0.016469 513.348 0.00831452 513.537 0.0729008C513.725 0.137487 513.898 0.240471 514.045 0.375341C514.191 0.510212 514.308 0.674034 514.388 0.85645C514.468 1.03887 514.51 1.23591 514.51 1.43512C514.51 1.63433 514.468 1.83137 514.388 2.01378C514.308 2.1962 514.191 2.36002 514.045 2.49489C513.898 2.62976 513.725 2.73275 513.537 2.79733C513.348 2.86192 513.148 2.8867 512.95 2.87012C512.59 2.84005 512.255 2.67584 512.01 2.41004C511.765 2.14425 511.63 1.79627 511.63 1.43512C511.63 1.07396 511.765 0.725989 512.01 0.460194C512.255 0.194399 512.59 0.0301876 512.95 0.000117317ZM532.15 0.000117317C532.348 -0.016469 532.548 0.00831452 532.737 0.0729008C532.925 0.137487 533.098 0.240471 533.245 0.375341C533.391 0.510212 533.508 0.674034 533.588 0.85645C533.668 1.03887 533.71 1.23591 533.71 1.43512C533.71 1.63433 533.668 1.83137 533.588 2.01378C533.508 2.1962 533.391 2.36002 533.245 2.49489C533.098 2.62976 532.925 2.73275 532.737 2.79733C532.548 2.86192 532.348 2.8867 532.15 2.87012C531.79 2.84005 531.455 2.67584 531.21 2.41004C530.966 2.14425 530.83 1.79627 530.83 1.43512C530.83 1.07396 530.966 0.725989 531.21 0.460194C531.455 0.194399 531.79 0.0301876 532.15 0.000117317ZM551.36 0.000117317C551.558 -0.016469 551.758 0.00831452 551.947 0.0729008C552.135 0.137487 552.308 0.240471 552.455 0.375341C552.601 0.510212 552.718 0.674034 552.798 0.85645C552.878 1.03887 552.92 1.23591 552.92 1.43512C552.92 1.63433 552.878 1.83137 552.798 2.01378C552.718 2.1962 552.601 2.36002 552.455 2.49489C552.308 2.62976 552.135 2.73275 551.947 2.79733C551.758 2.86192 551.558 2.8867 551.36 2.87012C551 2.84005 550.664 2.67584 550.42 2.41004C550.175 2.14425 550.04 1.79627 550.04 1.43512C550.04 1.07396 550.175 0.725989 550.42 0.460194C550.664 0.194399 551 0.0301876 551.36 0.000117317Z" fill="#FFE8E8"/>
<defs>
<linearGradient id="paint0_linear_2246_3787" x1="7914.83" y1="-494.94" x2="30919.4" y2="39352.2" gradientUnits="userSpaceOnUse">
<stop stop-color="#F6F6FD"/>
<stop offset="1" stop-color="white"/>
</linearGradient>
</defs>
</svg>
