<svg width="205" height="183" viewBox="0 0 205 183" fill="none" xmlns="http://www.w3.org/2000/svg">
<g filter="url(#filter0_d_2246_3795)">
<mask id="mask0_2246_3795" style="mask-type:luminance" maskUnits="userSpaceOnUse" x="14" y="28" width="169" height="145">
<path d="M14 28.7998H182.01V172.8H14V28.7998Z" fill="white"/>
</mask>
<g mask="url(#mask0_2246_3795)">
<path fill-rule="evenodd" clip-rule="evenodd" d="M19.8 168.8C16.6 168.8 14 165.84 14 162.19V35.3998C14 31.7698 16.6 28.7998 19.8 28.7998H170.2C173.4 28.7998 176 31.7698 176 35.4198V162.2C176 165.84 173.4 168.8 170.2 168.8H19.8Z" fill="white"/>
</g>
<circle cx="40.5" cy="151.5" r="6.5" fill="#AD38DE"/>
<path d="M39 155V148L43 151.231L39 155Z" fill="#EDC1FF"/>
<path d="M31.3068 102.273H32.517L34.9375 106.347H35.0398L37.4602 102.273H38.6705L35.517 107.403V111H34.4602V107.403L31.3068 102.273ZM42.1142 111.136C41.5233 111.136 41.0049 110.996 40.5588 110.714C40.1157 110.433 39.7691 110.04 39.5191 109.534C39.2719 109.028 39.1483 108.437 39.1483 107.761C39.1483 107.08 39.2719 106.484 39.5191 105.976C39.7691 105.467 40.1157 105.072 40.5588 104.791C41.0049 104.51 41.5233 104.369 42.1142 104.369C42.7051 104.369 43.2222 104.51 43.6654 104.791C44.1114 105.072 44.458 105.467 44.7051 105.976C44.9551 106.484 45.0801 107.08 45.0801 107.761C45.0801 108.437 44.9551 109.028 44.7051 109.534C44.458 110.04 44.1114 110.433 43.6654 110.714C43.2222 110.996 42.7051 111.136 42.1142 111.136ZM42.1142 110.233C42.5631 110.233 42.9324 110.118 43.2222 109.888C43.512 109.658 43.7264 109.355 43.8657 108.98C44.0049 108.605 44.0745 108.199 44.0745 107.761C44.0745 107.324 44.0049 106.916 43.8657 106.538C43.7264 106.161 43.512 105.855 43.2222 105.622C42.9324 105.389 42.5631 105.273 42.1142 105.273C41.6654 105.273 41.2961 105.389 41.0063 105.622C40.7165 105.855 40.502 106.161 40.3628 106.538C40.2236 106.916 40.154 107.324 40.154 107.761C40.154 108.199 40.2236 108.605 40.3628 108.98C40.502 109.355 40.7165 109.658 41.0063 109.888C41.2961 110.118 41.6654 110.233 42.1142 110.233ZM51.2203 108.324V104.455H52.226V111H51.2203V109.892H51.1521C50.9987 110.224 50.7601 110.507 50.4362 110.74C50.1123 110.97 49.7033 111.085 49.2089 111.085C48.7998 111.085 48.4362 110.996 48.118 110.817C47.7998 110.635 47.5498 110.362 47.368 109.999C47.1862 109.632 47.0953 109.17 47.0953 108.614V104.455H48.101V108.545C48.101 109.023 48.2345 109.403 48.5015 109.688C48.7714 109.972 49.1152 110.114 49.5328 110.114C49.7828 110.114 50.0371 110.05 50.2956 109.922C50.5569 109.794 50.7757 109.598 50.9518 109.334C51.1308 109.07 51.2203 108.733 51.2203 108.324ZM55.6101 102.273V103.04C55.6101 103.273 55.5675 103.521 55.4823 103.786C55.3999 104.047 55.2777 104.301 55.1158 104.548C54.9567 104.793 54.7635 105.006 54.5362 105.188L53.9908 104.744C54.1698 104.489 54.3246 104.223 54.4553 103.947C54.5888 103.669 54.6556 103.372 54.6556 103.057V102.273H55.6101ZM62.9466 104.455L60.5262 111H59.5035L57.083 104.455H58.1739L59.9807 109.67H60.0489L61.8557 104.455H62.9466ZM67.264 111.136C66.6333 111.136 66.0893 110.997 65.6319 110.719C65.1773 110.438 64.8265 110.045 64.5793 109.543C64.335 109.037 64.2129 108.449 64.2129 107.778C64.2129 107.108 64.335 106.517 64.5793 106.006C64.8265 105.491 65.1702 105.091 65.6106 104.804C66.0538 104.514 66.5708 104.369 67.1617 104.369C67.5026 104.369 67.8393 104.426 68.1717 104.54C68.5041 104.653 68.8066 104.838 69.0793 105.094C69.3521 105.347 69.5694 105.682 69.7313 106.099C69.8933 106.517 69.9742 107.031 69.9742 107.642V108.068H64.9288V107.199H68.9515C68.9515 106.83 68.8776 106.5 68.7299 106.21C68.585 105.92 68.3776 105.692 68.1077 105.524C67.8407 105.357 67.5254 105.273 67.1617 105.273C66.7612 105.273 66.4146 105.372 66.1219 105.571C65.8322 105.767 65.6092 106.023 65.4529 106.338C65.2967 106.653 65.2185 106.991 65.2185 107.352V107.932C65.2185 108.426 65.3038 108.845 65.4742 109.189C65.6475 109.53 65.8876 109.79 66.1944 109.969C66.5012 110.145 66.8577 110.233 67.264 110.233C67.5282 110.233 67.7668 110.196 67.9799 110.122C68.1958 110.045 68.3819 109.932 68.5381 109.781C68.6944 109.628 68.8151 109.437 68.9004 109.21L69.8719 109.483C69.7697 109.812 69.5978 110.102 69.3563 110.352C69.1148 110.599 68.8165 110.793 68.4614 110.932C68.1063 111.068 67.7072 111.136 67.264 111.136ZM77.7652 111.153C77.3504 111.153 76.974 111.075 76.6359 110.919C76.2979 110.76 76.0294 110.531 75.8305 110.233C75.6317 109.932 75.5322 109.568 75.5322 109.142C75.5322 108.767 75.6061 108.463 75.7538 108.23C75.9015 107.994 76.099 107.81 76.3462 107.676C76.5933 107.543 76.866 107.443 77.1643 107.378C77.4655 107.31 77.768 107.256 78.072 107.216C78.4697 107.165 78.7922 107.126 79.0393 107.101C79.2893 107.072 79.4712 107.026 79.5848 106.96C79.7013 106.895 79.7595 106.781 79.7595 106.619V106.585C79.7595 106.165 79.6444 105.838 79.4143 105.605C79.1871 105.372 78.8419 105.256 78.3788 105.256C77.8987 105.256 77.5223 105.361 77.2496 105.571C76.9768 105.781 76.7851 106.006 76.6743 106.244L75.7197 105.903C75.8902 105.506 76.1175 105.196 76.4015 104.974C76.6885 104.75 77.001 104.594 77.339 104.506C77.68 104.415 78.0152 104.369 78.3447 104.369C78.555 104.369 78.7964 104.395 79.0692 104.446C79.3447 104.494 79.6104 104.595 79.866 104.749C80.1246 104.902 80.339 105.134 80.5095 105.443C80.68 105.753 80.7652 106.168 80.7652 106.688V111H79.7595V110.114H79.7084C79.6402 110.256 79.5265 110.408 79.3675 110.57C79.2084 110.732 78.9967 110.869 78.7325 110.983C78.4683 111.097 78.1459 111.153 77.7652 111.153ZM77.9186 110.25C78.3163 110.25 78.6515 110.172 78.9243 110.016C79.1998 109.859 79.4072 109.658 79.5464 109.411C79.6885 109.163 79.7595 108.903 79.7595 108.631V107.71C79.7169 107.761 79.6231 107.808 79.4783 107.851C79.3362 107.891 79.1714 107.926 78.9839 107.957C78.7993 107.986 78.6189 108.011 78.4427 108.034C78.2694 108.054 78.1288 108.071 78.0209 108.085C77.7595 108.119 77.5152 108.175 77.2879 108.251C77.0635 108.325 76.8817 108.437 76.7425 108.588C76.6061 108.736 76.5379 108.937 76.5379 109.193C76.5379 109.543 76.6672 109.807 76.9257 109.986C77.1871 110.162 77.518 110.25 77.9186 110.25ZM89.4074 111.136C88.8619 111.136 88.3804 110.999 87.9628 110.723C87.5451 110.445 87.2184 110.053 86.9826 109.547C86.7468 109.038 86.6289 108.438 86.6289 107.744C86.6289 107.057 86.7468 106.46 86.9826 105.955C87.2184 105.449 87.5466 105.058 87.967 104.783C88.3875 104.507 88.8733 104.369 89.4244 104.369C89.8505 104.369 90.1872 104.44 90.4343 104.582C90.6843 104.722 90.8747 104.881 91.0054 105.06C91.1389 105.236 91.2426 105.381 91.3164 105.494H91.4017V102.273H92.4074V111H91.4358V109.994H91.3164C91.2426 110.114 91.1375 110.264 91.0011 110.446C90.8647 110.625 90.6701 110.786 90.4173 110.928C90.1645 111.067 89.8278 111.136 89.4074 111.136ZM89.5437 110.233C89.9471 110.233 90.288 110.128 90.5664 109.918C90.8449 109.705 91.0565 109.411 91.2014 109.036C91.3463 108.658 91.4187 108.222 91.4187 107.727C91.4187 107.239 91.3477 106.811 91.2057 106.445C91.0636 106.075 90.8534 105.788 90.575 105.584C90.2966 105.376 89.9528 105.273 89.5437 105.273C89.1176 105.273 88.7625 105.382 88.4784 105.601C88.1971 105.817 87.9855 106.111 87.8434 106.483C87.7042 106.852 87.6346 107.267 87.6346 107.727C87.6346 108.193 87.7057 108.616 87.8477 108.997C87.9926 109.375 88.2057 109.676 88.4869 109.901C88.771 110.122 89.1233 110.233 89.5437 110.233ZM97.528 111.136C96.9371 111.136 96.4186 110.996 95.9726 110.714C95.5294 110.433 95.1828 110.04 94.9328 109.534C94.6857 109.028 94.5621 108.437 94.5621 107.761C94.5621 107.08 94.6857 106.484 94.9328 105.976C95.1828 105.467 95.5294 105.072 95.9726 104.791C96.4186 104.51 96.9371 104.369 97.528 104.369C98.1189 104.369 98.6359 104.51 99.0791 104.791C99.5251 105.072 99.8717 105.467 100.119 105.976C100.369 106.484 100.494 107.08 100.494 107.761C100.494 108.437 100.369 109.028 100.119 109.534C99.8717 110.04 99.5251 110.433 99.0791 110.714C98.6359 110.996 98.1189 111.136 97.528 111.136ZM97.528 110.233C97.9768 110.233 98.3462 110.118 98.6359 109.888C98.9257 109.658 99.1402 109.355 99.2794 108.98C99.4186 108.605 99.4882 108.199 99.4882 107.761C99.4882 107.324 99.4186 106.916 99.2794 106.538C99.1402 106.161 98.9257 105.855 98.6359 105.622C98.3462 105.389 97.9768 105.273 97.528 105.273C97.0791 105.273 96.7098 105.389 96.42 105.622C96.1303 105.855 95.9158 106.161 95.7766 106.538C95.6374 106.916 95.5678 107.324 95.5678 107.761C95.5678 108.199 95.6374 108.605 95.7766 108.98C95.9158 109.355 96.1303 109.658 96.42 109.888C96.7098 110.118 97.0791 110.233 97.528 110.233ZM105.168 111.136C104.555 111.136 104.026 110.991 103.583 110.702C103.14 110.412 102.799 110.013 102.56 109.504C102.322 108.996 102.202 108.415 102.202 107.761C102.202 107.097 102.324 106.51 102.569 106.001C102.816 105.49 103.16 105.091 103.6 104.804C104.043 104.514 104.56 104.369 105.151 104.369C105.611 104.369 106.026 104.455 106.395 104.625C106.765 104.795 107.067 105.034 107.303 105.341C107.539 105.648 107.685 106.006 107.742 106.415H106.736C106.66 106.116 106.489 105.852 106.225 105.622C105.964 105.389 105.611 105.273 105.168 105.273C104.776 105.273 104.432 105.375 104.137 105.58C103.844 105.781 103.616 106.067 103.451 106.436C103.289 106.803 103.208 107.233 103.208 107.727C103.208 108.233 103.287 108.673 103.447 109.048C103.608 109.423 103.836 109.714 104.128 109.922C104.424 110.129 104.77 110.233 105.168 110.233C105.43 110.233 105.667 110.188 105.88 110.097C106.093 110.006 106.273 109.875 106.421 109.705C106.569 109.534 106.674 109.33 106.736 109.091H107.742C107.685 109.477 107.545 109.825 107.32 110.135C107.099 110.442 106.805 110.686 106.438 110.868C106.074 111.047 105.651 111.136 105.168 111.136ZM112.539 104.455V105.307H109.147V104.455H112.539ZM110.135 102.886H111.141V109.125C111.141 109.409 111.182 109.622 111.265 109.764C111.35 109.903 111.458 109.997 111.588 110.045C111.722 110.091 111.863 110.114 112.01 110.114C112.121 110.114 112.212 110.108 112.283 110.097C112.354 110.082 112.411 110.071 112.454 110.062L112.658 110.966C112.59 110.991 112.495 111.017 112.373 111.043C112.25 111.071 112.096 111.085 111.908 111.085C111.624 111.085 111.346 111.024 111.073 110.902C110.803 110.78 110.579 110.594 110.4 110.344C110.223 110.094 110.135 109.778 110.135 109.398V102.886ZM117.12 111.136C116.529 111.136 116.011 110.996 115.565 110.714C115.122 110.433 114.775 110.04 114.525 109.534C114.278 109.028 114.154 108.437 114.154 107.761C114.154 107.08 114.278 106.484 114.525 105.976C114.775 105.467 115.122 105.072 115.565 104.791C116.011 104.51 116.529 104.369 117.12 104.369C117.711 104.369 118.228 104.51 118.671 104.791C119.117 105.072 119.464 105.467 119.711 105.976C119.961 106.484 120.086 107.08 120.086 107.761C120.086 108.437 119.961 109.028 119.711 109.534C119.464 110.04 119.117 110.433 118.671 110.714C118.228 110.996 117.711 111.136 117.12 111.136ZM117.12 110.233C117.569 110.233 117.939 110.118 118.228 109.888C118.518 109.658 118.733 109.355 118.872 108.98C119.011 108.605 119.081 108.199 119.081 107.761C119.081 107.324 119.011 106.916 118.872 106.538C118.733 106.161 118.518 105.855 118.228 105.622C117.939 105.389 117.569 105.273 117.12 105.273C116.671 105.273 116.302 105.389 116.012 105.622C115.723 105.855 115.508 106.161 115.369 106.538C115.23 106.916 115.16 107.324 115.16 107.761C115.16 108.199 115.23 108.605 115.369 108.98C115.508 109.355 115.723 109.658 116.012 109.888C116.302 110.118 116.671 110.233 117.12 110.233ZM122.101 111V104.455H123.073V105.443H123.141C123.26 105.119 123.476 104.857 123.789 104.655C124.101 104.453 124.454 104.352 124.846 104.352C124.92 104.352 125.012 104.354 125.123 104.357C125.233 104.359 125.317 104.364 125.374 104.369V105.392C125.34 105.384 125.262 105.371 125.14 105.354C125.02 105.334 124.894 105.324 124.76 105.324C124.442 105.324 124.158 105.391 123.908 105.524C123.661 105.655 123.465 105.837 123.32 106.07C123.178 106.3 123.107 106.562 123.107 106.858V111H122.101ZM128.132 102.273V103.04C128.132 103.273 128.089 103.521 128.004 103.786C127.922 104.047 127.799 104.301 127.637 104.548C127.478 104.793 127.285 105.006 127.058 105.188L126.512 104.744C126.691 104.489 126.846 104.223 126.977 103.947C127.111 103.669 127.177 103.372 127.177 103.057V102.273H128.132ZM133.651 105.92L132.747 106.176C132.691 106.026 132.607 105.879 132.496 105.737C132.388 105.592 132.24 105.473 132.053 105.379C131.865 105.286 131.625 105.239 131.333 105.239C130.932 105.239 130.598 105.331 130.331 105.516C130.067 105.697 129.935 105.929 129.935 106.21C129.935 106.46 130.026 106.658 130.208 106.803C130.39 106.947 130.674 107.068 131.06 107.165L132.032 107.403C132.617 107.545 133.053 107.763 133.34 108.055C133.627 108.345 133.77 108.719 133.77 109.176C133.77 109.551 133.662 109.886 133.446 110.182C133.233 110.477 132.935 110.71 132.551 110.881C132.168 111.051 131.722 111.136 131.213 111.136C130.546 111.136 129.993 110.991 129.556 110.702C129.118 110.412 128.841 109.989 128.725 109.432L129.679 109.193C129.77 109.545 129.942 109.81 130.195 109.986C130.451 110.162 130.784 110.25 131.196 110.25C131.665 110.25 132.037 110.151 132.313 109.952C132.591 109.75 132.73 109.509 132.73 109.227C132.73 109 132.651 108.81 132.492 108.656C132.333 108.5 132.088 108.384 131.759 108.307L130.668 108.051C130.068 107.909 129.628 107.689 129.347 107.391C129.068 107.089 128.929 106.713 128.929 106.261C128.929 105.892 129.033 105.565 129.24 105.281C129.451 104.997 129.736 104.774 130.097 104.612C130.461 104.45 130.872 104.369 131.333 104.369C131.98 104.369 132.489 104.511 132.858 104.795C133.23 105.08 133.495 105.455 133.651 105.92ZM33.8466 131.153C33.4318 131.153 33.0554 131.075 32.7173 130.919C32.3793 130.76 32.1108 130.531 31.9119 130.233C31.7131 129.932 31.6136 129.568 31.6136 129.142C31.6136 128.767 31.6875 128.463 31.8352 128.23C31.983 127.994 32.1804 127.81 32.4276 127.676C32.6747 127.543 32.9474 127.443 33.2457 127.378C33.5469 127.31 33.8494 127.256 34.1534 127.216C34.5511 127.165 34.8736 127.126 35.1207 127.101C35.3707 127.072 35.5526 127.026 35.6662 126.96C35.7827 126.895 35.8409 126.781 35.8409 126.619V126.585C35.8409 126.165 35.7259 125.838 35.4957 125.605C35.2685 125.372 34.9233 125.256 34.4602 125.256C33.9801 125.256 33.6037 125.361 33.331 125.571C33.0582 125.781 32.8665 126.006 32.7557 126.244L31.8011 125.903C31.9716 125.506 32.1989 125.196 32.483 124.974C32.7699 124.75 33.0824 124.594 33.4205 124.506C33.7614 124.415 34.0966 124.369 34.4261 124.369C34.6364 124.369 34.8778 124.395 35.1506 124.446C35.4261 124.494 35.6918 124.595 35.9474 124.749C36.206 124.902 36.4205 125.134 36.5909 125.443C36.7614 125.753 36.8466 126.168 36.8466 126.688V131H35.8409V130.114H35.7898C35.7216 130.256 35.608 130.408 35.4489 130.57C35.2898 130.732 35.0781 130.869 34.8139 130.983C34.5497 131.097 34.2273 131.153 33.8466 131.153ZM34 130.25C34.3977 130.25 34.733 130.172 35.0057 130.016C35.2813 129.859 35.4886 129.658 35.6278 129.411C35.7699 129.163 35.8409 128.903 35.8409 128.631V127.71C35.7983 127.761 35.7045 127.808 35.5597 127.851C35.4176 127.891 35.2528 127.926 35.0653 127.957C34.8807 127.986 34.7003 128.011 34.5241 128.034C34.3509 128.054 34.2102 128.071 34.1023 128.085C33.8409 128.119 33.5966 128.175 33.3693 128.251C33.1449 128.325 32.9631 128.437 32.8239 128.588C32.6875 128.736 32.6193 128.937 32.6193 129.193C32.6193 129.543 32.7486 129.807 33.0071 129.986C33.2685 130.162 33.5994 130.25 34 130.25ZM39.1622 133.455V124.455H40.1338V125.494H40.2531C40.3269 125.381 40.4292 125.236 40.5599 125.06C40.6934 124.881 40.8838 124.722 41.1309 124.582C41.3809 124.44 41.719 124.369 42.1451 124.369C42.6963 124.369 43.1821 124.507 43.6025 124.783C44.023 125.058 44.3511 125.449 44.5869 125.955C44.8227 126.46 44.9406 127.057 44.9406 127.744C44.9406 128.438 44.8227 129.038 44.5869 129.547C44.3511 130.053 44.0244 130.445 43.6068 130.723C43.1892 130.999 42.7076 131.136 42.1622 131.136C41.7417 131.136 41.4051 131.067 41.1522 130.928C40.8994 130.786 40.7048 130.625 40.5684 130.446C40.4321 130.264 40.3269 130.114 40.2531 129.994H40.1679V133.455H39.1622ZM40.1508 127.727C40.1508 128.222 40.2233 128.658 40.3681 129.036C40.513 129.411 40.7247 129.705 41.0031 129.918C41.2815 130.128 41.6224 130.233 42.0258 130.233C42.4463 130.233 42.7971 130.122 43.0784 129.901C43.3625 129.676 43.5755 129.375 43.7176 128.997C43.8625 128.616 43.9349 128.193 43.9349 127.727C43.9349 127.267 43.8639 126.852 43.7218 126.483C43.5826 126.111 43.371 125.817 43.0869 125.601C42.8056 125.382 42.4519 125.273 42.0258 125.273C41.6167 125.273 41.273 125.376 40.9946 125.584C40.7162 125.788 40.5059 126.075 40.3639 126.445C40.2218 126.811 40.1508 127.239 40.1508 127.727ZM46.9547 133.455V124.455H47.9263V125.494H48.0456C48.1194 125.381 48.2217 125.236 48.3524 125.06C48.4859 124.881 48.6763 124.722 48.9234 124.582C49.1734 124.44 49.5115 124.369 49.9376 124.369C50.4888 124.369 50.9746 124.507 51.395 124.783C51.8155 125.058 52.1436 125.449 52.3794 125.955C52.6152 126.46 52.7331 127.057 52.7331 127.744C52.7331 128.438 52.6152 129.038 52.3794 129.547C52.1436 130.053 51.8169 130.445 51.3993 130.723C50.9817 130.999 50.5001 131.136 49.9547 131.136C49.5342 131.136 49.1976 131.067 48.9447 130.928C48.6919 130.786 48.4973 130.625 48.3609 130.446C48.2246 130.264 48.1194 130.114 48.0456 129.994H47.9604V133.455H46.9547ZM47.9433 127.727C47.9433 128.222 48.0158 128.658 48.1606 129.036C48.3055 129.411 48.5172 129.705 48.7956 129.918C49.074 130.128 49.4149 130.233 49.8183 130.233C50.2388 130.233 50.5896 130.122 50.8709 129.901C51.155 129.676 51.368 129.375 51.5101 128.997C51.655 128.616 51.7274 128.193 51.7274 127.727C51.7274 127.267 51.6564 126.852 51.5143 126.483C51.3751 126.111 51.1635 125.817 50.8794 125.601C50.5981 125.382 50.2444 125.273 49.8183 125.273C49.4092 125.273 49.0655 125.376 48.7871 125.584C48.5087 125.788 48.2984 126.075 48.1564 126.445C48.0143 126.811 47.9433 127.239 47.9433 127.727ZM57.4063 131.136C56.8154 131.136 56.2969 130.996 55.8509 130.714C55.4077 130.433 55.0611 130.04 54.8111 129.534C54.5639 129.028 54.4404 128.437 54.4404 127.761C54.4404 127.08 54.5639 126.484 54.8111 125.976C55.0611 125.467 55.4077 125.072 55.8509 124.791C56.2969 124.51 56.8154 124.369 57.4063 124.369C57.9972 124.369 58.5142 124.51 58.9574 124.791C59.4034 125.072 59.75 125.467 59.9972 125.976C60.2472 126.484 60.3722 127.08 60.3722 127.761C60.3722 128.437 60.2472 129.028 59.9972 129.534C59.75 130.04 59.4034 130.433 58.9574 130.714C58.5142 130.996 57.9972 131.136 57.4063 131.136ZM57.4063 130.233C57.8551 130.233 58.2244 130.118 58.5142 129.888C58.804 129.658 59.0185 129.355 59.1577 128.98C59.2969 128.605 59.3665 128.199 59.3665 127.761C59.3665 127.324 59.2969 126.916 59.1577 126.538C59.0185 126.161 58.804 125.855 58.5142 125.622C58.2244 125.389 57.8551 125.273 57.4063 125.273C56.9574 125.273 56.5881 125.389 56.2983 125.622C56.0085 125.855 55.794 126.161 55.6548 126.538C55.5156 126.916 55.446 127.324 55.446 127.761C55.446 128.199 55.5156 128.605 55.6548 128.98C55.794 129.355 56.0085 129.658 56.2983 129.888C56.5881 130.118 56.9574 130.233 57.4063 130.233ZM62.3873 131V124.455H63.393V131H62.3873ZM62.8987 123.364C62.7027 123.364 62.5336 123.297 62.3916 123.163C62.2524 123.03 62.1828 122.869 62.1828 122.682C62.1828 122.494 62.2524 122.334 62.3916 122.2C62.5336 122.067 62.7027 122 62.8987 122C63.0947 122 63.2623 122.067 63.4015 122.2C63.5436 122.334 63.6146 122.494 63.6146 122.682C63.6146 122.869 63.5436 123.03 63.4015 123.163C63.2623 123.297 63.0947 123.364 62.8987 123.364ZM66.7207 127.062V131H65.715V124.455H66.6866V125.477H66.7718C66.9252 125.145 67.1582 124.878 67.4707 124.676C67.7832 124.472 68.1866 124.369 68.6809 124.369C69.1241 124.369 69.5119 124.46 69.8442 124.642C70.1766 124.821 70.4352 125.094 70.6198 125.46C70.8045 125.824 70.8968 126.284 70.8968 126.841V131H69.8911V126.909C69.8911 126.395 69.7576 125.994 69.4906 125.707C69.2235 125.418 68.857 125.273 68.3911 125.273C68.0701 125.273 67.7832 125.342 67.5303 125.482C67.2803 125.621 67.0829 125.824 66.938 126.091C66.7931 126.358 66.7207 126.682 66.7207 127.062ZM76.0611 124.455V125.307H72.6691V124.455H76.0611ZM73.6577 122.886H74.6634V129.125C74.6634 129.409 74.7046 129.622 74.787 129.764C74.8722 129.903 74.9801 129.997 75.1108 130.045C75.2443 130.091 75.385 130.114 75.5327 130.114C75.6435 130.114 75.7344 130.108 75.8054 130.097C75.8765 130.082 75.9333 130.071 75.9759 130.062L76.1804 130.966C76.1122 130.991 76.0171 131.017 75.8949 131.043C75.7728 131.071 75.6179 131.085 75.4304 131.085C75.1463 131.085 74.8679 131.024 74.5952 130.902C74.3253 130.78 74.1009 130.594 73.9219 130.344C73.7458 130.094 73.6577 129.778 73.6577 129.398V122.886ZM78.0539 131V124.455H79.0255V125.477H79.1107C79.2471 125.128 79.4672 124.857 79.7712 124.663C80.0752 124.467 80.4403 124.369 80.8664 124.369C81.2982 124.369 81.6576 124.467 81.9445 124.663C82.2343 124.857 82.4601 125.128 82.6221 125.477H82.6903C82.8579 125.139 83.1093 124.871 83.4445 124.672C83.7797 124.47 84.1817 124.369 84.6505 124.369C85.2357 124.369 85.7144 124.553 86.0866 124.919C86.4587 125.283 86.6448 125.849 86.6448 126.619V131H85.6391V126.619C85.6391 126.136 85.507 125.791 85.2428 125.584C84.9786 125.376 84.6675 125.273 84.3096 125.273C83.8493 125.273 83.4928 125.412 83.24 125.69C82.9871 125.966 82.8607 126.315 82.8607 126.739V131H81.838V126.517C81.838 126.145 81.7172 125.845 81.4758 125.618C81.2343 125.388 80.9232 125.273 80.5425 125.273C80.2812 125.273 80.0368 125.342 79.8096 125.482C79.5851 125.621 79.4033 125.814 79.2641 126.061C79.1278 126.305 79.0596 126.588 79.0596 126.909V131H78.0539ZM91.7079 131.136C91.0772 131.136 90.5332 130.997 90.0758 130.719C89.6213 130.438 89.2704 130.045 89.0232 129.543C88.7789 129.037 88.6568 128.449 88.6568 127.778C88.6568 127.108 88.7789 126.517 89.0232 126.006C89.2704 125.491 89.6141 125.091 90.0545 124.804C90.4977 124.514 91.0147 124.369 91.6056 124.369C91.9465 124.369 92.2832 124.426 92.6156 124.54C92.948 124.653 93.2505 124.838 93.5232 125.094C93.796 125.347 94.0133 125.682 94.1752 126.099C94.3372 126.517 94.4181 127.031 94.4181 127.642V128.068H89.3727V127.199H93.3954C93.3954 126.83 93.3215 126.5 93.1738 126.21C93.0289 125.92 92.8215 125.692 92.5516 125.524C92.2846 125.357 91.9693 125.273 91.6056 125.273C91.2051 125.273 90.8585 125.372 90.5659 125.571C90.2761 125.767 90.0531 126.023 89.8968 126.338C89.7406 126.653 89.6624 126.991 89.6624 127.352V127.932C89.6624 128.426 89.7477 128.845 89.9181 129.189C90.0914 129.53 90.3315 129.79 90.6383 129.969C90.9451 130.145 91.3016 130.233 91.7079 130.233C91.9721 130.233 92.2107 130.196 92.4238 130.122C92.6397 130.045 92.8258 129.932 92.982 129.781C93.1383 129.628 93.259 129.437 93.3443 129.21L94.3159 129.483C94.2136 129.812 94.0417 130.102 93.8002 130.352C93.5588 130.599 93.2605 130.793 92.9053 130.932C92.5502 131.068 92.1511 131.136 91.7079 131.136ZM97.4336 127.062V131H96.428V124.455H97.3995V125.477H97.4848C97.6382 125.145 97.8711 124.878 98.1836 124.676C98.4961 124.472 98.8995 124.369 99.3939 124.369C99.837 124.369 100.225 124.46 100.557 124.642C100.89 124.821 101.148 125.094 101.333 125.46C101.517 125.824 101.61 126.284 101.61 126.841V131H100.604V126.909C100.604 126.395 100.471 125.994 100.204 125.707C99.9365 125.418 99.57 125.273 99.1041 125.273C98.7831 125.273 98.4961 125.342 98.2433 125.482C97.9933 125.621 97.7959 125.824 97.651 126.091C97.5061 126.358 97.4336 126.682 97.4336 127.062ZM106.774 124.455V125.307H103.382V124.455H106.774ZM104.371 122.886H105.376V129.125C105.376 129.409 105.418 129.622 105.5 129.764C105.585 129.903 105.693 129.997 105.824 130.045C105.957 130.091 106.098 130.114 106.246 130.114C106.356 130.114 106.447 130.108 106.518 130.097C106.589 130.082 106.646 130.071 106.689 130.062L106.893 130.966C106.825 130.991 106.73 131.017 106.608 131.043C106.486 131.071 106.331 131.085 106.143 131.085C105.859 131.085 105.581 131.024 105.308 130.902C105.038 130.78 104.814 130.594 104.635 130.344C104.459 130.094 104.371 129.778 104.371 129.398V122.886ZM114.548 131.153C114.133 131.153 113.757 131.075 113.419 130.919C113.081 130.76 112.812 130.531 112.613 130.233C112.414 129.932 112.315 129.568 112.315 129.142C112.315 128.767 112.389 128.463 112.537 128.23C112.684 127.994 112.882 127.81 113.129 127.676C113.376 127.543 113.649 127.443 113.947 127.378C114.248 127.31 114.551 127.256 114.855 127.216C115.253 127.165 115.575 127.126 115.822 127.101C116.072 127.072 116.254 127.026 116.368 126.96C116.484 126.895 116.542 126.781 116.542 126.619V126.585C116.542 126.165 116.427 125.838 116.197 125.605C115.97 125.372 115.625 125.256 115.162 125.256C114.682 125.256 114.305 125.361 114.032 125.571C113.76 125.781 113.568 126.006 113.457 126.244L112.503 125.903C112.673 125.506 112.9 125.196 113.184 124.974C113.471 124.75 113.784 124.594 114.122 124.506C114.463 124.415 114.798 124.369 115.128 124.369C115.338 124.369 115.579 124.395 115.852 124.446C116.128 124.494 116.393 124.595 116.649 124.749C116.907 124.902 117.122 125.134 117.292 125.443C117.463 125.753 117.548 126.168 117.548 126.688V131H116.542V130.114H116.491C116.423 130.256 116.309 130.408 116.15 130.57C115.991 130.732 115.78 130.869 115.515 130.983C115.251 131.097 114.929 131.153 114.548 131.153ZM114.701 130.25C115.099 130.25 115.434 130.172 115.707 130.016C115.983 129.859 116.19 129.658 116.329 129.411C116.471 129.163 116.542 128.903 116.542 128.631V127.71C116.5 127.761 116.406 127.808 116.261 127.851C116.119 127.891 115.954 127.926 115.767 127.957C115.582 127.986 115.402 128.011 115.226 128.034C115.052 128.054 114.912 128.071 114.804 128.085C114.542 128.119 114.298 128.175 114.071 128.251C113.846 128.325 113.664 128.437 113.525 128.588C113.389 128.736 113.321 128.937 113.321 129.193C113.321 129.543 113.45 129.807 113.709 129.986C113.97 130.162 114.301 130.25 114.701 130.25ZM122.71 124.455V125.307H119.318V124.455H122.71ZM120.307 122.886H121.312V129.125C121.312 129.409 121.354 129.622 121.436 129.764C121.521 129.903 121.629 129.997 121.76 130.045C121.893 130.091 122.034 130.114 122.182 130.114C122.293 130.114 122.383 130.108 122.454 130.097C122.526 130.082 122.582 130.071 122.625 130.062L122.829 130.966C122.761 130.991 122.666 131.017 122.544 131.043C122.422 131.071 122.267 131.085 122.079 131.085C121.795 131.085 121.517 131.024 121.244 130.902C120.974 130.78 120.75 130.594 120.571 130.344C120.395 130.094 120.307 129.778 120.307 129.398V122.886ZM128.336 129.21V128.341L132.172 122.273H132.802V123.619H132.376L129.478 128.205V128.273H134.643V129.21H128.336ZM132.444 131V128.946V128.541V122.273H133.45V131H132.444ZM140.729 131V122.273H143.677C144.362 122.273 144.922 122.396 145.356 122.643C145.794 122.888 146.118 123.219 146.328 123.636C146.538 124.054 146.643 124.52 146.643 125.034C146.643 125.548 146.538 126.016 146.328 126.436C146.121 126.857 145.8 127.192 145.365 127.442C144.93 127.689 144.373 127.812 143.694 127.812H141.581V126.875H143.66C144.129 126.875 144.506 126.794 144.79 126.632C145.074 126.47 145.28 126.251 145.408 125.976C145.538 125.697 145.604 125.384 145.604 125.034C145.604 124.685 145.538 124.372 145.408 124.097C145.28 123.821 145.072 123.605 144.785 123.449C144.498 123.29 144.118 123.21 143.643 123.21H141.785V131H140.729ZM148.826 122.273H150.087L153.053 129.517H153.155L156.121 122.273H157.383V131H156.394V124.369H156.309L153.581 131H152.627L149.9 124.369H149.814V131H148.826V122.273Z" fill="#5887A7"/>
<path fill-rule="evenodd" clip-rule="evenodd" d="M59.86 150.17C60.21 150.17 60.5 150.45 60.5 150.8V152.94C60.5 153.2 60.21 153.41 59.86 153.41C59.51 153.41 59.22 153.21 59.22 152.94V150.8C59.22 150.45 59.52 150.17 59.86 150.17ZM85.13 150.14C85.48 150.14 85.77 150.42 85.77 150.77V152.95C85.77 153.21 85.48 153.43 85.13 153.43C84.78 153.43 84.49 153.21 84.49 152.95V150.77C84.49 150.42 84.78 150.14 85.13 150.14ZM77.46 150.14C77.81 150.14 78.09 150.42 78.09 150.77V152.95C78.09 153.21 77.81 153.43 77.46 153.43C77.1 153.43 76.82 153.21 76.82 152.95V150.77C76.82 150.42 77.1 150.14 77.46 150.14ZM82.41 148.86C82.76 148.86 83.05 149.14 83.05 149.49V153.91C83.05 154.17 82.76 154.38 82.41 154.38C82.06 154.38 81.77 154.17 81.77 153.91V149.49C81.77 149.14 82.06 148.86 82.41 148.86ZM80.01 148.76C80.36 148.76 80.65 149.03 80.65 149.38V153.98C80.65 154.25 80.36 154.46 80.01 154.46C79.66 154.46 79.37 154.25 79.37 153.99V149.39C79.37 149.02 79.66 148.74 80.01 148.74M74.91 147.42C75.33 147.42 75.62 147.7 75.62 148.05V154.98C75.62 155.24 75.32 155.45 74.97 155.45C74.62 155.45 74.33 155.24 74.33 154.98V148.05C74.33 147.7 74.63 147.42 74.97 147.42M67.1 150.14C67.44 150.14 67.73 150.42 67.73 150.77V152.95C67.73 153.21 67.44 153.43 67.09 153.43C66.69 153.43 66.4 153.21 66.4 152.95V150.77C66.4 150.42 66.7 150.14 67.04 150.14M52.64 150.14C52.98 150.14 53.27 150.42 53.27 150.77V152.95C53.28 153.21 52.98 153.43 52.64 153.43C52.28 153.43 52 153.21 52 152.95V150.77C52 150.42 52.28 150.14 52.64 150.14ZM55.04 149.29C55.39 149.29 55.68 149.57 55.68 149.92V153.6C55.68 153.86 55.39 154.07 55.04 154.07C54.69 154.07 54.4 153.87 54.4 153.6V149.92C54.4 149.57 54.7 149.29 55.04 149.29ZM71.99 148.86C72.34 148.86 72.62 149.14 72.62 149.49V153.91C72.62 154.17 72.34 154.38 71.99 154.38C71.63 154.38 71.35 154.17 71.35 153.91V149.49C71.35 149.14 71.63 148.86 71.99 148.86ZM69.59 148.76C69.94 148.76 70.22 149.03 70.22 149.38V153.98C70.22 154.25 69.94 154.46 69.58 154.46C69.23 154.46 68.95 154.25 68.95 153.99V149.39C68.95 149.02 69.23 148.74 69.58 148.74M57.48 148.59C57.83 148.59 58.12 148.87 58.12 149.22V154.1C58.12 154.37 57.83 154.58 57.48 154.58C57.13 154.58 56.84 154.38 56.84 154.11V149.31C56.84 148.95 57.14 148.67 57.48 148.67M64.68 147.5C65.03 147.5 65.32 147.78 65.32 148.13V155.06C65.32 155.33 65.03 155.54 64.68 155.54C64.33 155.54 64.04 155.34 64.04 155.07V148.07C64.04 147.72 64.34 147.44 64.68 147.44M62.26 145C62.61 145 62.9 145.28 62.9 145.64V156.77C62.9 157.03 62.61 157.24 62.26 157.24C61.91 157.24 61.62 157.04 61.62 156.77V145.64C61.62 145.28 61.92 145 62.26 145Z" fill="#AD38DE" fill-opacity="0.68"/>
</g>
<path fill-rule="evenodd" clip-rule="evenodd" d="M176 87H14.0003V33.81C13.9843 32.2884 14.5721 30.8225 15.6349 29.7335C16.6977 28.6444 18.1488 28.0211 19.6703 28H170.33C171.854 28.0211 173.306 28.6458 174.369 29.737C175.432 30.8282 176.019 32.2967 176 33.82V87Z" fill="#DDCAF0"/>
<path d="M40.8697 40.5455V50H39.3462L34.8913 43.56H34.8128V50H33.1001V40.5455H34.6328L39.0831 46.9901H39.1662V40.5455H40.8697ZM46.275 50.1385C45.5826 50.1385 44.9824 49.9862 44.4746 49.6815C43.9668 49.3768 43.5729 48.9505 43.2928 48.4027C43.0158 47.8549 42.8773 47.2147 42.8773 46.4822C42.8773 45.7498 43.0158 45.1081 43.2928 44.5572C43.5729 44.0063 43.9668 43.5785 44.4746 43.2738C44.9824 42.9691 45.5826 42.8168 46.275 42.8168C46.9675 42.8168 47.5677 42.9691 48.0755 43.2738C48.5833 43.5785 48.9757 44.0063 49.2527 44.5572C49.5327 45.1081 49.6728 45.7498 49.6728 46.4822C49.6728 47.2147 49.5327 47.8549 49.2527 48.4027C48.9757 48.9505 48.5833 49.3768 48.0755 49.6815C47.5677 49.9862 46.9675 50.1385 46.275 50.1385ZM46.2843 48.7997C46.6598 48.7997 46.9737 48.6966 47.226 48.4904C47.4784 48.2811 47.6661 48.0011 47.7893 47.6502C47.9154 47.2994 47.9785 46.9085 47.9785 46.4776C47.9785 46.0437 47.9154 45.6513 47.7893 45.3004C47.6661 44.9465 47.4784 44.6649 47.226 44.4556C46.9737 44.2463 46.6598 44.1417 46.2843 44.1417C45.8996 44.1417 45.5795 44.2463 45.3241 44.4556C45.0717 44.6649 44.8824 44.9465 44.7562 45.3004C44.6331 45.6513 44.5716 46.0437 44.5716 46.4776C44.5716 46.9085 44.6331 47.2994 44.7562 47.6502C44.8824 48.0011 45.0717 48.2811 45.3241 48.4904C45.5795 48.6966 45.8996 48.7997 46.2843 48.7997ZM55.152 42.9091V44.2017H51.0757V42.9091H55.152ZM52.0821 41.2102H53.7532V47.8672C53.7532 48.0919 53.7871 48.2642 53.8548 48.3842C53.9256 48.5012 54.0179 48.5812 54.1318 48.6243C54.2457 48.6674 54.3718 48.6889 54.5103 48.6889C54.615 48.6889 54.7104 48.6812 54.7966 48.6658C54.8858 48.6504 54.9535 48.6366 54.9997 48.6243L55.2813 49.9308C55.192 49.9615 55.0643 49.9954 54.8981 50.0323C54.735 50.0692 54.535 50.0908 54.298 50.0969C53.8794 50.1093 53.5024 50.0462 53.1669 49.9077C52.8315 49.7661 52.5653 49.5476 52.3683 49.2521C52.1744 48.9567 52.079 48.5874 52.0821 48.1442V41.2102ZM57.0697 50V42.9091H58.7408V50H57.0697ZM57.9099 41.9027C57.6452 41.9027 57.4174 41.815 57.2266 41.6396C57.0358 41.4611 56.9404 41.2472 56.9404 40.9979C56.9404 40.7455 57.0358 40.5316 57.2266 40.3562C57.4174 40.1777 57.6452 40.0884 57.9099 40.0884C58.1776 40.0884 58.4054 40.1777 58.5931 40.3562C58.7839 40.5316 58.8793 40.7455 58.8793 40.9979C58.8793 41.2472 58.7839 41.4611 58.5931 41.6396C58.4054 41.815 58.1776 41.9027 57.9099 41.9027ZM64.5709 42.9091V44.2017H60.3792V42.9091H64.5709ZM61.4271 50V42.2397C61.4271 41.7627 61.5256 41.3656 61.7226 41.0487C61.9226 40.7317 62.1904 40.4947 62.5258 40.3377C62.8613 40.1808 63.2337 40.1023 63.643 40.1023C63.9323 40.1023 64.1893 40.1254 64.414 40.1715C64.6386 40.2177 64.8048 40.2592 64.9125 40.2962L64.5802 41.5888C64.5094 41.5672 64.4201 41.5457 64.3124 41.5241C64.2047 41.4995 64.0847 41.4872 63.9523 41.4872C63.6415 41.4872 63.4214 41.5626 63.2922 41.7134C63.166 41.8612 63.1029 42.0735 63.1029 42.3505V50H61.4271ZM66.3997 50V42.9091H68.0709V50H66.3997ZM67.2399 41.9027C66.9752 41.9027 66.7475 41.815 66.5567 41.6396C66.3658 41.4611 66.2704 41.2472 66.2704 40.9979C66.2704 40.7455 66.3658 40.5316 66.5567 40.3562C66.7475 40.1777 66.9752 40.0884 67.2399 40.0884C67.5077 40.0884 67.7354 40.1777 67.9231 40.3562C68.114 40.5316 68.2094 40.7455 68.2094 40.9979C68.2094 41.2472 68.114 41.4611 67.9231 41.6396C67.7354 41.815 67.5077 41.9027 67.2399 41.9027ZM73.4024 50.1385C72.6945 50.1385 72.0867 49.9831 71.5789 49.6722C71.0741 49.3614 70.6848 48.9321 70.4109 48.3842C70.1401 47.8333 70.0047 47.1993 70.0047 46.4822C70.0047 45.7621 70.1432 45.1265 70.4201 44.5756C70.6971 44.0217 71.088 43.5908 71.5927 43.283C72.1005 42.9722 72.7007 42.8168 73.3932 42.8168C73.9687 42.8168 74.478 42.9229 74.9212 43.1353C75.3675 43.3446 75.7229 43.6416 75.9876 44.0263C76.2523 44.4079 76.4031 44.8542 76.44 45.3651H74.8427C74.7781 45.0234 74.6242 44.7388 74.3811 44.511C74.141 44.2802 73.8194 44.1648 73.4162 44.1648C73.0746 44.1648 72.7745 44.2571 72.516 44.4418C72.2575 44.6233 72.0559 44.8849 71.9113 45.2266C71.7697 45.5682 71.6989 45.9775 71.6989 46.4545C71.6989 46.9377 71.7697 47.3532 71.9113 47.701C72.0528 48.0457 72.2513 48.3119 72.5068 48.4996C72.7653 48.6843 73.0685 48.7766 73.4162 48.7766C73.6624 48.7766 73.8825 48.7305 74.0764 48.6381C74.2734 48.5427 74.438 48.4058 74.5704 48.2273C74.7027 48.0488 74.7935 47.8318 74.8427 47.5763H76.44C76.4 48.078 76.2523 48.5227 75.9968 48.9105C75.7414 49.2952 75.3936 49.5968 74.9535 49.8153C74.5134 50.0308 73.9964 50.1385 73.4024 50.1385ZM80.3728 50.1431C79.9234 50.1431 79.5187 50.0631 79.1586 49.9031C78.8016 49.7399 78.5185 49.4999 78.3092 49.1829C78.103 48.8659 77.9999 48.475 77.9999 48.0103C77.9999 47.6102 78.0738 47.2794 78.2215 47.0178C78.3692 46.7562 78.5708 46.5469 78.8262 46.3899C79.0817 46.233 79.3694 46.1145 79.6895 46.0344C80.0127 45.9513 80.3466 45.8913 80.6913 45.8544C81.1068 45.8113 81.4438 45.7728 81.7023 45.739C81.9608 45.7021 82.1486 45.6467 82.2655 45.5728C82.3855 45.4959 82.4456 45.3774 82.4456 45.2173V45.1896C82.4456 44.8419 82.3425 44.5726 82.1363 44.3817C81.9301 44.1909 81.6331 44.0955 81.2453 44.0955C80.8359 44.0955 80.5113 44.1848 80.2712 44.3633C80.0342 44.5418 79.8742 44.7526 79.7911 44.9957L78.2307 44.7741C78.3538 44.3433 78.5569 43.9832 78.8401 43.6939C79.1232 43.4015 79.4695 43.183 79.8788 43.0384C80.2881 42.8906 80.7405 42.8168 81.236 42.8168C81.5777 42.8168 81.9177 42.8568 82.2563 42.9368C82.5948 43.0168 82.9041 43.1491 83.1842 43.3338C83.4643 43.5154 83.6889 43.7631 83.8582 44.0771C84.0306 44.391 84.1167 44.7834 84.1167 45.2543V50H82.5102V49.0259H82.4548C82.3532 49.2229 82.2101 49.4076 82.0255 49.5799C81.8439 49.7492 81.6146 49.8861 81.3376 49.9908C81.0637 50.0923 80.7421 50.1431 80.3728 50.1431ZM80.8067 48.9151C81.1422 48.9151 81.433 48.849 81.6792 48.7166C81.9254 48.5812 82.1147 48.4027 82.2471 48.1811C82.3825 47.9595 82.4502 47.7179 82.4502 47.4563V46.6207C82.3979 46.6638 82.3086 46.7038 82.1824 46.7408C82.0593 46.7777 81.9208 46.81 81.7669 46.8377C81.6131 46.8654 81.4607 46.89 81.3099 46.9116C81.1591 46.9331 81.0283 46.9516 80.9175 46.967C80.6682 47.0008 80.4451 47.0562 80.2481 47.1332C80.0511 47.2101 79.8957 47.3178 79.7819 47.4563C79.668 47.5917 79.611 47.7672 79.611 47.9826C79.611 48.2904 79.7234 48.5227 79.948 48.6797C80.1727 48.8366 80.4589 48.9151 80.8067 48.9151ZM89.858 42.9091V44.2017H85.7816V42.9091H89.858ZM86.788 41.2102H88.4592V47.8672C88.4592 48.0919 88.493 48.2642 88.5607 48.3842C88.6315 48.5012 88.7238 48.5812 88.8377 48.6243C88.9516 48.6674 89.0778 48.6889 89.2163 48.6889C89.3209 48.6889 89.4163 48.6812 89.5025 48.6658C89.5917 48.6504 89.6595 48.6366 89.7056 48.6243L89.9872 49.9308C89.898 49.9615 89.7702 49.9954 89.6041 50.0323C89.4409 50.0692 89.2409 50.0908 89.0039 50.0969C88.5854 50.1093 88.2083 50.0462 87.8729 49.9077C87.5374 49.7661 87.2712 49.5476 87.0742 49.2521C86.8803 48.9567 86.7849 48.5874 86.788 48.1442V41.2102ZM91.7756 50V42.9091H93.4468V50H91.7756ZM92.6158 41.9027C92.3511 41.9027 92.1234 41.815 91.9326 41.6396C91.7417 41.4611 91.6463 41.2472 91.6463 40.9979C91.6463 40.7455 91.7417 40.5316 91.9326 40.3562C92.1234 40.1777 92.3511 40.0884 92.6158 40.0884C92.8836 40.0884 93.1113 40.1777 93.299 40.3562C93.4899 40.5316 93.5853 40.7455 93.5853 40.9979C93.5853 41.2472 93.4899 41.4611 93.299 41.6396C93.1113 41.815 92.8836 41.9027 92.6158 41.9027ZM98.7783 50.1385C98.0858 50.1385 97.4857 49.9862 96.9779 49.6815C96.47 49.3768 96.0761 48.9505 95.796 48.4027C95.5191 47.8549 95.3806 47.2147 95.3806 46.4822C95.3806 45.7498 95.5191 45.1081 95.796 44.5572C96.0761 44.0063 96.47 43.5785 96.9779 43.2738C97.4857 42.9691 98.0858 42.8168 98.7783 42.8168C99.4708 42.8168 100.071 42.9691 100.579 43.2738C101.087 43.5785 101.479 44.0063 101.756 44.5572C102.036 45.1081 102.176 45.7498 102.176 46.4822C102.176 47.2147 102.036 47.8549 101.756 48.4027C101.479 48.9505 101.087 49.3768 100.579 49.6815C100.071 49.9862 99.4708 50.1385 98.7783 50.1385ZM98.7875 48.7997C99.163 48.7997 99.4769 48.6966 99.7293 48.4904C99.9817 48.2811 100.169 48.0011 100.292 47.6502C100.419 47.2994 100.482 46.9085 100.482 46.4776C100.482 46.0437 100.419 45.6513 100.292 45.3004C100.169 44.9465 99.9817 44.6649 99.7293 44.4556C99.4769 44.2463 99.163 44.1417 98.7875 44.1417C98.4028 44.1417 98.0827 44.2463 97.8273 44.4556C97.5749 44.6649 97.3857 44.9465 97.2595 45.3004C97.1364 45.6513 97.0748 46.0437 97.0748 46.4776C97.0748 46.9085 97.1364 47.2994 97.2595 47.6502C97.3857 48.0011 97.5749 48.2811 97.8273 48.4904C98.0827 48.6966 98.4028 48.7997 98.7875 48.7997ZM105.786 45.8452V50H104.114V42.9091H105.712V44.114H105.795C105.958 43.717 106.218 43.4015 106.575 43.1676C106.935 42.9337 107.38 42.8168 107.909 42.8168C108.399 42.8168 108.825 42.9214 109.188 43.1307C109.554 43.34 109.837 43.6431 110.037 44.0401C110.24 44.4371 110.341 44.9188 110.337 45.4851V50H108.666V45.7436C108.666 45.2696 108.543 44.8988 108.297 44.631C108.054 44.3633 107.717 44.2294 107.286 44.2294C106.994 44.2294 106.734 44.294 106.506 44.4233C106.281 44.5495 106.104 44.7326 105.975 44.9727C105.849 45.2127 105.786 45.5036 105.786 45.8452ZM118.161 44.7834L116.637 44.9496C116.594 44.7957 116.519 44.651 116.411 44.5156C116.306 44.3802 116.165 44.271 115.986 44.1879C115.808 44.1048 115.589 44.0632 115.331 44.0632C114.983 44.0632 114.691 44.1386 114.454 44.2894C114.22 44.4402 114.104 44.6357 114.107 44.8757C114.104 45.0819 114.18 45.2496 114.334 45.3789C114.491 45.5082 114.749 45.6143 115.109 45.6974L116.319 45.956C116.99 46.1006 117.488 46.3299 117.814 46.6438C118.144 46.9577 118.31 47.3686 118.313 47.8764C118.31 48.3227 118.179 48.7166 117.921 49.0582C117.665 49.3968 117.31 49.6615 116.854 49.8523C116.399 50.0431 115.876 50.1385 115.285 50.1385C114.417 50.1385 113.718 49.9569 113.189 49.5938C112.659 49.2275 112.344 48.7182 112.242 48.0657L113.872 47.9087C113.946 48.2288 114.103 48.4704 114.343 48.6335C114.583 48.7966 114.895 48.8782 115.28 48.8782C115.677 48.8782 115.996 48.7966 116.236 48.6335C116.479 48.4704 116.6 48.2688 116.6 48.0288C116.6 47.8256 116.522 47.6579 116.365 47.5256C116.211 47.3932 115.971 47.2917 115.645 47.2209L114.435 46.967C113.755 46.8254 113.252 46.5869 112.926 46.2514C112.599 45.9129 112.438 45.4851 112.441 44.968C112.438 44.531 112.556 44.1525 112.796 43.8324C113.039 43.5092 113.376 43.2599 113.807 43.0845C114.241 42.906 114.741 42.8168 115.308 42.8168C116.139 42.8168 116.793 42.9937 117.27 43.3477C117.75 43.7016 118.047 44.1802 118.161 44.7834Z" fill="#242424"/>
<path d="M34.2017 76.1357L32.2131 68.863H33.108L34.6278 74.7863H34.6989L36.2472 68.863H37.2415L38.7898 74.7863H38.8608L40.3807 68.863H41.2756L39.2869 76.1357H38.3778L36.7727 70.3403H36.7159L35.1108 76.1357H34.2017ZM43.4973 72.8545V76.1357H42.6592V68.863H43.4973V71.5335H43.5683C43.6962 71.2517 43.8879 71.028 44.1436 70.8623C44.4017 70.6942 44.7449 70.6102 45.1734 70.6102C45.5451 70.6102 45.8706 70.6847 46.15 70.8339C46.4294 70.9807 46.646 71.2068 46.7999 71.5122C46.9561 71.8152 47.0342 72.2011 47.0342 72.6698V76.1357H46.1962V72.7267C46.1962 72.2934 46.0837 71.9584 45.8588 71.7217C45.6363 71.4826 45.3273 71.363 44.932 71.363C44.6573 71.363 44.4111 71.421 44.1933 71.537C43.9779 71.653 43.8074 71.8223 43.682 72.0448C43.5589 72.2674 43.4973 72.5373 43.4973 72.8545ZM50.5725 76.2636C50.2269 76.2636 49.9132 76.1985 49.6315 76.0683C49.3498 75.9357 49.1261 75.7451 48.9603 75.4965C48.7946 75.2456 48.7118 74.9426 48.7118 74.5874C48.7118 74.2749 48.7733 74.0216 48.8964 73.8275C49.0195 73.631 49.1841 73.4771 49.39 73.3659C49.596 73.2546 49.8233 73.1717 50.0718 73.1173C50.3228 73.0605 50.5749 73.0155 50.8282 72.9823C51.1597 72.9397 51.4284 72.9078 51.6343 72.8865C51.8427 72.8628 51.9942 72.8237 52.0889 72.7693C52.1859 72.7148 52.2345 72.6201 52.2345 72.4852V72.4568C52.2345 72.1064 52.1386 71.8341 51.9468 71.64C51.7574 71.4459 51.4698 71.3488 51.0839 71.3488C50.6838 71.3488 50.3701 71.4364 50.1429 71.6116C49.9156 71.7868 49.7558 71.9738 49.6635 72.1727L48.868 71.8886C49.01 71.5571 49.1994 71.2991 49.4362 71.1144C49.6753 70.9274 49.9357 70.7972 50.2174 70.7238C50.5015 70.6481 50.7809 70.6102 51.0555 70.6102C51.2307 70.6102 51.4319 70.6315 51.6592 70.6741C51.8888 70.7143 52.1102 70.7984 52.3233 70.9262C52.5387 71.0541 52.7174 71.247 52.8595 71.5051C53.0015 71.7631 53.0725 72.1088 53.0725 72.542V76.1357H52.2345V75.3971H52.1919C52.135 75.5155 52.0404 75.6421 51.9078 75.7771C51.7752 75.912 51.5988 76.0268 51.3787 76.1215C51.1585 76.2162 50.8898 76.2636 50.5725 76.2636ZM50.7004 75.5107C51.0318 75.5107 51.3112 75.4456 51.5385 75.3154C51.7681 75.1852 51.9409 75.0171 52.0569 74.8112C52.1753 74.6052 52.2345 74.3886 52.2345 74.1613V73.3943C52.199 73.4369 52.1208 73.4759 52.0001 73.5115C51.8817 73.5446 51.7444 73.5742 51.5882 73.6002C51.4343 73.6239 51.284 73.6452 51.1372 73.6642C50.9928 73.6807 50.8756 73.6949 50.7856 73.7068C50.5678 73.7352 50.3642 73.7813 50.1748 73.8453C49.9878 73.9068 49.8363 74.0003 49.7203 74.1258C49.6066 74.2489 49.5498 74.417 49.5498 74.6301C49.5498 74.9213 49.6575 75.1414 49.873 75.2906C50.0908 75.4374 50.3666 75.5107 50.7004 75.5107ZM57.3744 70.6812V71.3914H54.5477V70.6812H57.3744ZM55.3715 69.3744H56.2096V74.5732C56.2096 74.81 56.2439 74.9875 56.3126 75.1059C56.3836 75.2219 56.4736 75.3 56.5825 75.3403C56.6937 75.3782 56.8109 75.3971 56.934 75.3971C57.0264 75.3971 57.1021 75.3924 57.1613 75.3829C57.2205 75.3711 57.2678 75.3616 57.3033 75.3545L57.4738 76.1073C57.417 76.1286 57.3377 76.1499 57.2359 76.1713C57.1341 76.1949 57.005 76.2068 56.8488 76.2068C56.6121 76.2068 56.38 76.1559 56.1528 76.0541C55.9279 75.9523 55.7408 75.7972 55.5917 75.5889C55.4449 75.3805 55.3715 75.1177 55.3715 74.8005V69.3744ZM62.801 71.9028L62.0482 72.1159C62.0008 71.9904 61.931 71.8685 61.8386 71.7501C61.7487 71.6294 61.6256 71.5299 61.4693 71.4518C61.3131 71.3737 61.113 71.3346 60.8692 71.3346C60.5354 71.3346 60.2572 71.4115 60.0347 71.5654C59.8145 71.7169 59.7044 71.9099 59.7044 72.1443C59.7044 72.3526 59.7802 72.5171 59.9317 72.6379C60.0832 72.7586 60.3199 72.8592 60.6419 72.9397L61.4516 73.1386C61.9393 73.257 62.3027 73.4381 62.5418 73.6819C62.7809 73.9234 62.9004 74.2347 62.9004 74.6159C62.9004 74.9284 62.8105 75.2077 62.6305 75.4539C62.453 75.7001 62.2044 75.8943 61.8848 76.0363C61.5652 76.1784 61.1935 76.2494 60.7697 76.2494C60.2134 76.2494 59.7529 76.1286 59.3884 75.8872C59.0238 75.6457 58.7929 75.2929 58.6959 74.8289L59.4913 74.6301C59.5671 74.9236 59.7103 75.1438 59.921 75.2906C60.1341 75.4374 60.4123 75.5107 60.7555 75.5107C61.1462 75.5107 61.4563 75.4279 61.6859 75.2622C61.9179 75.0941 62.0339 74.8928 62.0339 74.6585C62.0339 74.4691 61.9677 74.3105 61.8351 74.1826C61.7025 74.0524 61.4989 73.9553 61.2243 73.8914L60.3152 73.6784C59.8157 73.56 59.4487 73.3765 59.2143 73.1279C58.9823 72.877 58.8663 72.5633 58.8663 72.1869C58.8663 71.8791 58.9527 71.6069 59.1256 71.3701C59.3008 71.1334 59.5387 70.9475 59.8393 70.8126C60.1424 70.6776 60.4857 70.6102 60.8692 70.6102C61.4089 70.6102 61.8327 70.7285 62.1405 70.9653C62.4506 71.202 62.6708 71.5145 62.801 71.9028ZM64.9739 76.1357H64.0506L66.7211 68.863H67.6301L70.3006 76.1357H69.3773L67.204 70.0136H67.1472L64.9739 76.1357ZM65.3148 73.2948H69.0364V74.0761H65.3148V73.2948ZM71.7198 78.1812V70.6812H72.5294V71.5477H72.6289C72.6904 71.453 72.7757 71.3322 72.8846 71.1855C72.9958 71.0363 73.1544 70.9037 73.3604 70.7877C73.5687 70.6694 73.8505 70.6102 74.2056 70.6102C74.6649 70.6102 75.0697 70.725 75.4201 70.9546C75.7704 71.1843 76.0439 71.5098 76.2404 71.9312C76.4369 72.3526 76.5351 72.8498 76.5351 73.4227C76.5351 74.0003 76.4369 74.501 76.2404 74.9248C76.0439 75.3462 75.7716 75.6729 75.4236 75.9049C75.0756 76.1346 74.6743 76.2494 74.2198 76.2494C73.8694 76.2494 73.5889 76.1914 73.3782 76.0754C73.1675 75.957 73.0053 75.8232 72.8917 75.6741C72.778 75.5226 72.6904 75.3971 72.6289 75.2977H72.5578V78.1812H71.7198ZM72.5436 73.4085C72.5436 73.8204 72.604 74.1838 72.7248 74.4987C72.8455 74.8112 73.0219 75.0562 73.2539 75.2338C73.4859 75.4089 73.77 75.4965 74.1061 75.4965C74.4565 75.4965 74.7489 75.4042 74.9833 75.2195C75.22 75.0325 75.3976 74.7816 75.5159 74.4667C75.6367 74.1495 75.6971 73.7967 75.6971 73.4085C75.6971 73.0249 75.6379 72.6793 75.5195 72.3715C75.4035 72.0614 75.2271 71.8164 74.9904 71.6365C74.756 71.4542 74.4613 71.363 74.1061 71.363C73.7652 71.363 73.4788 71.4494 73.2468 71.6222C73.0148 71.7927 72.8396 72.0318 72.7212 72.3396C72.6028 72.645 72.5436 73.0013 72.5436 73.4085ZM78.2135 78.1812V70.6812H79.0232V71.5477H79.1226C79.1842 71.453 79.2694 71.3322 79.3783 71.1855C79.4896 71.0363 79.6482 70.9037 79.8542 70.7877C80.0625 70.6694 80.3442 70.6102 80.6993 70.6102C81.1586 70.6102 81.5634 70.725 81.9138 70.9546C82.2642 71.1843 82.5376 71.5098 82.7341 71.9312C82.9306 72.3526 83.0289 72.8498 83.0289 73.4227C83.0289 74.0003 82.9306 74.501 82.7341 74.9248C82.5376 75.3462 82.2654 75.6729 81.9174 75.9049C81.5694 76.1346 81.1681 76.2494 80.7135 76.2494C80.3632 76.2494 80.0826 76.1914 79.8719 76.0754C79.6612 75.957 79.499 75.8232 79.3854 75.6741C79.2718 75.5226 79.1842 75.3971 79.1226 75.2977H79.0516V78.1812H78.2135ZM79.0374 73.4085C79.0374 73.8204 79.0978 74.1838 79.2185 74.4987C79.3392 74.8112 79.5156 75.0562 79.7476 75.2338C79.9796 75.4089 80.2637 75.4965 80.5999 75.4965C80.9503 75.4965 81.2426 75.4042 81.477 75.2195C81.7138 75.0325 81.8913 74.7816 82.0097 74.4667C82.1304 74.1495 82.1908 73.7967 82.1908 73.4085C82.1908 73.0249 82.1316 72.6793 82.0132 72.3715C81.8972 72.0614 81.7209 71.8164 81.4841 71.6365C81.2498 71.4542 80.955 71.363 80.5999 71.363C80.259 71.363 79.9725 71.4494 79.7405 71.6222C79.5085 71.7927 79.3333 72.0318 79.2149 72.3396C79.0966 72.645 79.0374 73.0013 79.0374 73.4085ZM85.9573 75.1414L85.9005 75.5249C85.8602 75.7948 85.7987 76.0837 85.7158 76.3914C85.6353 76.6992 85.5513 76.9892 85.4637 77.2615C85.3761 77.5337 85.3039 77.7503 85.2471 77.9113H84.6078C84.6386 77.7598 84.6789 77.5597 84.7286 77.3112C84.7783 77.0626 84.828 76.7844 84.8777 76.4767C84.9298 76.1713 84.9724 75.8588 85.0056 75.5392L85.0482 75.1414H85.9573ZM91.2362 76.1357V68.863H93.6935C94.2617 68.863 94.7281 68.9601 95.0927 69.1542C95.4573 69.346 95.7272 69.6099 95.9023 69.9461C96.0775 70.2823 96.1651 70.6646 96.1651 71.0931C96.1651 71.5216 96.0775 71.9016 95.9023 72.233C95.7272 72.5645 95.4585 72.8249 95.0962 73.0143C94.734 73.2013 94.2712 73.2948 93.7077 73.2948H91.7191V72.4994H93.6793C94.0676 72.4994 94.3801 72.4426 94.6168 72.3289C94.8559 72.2153 95.0288 72.0543 95.1353 71.846C95.2442 71.6353 95.2987 71.3843 95.2987 71.0931C95.2987 70.8019 95.2442 70.5474 95.1353 70.3296C95.0264 70.1118 94.8524 69.9437 94.6133 69.8254C94.3742 69.7046 94.0581 69.6443 93.6651 69.6443H92.1168V76.1357H91.2362ZM94.6594 72.8687L96.4492 76.1357H95.4265L93.6651 72.8687H94.6594ZM103.885 71.1357H103.004C102.952 70.8824 102.861 70.6599 102.731 70.4681C102.603 70.2764 102.447 70.1154 102.262 69.9852C102.08 69.8526 101.877 69.7532 101.655 69.6869C101.432 69.6206 101.2 69.5874 100.959 69.5874C100.518 69.5874 100.12 69.6987 99.762 69.9213C99.4069 70.1438 99.124 70.4717 98.9133 70.9049C98.705 71.3382 98.6008 71.8696 98.6008 72.4994C98.6008 73.1291 98.705 73.6606 98.9133 74.0938C99.124 74.5271 99.4069 74.855 99.762 75.0775C100.12 75.3 100.518 75.4113 100.959 75.4113C101.2 75.4113 101.432 75.3782 101.655 75.3119C101.877 75.2456 102.08 75.1473 102.262 75.0171C102.447 74.8846 102.603 74.7224 102.731 74.5306C102.861 74.3365 102.952 74.114 103.004 73.863H103.885C103.819 74.2347 103.698 74.5673 103.523 74.8609C103.348 75.1544 103.13 75.4042 102.869 75.6102C102.609 75.8138 102.316 75.9688 101.992 76.0754C101.67 76.1819 101.326 76.2352 100.959 76.2352C100.339 76.2352 99.7869 76.0837 99.3039 75.7806C98.821 75.4776 98.441 75.0467 98.164 74.488C97.887 73.9293 97.7485 73.2664 97.7485 72.4994C97.7485 71.7323 97.887 71.0695 98.164 70.5107C98.441 69.952 98.821 69.5212 99.3039 69.2181C99.7869 68.9151 100.339 68.7636 100.959 68.7636C101.326 68.7636 101.67 68.8168 101.992 68.9234C102.316 69.0299 102.609 69.1862 102.869 69.3921C103.13 69.5957 103.348 69.8443 103.523 70.1379C103.698 70.4291 103.819 70.7617 103.885 71.1357ZM109.685 70.6812C109.643 70.3213 109.47 70.042 109.167 69.8431C108.864 69.6443 108.492 69.5448 108.052 69.5448C107.73 69.5448 107.448 69.5969 107.207 69.7011C106.967 69.8052 106.78 69.9485 106.646 70.1308C106.513 70.3131 106.447 70.5202 106.447 70.7522C106.447 70.9463 106.493 71.1133 106.585 71.2529C106.68 71.3902 106.801 71.5051 106.947 71.5974C107.094 71.6874 107.248 71.7619 107.409 71.8211C107.57 71.8779 107.718 71.9241 107.853 71.9596L108.592 72.1585C108.781 72.2082 108.992 72.2768 109.224 72.3644C109.458 72.452 109.682 72.5716 109.895 72.7231C110.11 72.8722 110.288 73.064 110.427 73.2984C110.567 73.5328 110.637 73.8204 110.637 74.1613C110.637 74.5543 110.534 74.9094 110.328 75.2267C110.124 75.5439 109.826 75.796 109.433 75.983C109.043 76.1701 108.568 76.2636 108.009 76.2636C107.488 76.2636 107.037 76.1795 106.656 76.0115C106.277 75.8434 105.979 75.609 105.761 75.3083C105.546 75.0077 105.424 74.6585 105.396 74.2607H106.305C106.328 74.5354 106.421 74.7626 106.582 74.9426C106.745 75.1201 106.951 75.2527 107.2 75.3403C107.45 75.4255 107.72 75.4681 108.009 75.4681C108.345 75.4681 108.647 75.4137 108.915 75.3048C109.182 75.1935 109.394 75.0396 109.55 74.8431C109.707 74.6443 109.785 74.4123 109.785 74.1471C109.785 73.9056 109.717 73.7091 109.582 73.5576C109.447 73.4061 109.27 73.283 109.05 73.1883C108.829 73.0936 108.592 73.0107 108.336 72.9397L107.441 72.684C106.873 72.5207 106.423 72.2875 106.092 71.9845C105.76 71.6814 105.594 71.2849 105.594 70.7948C105.594 70.3876 105.704 70.0325 105.925 69.7295C106.147 69.4241 106.445 69.1874 106.82 69.0193C107.196 68.8488 107.616 68.7636 108.08 68.7636C108.549 68.7636 108.966 68.8476 109.33 69.0157C109.695 69.1814 109.984 69.4087 110.197 69.6975C110.412 69.9864 110.526 70.3142 110.538 70.6812H109.685ZM113.621 75.1414L113.565 75.5249C113.524 75.7948 113.463 76.0837 113.38 76.3914C113.299 76.6992 113.215 76.9892 113.128 77.2615C113.04 77.5337 112.968 77.7503 112.911 77.9113H112.272C112.303 77.7598 112.343 77.5597 112.393 77.3112C112.442 77.0626 112.492 76.7844 112.542 76.4767C112.594 76.1713 112.636 75.8588 112.67 75.5392L112.712 75.1414H113.621ZM122.877 70.6812C122.835 70.3213 122.662 70.042 122.359 69.8431C122.056 69.6443 121.684 69.5448 121.244 69.5448C120.922 69.5448 120.64 69.5969 120.399 69.7011C120.16 69.8052 119.973 69.9485 119.838 70.1308C119.705 70.3131 119.639 70.5202 119.639 70.7522C119.639 70.9463 119.685 71.1133 119.777 71.2529C119.872 71.3902 119.993 71.5051 120.14 71.5974C120.286 71.6874 120.44 71.7619 120.601 71.8211C120.762 71.8779 120.91 71.9241 121.045 71.9596L121.784 72.1585C121.973 72.2082 122.184 72.2768 122.416 72.3644C122.65 72.452 122.874 72.5716 123.087 72.7231C123.302 72.8722 123.48 73.064 123.62 73.2984C123.759 73.5328 123.829 73.8204 123.829 74.1613C123.829 74.5543 123.726 74.9094 123.52 75.2267C123.317 75.5439 123.018 75.796 122.625 75.983C122.235 76.1701 121.76 76.2636 121.201 76.2636C120.681 76.2636 120.23 76.1795 119.848 76.0115C119.47 75.8434 119.171 75.609 118.953 75.3083C118.738 75.0077 118.616 74.6585 118.588 74.2607H119.497C119.52 74.5354 119.613 74.7626 119.774 74.9426C119.937 75.1201 120.143 75.2527 120.392 75.3403C120.643 75.4255 120.913 75.4681 121.201 75.4681C121.538 75.4681 121.839 75.4137 122.107 75.3048C122.374 75.1935 122.586 75.0396 122.743 74.8431C122.899 74.6443 122.977 74.4123 122.977 74.1471C122.977 73.9056 122.909 73.7091 122.775 73.5576C122.64 73.4061 122.462 73.283 122.242 73.1883C122.022 73.0936 121.784 73.0107 121.528 72.9397L120.633 72.684C120.065 72.5207 119.615 72.2875 119.284 71.9845C118.952 71.6814 118.787 71.2849 118.787 70.7948C118.787 70.3876 118.897 70.0325 119.117 69.7295C119.339 69.4241 119.638 69.1874 120.012 69.0193C120.388 68.8488 120.808 68.7636 121.272 68.7636C121.741 68.7636 122.158 68.8476 122.522 69.0157C122.887 69.1814 123.176 69.4087 123.389 69.6975C123.604 69.9864 123.718 70.3142 123.73 70.6812H122.877ZM125.677 68.863H126.728L129.2 74.8999H129.285L131.757 68.863H132.808V76.1357H131.984V70.6102H131.913L129.64 76.1357H128.845L126.572 70.6102H126.501V76.1357H125.677V68.863ZM138.951 70.6812C138.908 70.3213 138.735 70.042 138.432 69.8431C138.129 69.6443 137.758 69.5448 137.317 69.5448C136.995 69.5448 136.714 69.5969 136.472 69.7011C136.233 69.8052 136.046 69.9485 135.911 70.1308C135.779 70.3131 135.712 70.5202 135.712 70.7522C135.712 70.9463 135.758 71.1133 135.851 71.2529C135.945 71.3902 136.066 71.5051 136.213 71.5974C136.36 71.6874 136.514 71.7619 136.675 71.8211C136.836 71.8779 136.984 71.9241 137.119 71.9596L137.857 72.1585C138.047 72.2082 138.257 72.2768 138.489 72.3644C138.724 72.452 138.947 72.5716 139.16 72.7231C139.376 72.8722 139.553 73.064 139.693 73.2984C139.833 73.5328 139.903 73.8204 139.903 74.1613C139.903 74.5543 139.8 74.9094 139.594 75.2267C139.39 75.5439 139.092 75.796 138.699 75.983C138.308 76.1701 137.834 76.2636 137.275 76.2636C136.754 76.2636 136.303 76.1795 135.922 76.0115C135.543 75.8434 135.245 75.609 135.027 75.3083C134.811 75.0077 134.69 74.6585 134.661 74.2607H135.57C135.594 74.5354 135.686 74.7626 135.847 74.9426C136.011 75.1201 136.217 75.2527 136.465 75.3403C136.716 75.4255 136.986 75.4681 137.275 75.4681C137.611 75.4681 137.913 75.4137 138.18 75.3048C138.448 75.1935 138.66 75.0396 138.816 74.8431C138.972 74.6443 139.05 74.4123 139.05 74.1471C139.05 73.9056 138.983 73.7091 138.848 73.5576C138.713 73.4061 138.535 73.283 138.315 73.1883C138.095 73.0936 137.857 73.0107 137.601 72.9397L136.707 72.684C136.138 72.5207 135.689 72.2875 135.357 71.9845C135.026 71.6814 134.86 71.2849 134.86 70.7948C134.86 70.3876 134.97 70.0325 135.19 69.7295C135.413 69.4241 135.711 69.1874 136.085 69.0193C136.462 68.8488 136.882 68.7636 137.346 68.7636C137.815 68.7636 138.231 68.8476 138.596 69.0157C138.96 69.1814 139.249 69.4087 139.462 69.6975C139.678 69.9864 139.791 70.3142 139.803 70.6812H138.951Z" fill="#424242"/>
<g filter="url(#filter1_d_2246_3795)">
<path fill-rule="evenodd" clip-rule="evenodd" d="M194 31C194 36.3043 191.893 41.3914 188.142 45.1421C184.391 48.8929 179.304 51 174 51C168.696 51 163.609 48.8929 159.858 45.1421C156.107 41.3914 154 36.3043 154 31C154 25.6957 156.107 20.6086 159.858 16.8579C163.609 13.1071 168.696 11 174 11C179.304 11 184.391 13.1071 188.142 16.8579C191.893 20.6086 194 25.6957 194 31Z" fill="#F9F4FB" stroke="#AD38DE" stroke-width="2"/>
<path fill-rule="evenodd" clip-rule="evenodd" d="M180.445 28.8049C179.667 24.8805 177.708 22.8896 177.708 22.8896C176.255 21.7162 174.455 21.0558 172.588 21.0112C172.347 20.6094 171.981 20.2982 171.545 20.126C171.109 19.9538 170.628 19.9301 170.178 20.0586C169.727 20.1871 169.331 20.4606 169.052 20.8368C168.773 21.2129 168.625 21.6708 168.632 22.1393C167.124 23.1006 165.961 24.5158 165.31 26.181C165.31 26.181 164.595 28.877 165.874 32.6542C165.874 32.6542 167.966 37.6659 164.956 39.5292L165.328 40.9313L185.067 35.7306L184.695 34.3285C181.145 34.2089 180.445 28.8249 180.445 28.8249M176.987 42.8659C178.001 42.5706 178.87 41.9101 179.425 41.0119C179.98 40.1137 180.183 39.0415 179.994 38.0025L172.042 40.1985C172.38 41.1819 173.078 42.0003 173.996 42.4881C174.914 42.9759 175.984 43.0967 176.988 42.8259" fill="#AD38DE"/>
<path fill-rule="evenodd" clip-rule="evenodd" d="M176.988 42.8654C178.001 42.5701 178.87 41.9096 179.425 41.0114C179.981 40.1131 180.183 39.041 179.995 38.002L172.042 40.198C172.38 41.1814 173.078 41.9998 173.997 42.4876C174.915 42.9754 175.984 43.0962 176.988 42.8254" fill="#DF92FF"/>
<path fill-rule="evenodd" clip-rule="evenodd" d="M171.581 21.5889C171.632 21.7196 171.654 21.8594 171.647 21.9993C171.64 22.1392 171.604 22.2761 171.541 22.4011C171.477 22.5261 171.388 22.6363 171.28 22.7248C171.171 22.8132 171.045 22.8778 170.91 22.9144C170.775 22.9511 170.633 22.9589 170.495 22.9373C170.356 22.9158 170.224 22.8655 170.106 22.7895C169.989 22.7136 169.888 22.6137 169.811 22.4965C169.735 22.3792 169.684 22.2472 169.661 22.1089C169.622 21.8649 169.674 21.6148 169.808 21.4071C169.942 21.1994 170.148 21.0486 170.387 20.984C170.626 20.9194 170.88 20.9454 171.1 21.0571C171.321 21.1688 171.492 21.3583 171.581 21.5889Z" fill="#FAEBFF"/>
</g>
<defs>
<filter id="filter0_d_2246_3795" x="0" y="14.7998" width="190" height="168" filterUnits="userSpaceOnUse" color-interpolation-filters="sRGB">
<feFlood flood-opacity="0" result="BackgroundImageFix"/>
<feColorMatrix in="SourceAlpha" type="matrix" values="0 0 0 0 0 0 0 0 0 0 0 0 0 0 0 0 0 0 127 0" result="hardAlpha"/>
<feOffset/>
<feGaussianBlur stdDeviation="7"/>
<feColorMatrix type="matrix" values="0 0 0 0 0.0644816 0 0 0 0 0.156308 0 0 0 0 0.365645 0 0 0 0.321034 0"/>
<feBlend mode="normal" in2="BackgroundImageFix" result="effect1_dropShadow_2246_3795"/>
<feBlend mode="normal" in="SourceGraphic" in2="effect1_dropShadow_2246_3795" result="shape"/>
</filter>
<filter id="filter1_d_2246_3795" x="143" y="0" width="62" height="62" filterUnits="userSpaceOnUse" color-interpolation-filters="sRGB">
<feFlood flood-opacity="0" result="BackgroundImageFix"/>
<feColorMatrix in="SourceAlpha" type="matrix" values="0 0 0 0 0 0 0 0 0 0 0 0 0 0 0 0 0 0 127 0" result="hardAlpha"/>
<feOffset/>
<feGaussianBlur stdDeviation="5"/>
<feColorMatrix type="matrix" values="0 0 0 0 0.0627451 0 0 0 0 0.156863 0 0 0 0 0.364706 0 0 0 0.30033 0"/>
<feBlend mode="normal" in2="BackgroundImageFix" result="effect1_dropShadow_2246_3795"/>
<feBlend mode="normal" in="SourceGraphic" in2="effect1_dropShadow_2246_3795" result="shape"/>
</filter>
</defs>
</svg>
