
    <svg
      width="209"
      height="170"
      viewBox="0 0 209 170"
      fill="none"
      xmlns="http://www.w3.org/2000/svg"
    >
      <g filter="url(#filter0_d_2246_3825)">
        <path
          fill-rule="evenodd"
          clip-rule="evenodd"
          d="M174 155.25H18C16.4069 155.245 14.8808 154.608 13.7561 153.48C12.6315 152.351 12 150.823 12 149.23L12 33.8198C12 30.4998 14.7 27.7998 18.02 27.7998H173.99C177.32 27.7998 180.01 30.4998 180.01 33.8198V149.22C180.01 152.55 177.31 155.25 173.99 155.25"
          fill="white"
        />
      </g>
      <path
        d="M39.0227 108C38.929 107.713 38.8054 107.456 38.652 107.229C38.5014 106.999 38.321 106.803 38.1108 106.641C37.9034 106.479 37.6676 106.355 37.4034 106.27C37.1392 106.185 36.8494 106.142 36.5341 106.142C36.017 106.142 35.5469 106.276 35.1236 106.543C34.7003 106.81 34.3636 107.203 34.1136 107.723C33.8636 108.243 33.7386 108.881 33.7386 109.636C33.7386 110.392 33.8651 111.03 34.1179 111.55C34.3707 112.07 34.7131 112.463 35.1449 112.73C35.5767 112.997 36.0625 113.131 36.6023 113.131C37.1023 113.131 37.5426 113.024 37.9233 112.811C38.3068 112.595 38.6051 112.291 38.8182 111.899C39.0341 111.504 39.142 111.04 39.142 110.506L39.4659 110.574H36.8409V109.636H40.1648V110.574C40.1648 111.293 40.0114 111.918 39.7045 112.449C39.4006 112.98 38.9801 113.392 38.4432 113.685C37.9091 113.974 37.2955 114.119 36.6023 114.119C35.8295 114.119 35.1506 113.938 34.5653 113.574C33.983 113.21 33.5284 112.693 33.2017 112.023C32.8778 111.352 32.7159 110.557 32.7159 109.636C32.7159 108.946 32.8082 108.325 32.9929 107.774C33.1804 107.22 33.4446 106.749 33.7855 106.359C34.1264 105.97 34.5298 105.672 34.9957 105.464C35.4616 105.257 35.9744 105.153 36.5341 105.153C36.9943 105.153 37.4233 105.223 37.821 105.362C38.2216 105.499 38.5781 105.693 38.8906 105.946C39.206 106.196 39.4688 106.496 39.679 106.845C39.8892 107.192 40.0341 107.577 40.1136 108H39.0227ZM45.0627 114.136C44.4321 114.136 43.888 113.997 43.4306 113.719C42.9761 113.438 42.6252 113.045 42.3781 112.543C42.1338 112.037 42.0116 111.449 42.0116 110.778C42.0116 110.108 42.1338 109.517 42.3781 109.006C42.6252 108.491 42.969 108.091 43.4093 107.804C43.8525 107.514 44.3696 107.369 44.9605 107.369C45.3014 107.369 45.638 107.426 45.9704 107.54C46.3028 107.653 46.6054 107.838 46.8781 108.094C47.1508 108.347 47.3681 108.682 47.5301 109.099C47.692 109.517 47.773 110.031 47.773 110.642V111.068H42.7275V110.199H46.7502C46.7502 109.83 46.6764 109.5 46.5287 109.21C46.3838 108.92 46.1764 108.692 45.9065 108.524C45.6394 108.357 45.3241 108.273 44.9605 108.273C44.5599 108.273 44.2133 108.372 43.9207 108.571C43.6309 108.767 43.4079 109.023 43.2517 109.338C43.0954 109.653 43.0173 109.991 43.0173 110.352V110.932C43.0173 111.426 43.1025 111.845 43.273 112.189C43.4463 112.53 43.6863 112.79 43.9931 112.969C44.3 113.145 44.6565 113.233 45.0627 113.233C45.3269 113.233 45.5656 113.196 45.7787 113.122C45.9946 113.045 46.1806 112.932 46.3369 112.781C46.4931 112.628 46.6139 112.437 46.6991 112.21L47.6707 112.483C47.5684 112.812 47.3965 113.102 47.1551 113.352C46.9136 113.599 46.6153 113.793 46.2602 113.932C45.9051 114.068 45.5059 114.136 45.0627 114.136ZM52.6294 107.455V108.307H49.2373V107.455H52.6294ZM50.226 105.886H51.2317V112.125C51.2317 112.409 51.2729 112.622 51.3552 112.764C51.4405 112.903 51.5484 112.997 51.6791 113.045C51.8126 113.091 51.9533 113.114 52.101 113.114C52.2118 113.114 52.3027 113.108 52.3737 113.097C52.4447 113.082 52.5015 113.071 52.5442 113.062L52.7487 113.966C52.6805 113.991 52.5854 114.017 52.4632 114.043C52.341 114.071 52.1862 114.085 51.9987 114.085C51.7146 114.085 51.4362 114.024 51.1635 113.902C50.8936 113.78 50.6692 113.594 50.4902 113.344C50.314 113.094 50.226 112.778 50.226 112.398V105.886ZM61.3579 114.119C60.9999 114.114 60.6419 114.045 60.284 113.915C59.926 113.784 59.5993 113.564 59.3039 113.254C59.0084 112.942 58.7712 112.52 58.5922 111.989C58.4133 111.455 58.3238 110.784 58.3238 109.977C58.3238 109.205 58.3962 108.52 58.5411 107.923C58.686 107.324 58.8962 106.82 59.1718 106.411C59.4473 105.999 59.7797 105.686 60.1689 105.473C60.561 105.26 61.0027 105.153 61.4942 105.153C61.9829 105.153 62.4175 105.251 62.7982 105.447C63.1817 105.641 63.4942 105.911 63.7357 106.257C63.9772 106.604 64.1334 107.003 64.2044 107.455H63.1647C63.0681 107.062 62.8806 106.737 62.6022 106.479C62.3238 106.22 61.9544 106.091 61.4942 106.091C60.8181 106.091 60.2854 106.385 59.8962 106.973C59.5098 107.561 59.3152 108.386 59.3124 109.449H59.3806C59.5397 109.207 59.7286 109.001 59.9473 108.831C60.1689 108.658 60.4133 108.524 60.6803 108.43C60.9473 108.337 61.23 108.29 61.5283 108.29C62.0283 108.29 62.4857 108.415 62.9005 108.665C63.3152 108.912 63.6476 109.254 63.8976 109.692C64.1476 110.126 64.2726 110.625 64.2726 111.188C64.2726 111.727 64.1519 112.222 63.9104 112.67C63.6689 113.116 63.3294 113.472 62.8919 113.736C62.4573 113.997 61.9459 114.125 61.3579 114.119ZM61.3579 113.182C61.7158 113.182 62.0368 113.092 62.3209 112.913C62.6079 112.734 62.8337 112.494 62.9985 112.193C63.1661 111.892 63.2499 111.557 63.2499 111.188C63.2499 110.827 63.1689 110.499 63.007 110.203C62.8479 109.905 62.6277 109.668 62.3465 109.491C62.0681 109.315 61.7499 109.227 61.3919 109.227C61.1221 109.227 60.8706 109.281 60.6377 109.389C60.4047 109.494 60.2002 109.639 60.024 109.824C59.8508 110.009 59.7144 110.22 59.615 110.459C59.5155 110.695 59.4658 110.943 59.4658 111.205C59.4658 111.551 59.5468 111.875 59.7087 112.176C59.8735 112.477 60.0979 112.72 60.382 112.905C60.6689 113.089 60.9942 113.182 61.3579 113.182ZM69.275 114.119C68.633 114.119 68.0861 113.945 67.6344 113.595C67.1827 113.243 66.8375 112.733 66.5989 112.065C66.3602 111.395 66.2409 110.585 66.2409 109.636C66.2409 108.693 66.3602 107.888 66.5989 107.22C66.8403 106.55 67.1869 106.038 67.6386 105.686C68.0932 105.331 68.6386 105.153 69.275 105.153C69.9114 105.153 70.4554 105.331 70.9071 105.686C71.3616 106.038 71.7082 106.55 71.9469 107.22C72.1884 107.888 72.3091 108.693 72.3091 109.636C72.3091 110.585 72.1898 111.395 71.9511 112.065C71.7125 112.733 71.3673 113.243 70.9156 113.595C70.4639 113.945 69.917 114.119 69.275 114.119ZM69.275 113.182C69.9114 113.182 70.4057 112.875 70.758 112.261C71.1102 111.648 71.2864 110.773 71.2864 109.636C71.2864 108.881 71.2054 108.237 71.0435 107.706C70.8844 107.175 70.6543 106.77 70.3531 106.491C70.0548 106.213 69.6955 106.074 69.275 106.074C68.6443 106.074 68.1514 106.385 67.7963 107.007C67.4412 107.626 67.2636 108.503 67.2636 109.636C67.2636 110.392 67.3432 111.034 67.5023 111.562C67.6614 112.091 67.8901 112.493 68.1884 112.768C68.4895 113.044 68.8517 113.182 69.275 113.182ZM78.8573 112.364V111.903C78.8573 111.585 78.9226 111.294 79.0533 111.03C79.1868 110.763 79.38 110.55 79.6328 110.391C79.8885 110.229 80.1982 110.148 80.5618 110.148C80.9311 110.148 81.2408 110.229 81.4908 110.391C81.7408 110.55 81.9297 110.763 82.0576 111.03C82.1854 111.294 82.2493 111.585 82.2493 111.903V112.364C82.2493 112.682 82.184 112.974 82.0533 113.241C81.9255 113.506 81.7351 113.719 81.4823 113.881C81.2323 114.04 80.9255 114.119 80.5618 114.119C80.1925 114.119 79.8814 114.04 79.6286 113.881C79.3757 113.719 79.184 113.506 79.0533 113.241C78.9226 112.974 78.8573 112.682 78.8573 112.364ZM79.7266 111.903V112.364C79.7266 112.628 79.7891 112.865 79.9141 113.075C80.0391 113.283 80.255 113.386 80.5618 113.386C80.8601 113.386 81.0703 113.283 81.1925 113.075C81.3175 112.865 81.38 112.628 81.38 112.364V111.903C81.38 111.639 81.3203 111.403 81.201 111.196C81.0817 110.986 80.8686 110.881 80.5618 110.881C80.2635 110.881 80.049 110.986 79.9184 111.196C79.7905 111.403 79.7266 111.639 79.7266 111.903ZM74.5107 107.369V106.909C74.5107 106.591 74.576 106.3 74.7067 106.036C74.8402 105.768 75.0334 105.555 75.2863 105.396C75.5419 105.234 75.8516 105.153 76.2152 105.153C76.5845 105.153 76.8942 105.234 77.1442 105.396C77.3942 105.555 77.5831 105.768 77.711 106.036C77.8388 106.3 77.9027 106.591 77.9027 106.909V107.369C77.9027 107.687 77.8374 107.98 77.7067 108.247C77.5789 108.511 77.3885 108.724 77.1357 108.886C76.8857 109.045 76.5789 109.125 76.2152 109.125C75.8459 109.125 75.5348 109.045 75.282 108.886C75.0291 108.724 74.8374 108.511 74.7067 108.247C74.576 107.98 74.5107 107.687 74.5107 107.369ZM75.38 106.909V107.369C75.38 107.634 75.4425 107.871 75.5675 108.081C75.6925 108.288 75.9084 108.392 76.2152 108.392C76.5135 108.392 76.7238 108.288 76.8459 108.081C76.9709 107.871 77.0334 107.634 77.0334 107.369V106.909C77.0334 106.645 76.9738 106.409 76.8544 106.202C76.7351 105.991 76.522 105.886 76.2152 105.886C75.9169 105.886 75.7024 105.991 75.5718 106.202C75.4439 106.409 75.38 106.645 75.38 106.909ZM74.8345 114L80.8345 105.273H81.8061L75.8061 114H74.8345ZM91.1695 114.136C90.5786 114.136 90.0602 113.996 89.6141 113.714C89.171 113.433 88.8244 113.04 88.5744 112.534C88.3272 112.028 88.2036 111.437 88.2036 110.761C88.2036 110.08 88.3272 109.484 88.5744 108.976C88.8244 108.467 89.171 108.072 89.6141 107.791C90.0602 107.51 90.5786 107.369 91.1695 107.369C91.7605 107.369 92.2775 107.51 92.7207 107.791C93.1667 108.072 93.5133 108.467 93.7605 108.976C94.0105 109.484 94.1355 110.08 94.1355 110.761C94.1355 111.437 94.0105 112.028 93.7605 112.534C93.5133 113.04 93.1667 113.433 92.7207 113.714C92.2775 113.996 91.7605 114.136 91.1695 114.136ZM91.1695 113.233C91.6184 113.233 91.9877 113.118 92.2775 112.888C92.5673 112.658 92.7818 112.355 92.921 111.98C93.0602 111.605 93.1298 111.199 93.1298 110.761C93.1298 110.324 93.0602 109.916 92.921 109.538C92.7818 109.161 92.5673 108.855 92.2775 108.622C91.9877 108.389 91.6184 108.273 91.1695 108.273C90.7207 108.273 90.3514 108.389 90.0616 108.622C89.7718 108.855 89.5573 109.161 89.4181 109.538C89.2789 109.916 89.2093 110.324 89.2093 110.761C89.2093 111.199 89.2789 111.605 89.4181 111.98C89.5573 112.355 89.7718 112.658 90.0616 112.888C90.3514 113.118 90.7207 113.233 91.1695 113.233ZM99.0654 107.455V108.307H95.537V107.455H99.0654ZM96.5938 114V106.551C96.5938 106.176 96.6819 105.864 96.858 105.614C97.0341 105.364 97.2628 105.176 97.5441 105.051C97.8253 104.926 98.1222 104.864 98.4347 104.864C98.6819 104.864 98.8836 104.884 99.0398 104.923C99.1961 104.963 99.3125 105 99.3892 105.034L99.0995 105.903C99.0483 105.886 98.9773 105.865 98.8864 105.839C98.7983 105.814 98.6819 105.801 98.537 105.801C98.2046 105.801 97.9645 105.885 97.8168 106.053C97.6719 106.22 97.5995 106.466 97.5995 106.79V114H96.5938ZM103.87 107.455V108.307H100.341V107.455H103.87ZM101.398 114V106.551C101.398 106.176 101.486 105.864 101.662 105.614C101.838 105.364 102.067 105.176 102.348 105.051C102.63 104.926 102.926 104.864 103.239 104.864C103.486 104.864 103.688 104.884 103.844 104.923C104 104.963 104.117 105 104.193 105.034L103.904 105.903C103.853 105.886 103.782 105.865 103.691 105.839C103.603 105.814 103.486 105.801 103.341 105.801C103.009 105.801 102.769 105.885 102.621 106.053C102.476 106.22 102.404 106.466 102.404 106.79V114H101.398ZM112.273 114.136C111.682 114.136 111.164 113.996 110.718 113.714C110.275 113.433 109.928 113.04 109.678 112.534C109.431 112.028 109.307 111.437 109.307 110.761C109.307 110.08 109.431 109.484 109.678 108.976C109.928 108.467 110.275 108.072 110.718 107.791C111.164 107.51 111.682 107.369 112.273 107.369C112.864 107.369 113.381 107.51 113.824 107.791C114.27 108.072 114.617 108.467 114.864 108.976C115.114 109.484 115.239 110.08 115.239 110.761C115.239 111.437 115.114 112.028 114.864 112.534C114.617 113.04 114.27 113.433 113.824 113.714C113.381 113.996 112.864 114.136 112.273 114.136ZM112.273 113.233C112.722 113.233 113.091 113.118 113.381 112.888C113.671 112.658 113.885 112.355 114.025 111.98C114.164 111.605 114.233 111.199 114.233 110.761C114.233 110.324 114.164 109.916 114.025 109.538C113.885 109.161 113.671 108.855 113.381 108.622C113.091 108.389 112.722 108.273 112.273 108.273C111.824 108.273 111.455 108.389 111.165 108.622C110.875 108.855 110.661 109.161 110.522 109.538C110.383 109.916 110.313 110.324 110.313 110.761C110.313 111.199 110.383 111.605 110.522 111.98C110.661 112.355 110.875 112.658 111.165 112.888C111.455 113.118 111.824 113.233 112.273 113.233ZM118.26 110.062V114H117.254V107.455H118.226V108.477H118.311C118.464 108.145 118.697 107.878 119.01 107.676C119.322 107.472 119.726 107.369 120.22 107.369C120.663 107.369 121.051 107.46 121.383 107.642C121.716 107.821 121.974 108.094 122.159 108.46C122.344 108.824 122.436 109.284 122.436 109.841V114H121.43V109.909C121.43 109.395 121.297 108.994 121.03 108.707C120.763 108.418 120.396 108.273 119.93 108.273C119.609 108.273 119.322 108.342 119.07 108.482C118.82 108.621 118.622 108.824 118.477 109.091C118.332 109.358 118.26 109.682 118.26 110.062ZM129.256 116.455C129.086 116.455 128.934 116.44 128.8 116.412C128.667 116.386 128.575 116.361 128.524 116.335L128.779 115.449C129.024 115.511 129.239 115.534 129.427 115.517C129.614 115.5 129.781 115.416 129.925 115.266C130.073 115.118 130.208 114.878 130.33 114.545L130.518 114.034L128.097 107.455H129.188L130.995 112.67H131.063L132.87 107.455H133.961L131.183 114.955C131.058 115.293 130.903 115.572 130.718 115.794C130.533 116.018 130.319 116.185 130.075 116.293C129.833 116.401 129.56 116.455 129.256 116.455ZM138.193 114.136C137.602 114.136 137.084 113.996 136.638 113.714C136.195 113.433 135.848 113.04 135.598 112.534C135.351 112.028 135.227 111.437 135.227 110.761C135.227 110.08 135.351 109.484 135.598 108.976C135.848 108.467 136.195 108.072 136.638 107.791C137.084 107.51 137.602 107.369 138.193 107.369C138.784 107.369 139.301 107.51 139.744 107.791C140.19 108.072 140.537 108.467 140.784 108.976C141.034 109.484 141.159 110.08 141.159 110.761C141.159 111.437 141.034 112.028 140.784 112.534C140.537 113.04 140.19 113.433 139.744 113.714C139.301 113.996 138.784 114.136 138.193 114.136ZM138.193 113.233C138.642 113.233 139.011 113.118 139.301 112.888C139.591 112.658 139.805 112.355 139.945 111.98C140.084 111.605 140.153 111.199 140.153 110.761C140.153 110.324 140.084 109.916 139.945 109.538C139.805 109.161 139.591 108.855 139.301 108.622C139.011 108.389 138.642 108.273 138.193 108.273C137.744 108.273 137.375 108.389 137.085 108.622C136.795 108.855 136.581 109.161 136.442 109.538C136.303 109.916 136.233 110.324 136.233 110.761C136.233 111.199 136.303 111.605 136.442 111.98C136.581 112.355 136.795 112.658 137.085 112.888C137.375 113.118 137.744 113.233 138.193 113.233ZM147.299 111.324V107.455H148.305V114H147.299V112.892H147.231C147.078 113.224 146.839 113.507 146.515 113.74C146.191 113.97 145.782 114.085 145.288 114.085C144.879 114.085 144.515 113.996 144.197 113.817C143.879 113.635 143.629 113.362 143.447 112.999C143.265 112.632 143.174 112.17 143.174 111.614V107.455H144.18V111.545C144.18 112.023 144.313 112.403 144.58 112.688C144.85 112.972 145.194 113.114 145.612 113.114C145.862 113.114 146.116 113.05 146.374 112.922C146.636 112.794 146.855 112.598 147.031 112.334C147.21 112.07 147.299 111.733 147.299 111.324ZM150.627 114V107.455H151.598V108.443H151.667C151.786 108.119 152.002 107.857 152.314 107.655C152.627 107.453 152.979 107.352 153.371 107.352C153.445 107.352 153.537 107.354 153.648 107.357C153.759 107.359 153.843 107.364 153.9 107.369V108.392C153.865 108.384 153.787 108.371 153.665 108.354C153.546 108.334 153.419 108.324 153.286 108.324C152.968 108.324 152.684 108.391 152.434 108.524C152.187 108.655 151.99 108.837 151.846 109.07C151.704 109.3 151.633 109.562 151.633 109.858V114H150.627ZM32.9205 136.455V127.455H33.892V128.494H34.0114C34.0852 128.381 34.1875 128.236 34.3182 128.06C34.4517 127.881 34.642 127.722 34.8892 127.582C35.1392 127.44 35.4773 127.369 35.9034 127.369C36.4545 127.369 36.9403 127.507 37.3608 127.783C37.7813 128.058 38.1094 128.449 38.3452 128.955C38.581 129.46 38.6989 130.057 38.6989 130.744C38.6989 131.438 38.581 132.038 38.3452 132.547C38.1094 133.053 37.7827 133.445 37.3651 133.723C36.9474 133.999 36.4659 134.136 35.9205 134.136C35.5 134.136 35.1634 134.067 34.9105 133.928C34.6577 133.786 34.4631 133.625 34.3267 133.446C34.1903 133.264 34.0852 133.114 34.0114 132.994H33.9261V136.455H32.9205ZM33.9091 130.727C33.9091 131.222 33.9815 131.658 34.1264 132.036C34.2713 132.411 34.483 132.705 34.7614 132.918C35.0398 133.128 35.3807 133.233 35.7841 133.233C36.2045 133.233 36.5554 133.122 36.8366 132.901C37.1207 132.676 37.3338 132.375 37.4759 131.997C37.6207 131.616 37.6932 131.193 37.6932 130.727C37.6932 130.267 37.6222 129.852 37.4801 129.483C37.3409 129.111 37.1293 128.817 36.8452 128.601C36.5639 128.382 36.2102 128.273 35.7841 128.273C35.375 128.273 35.0313 128.376 34.7528 128.584C34.4744 128.788 34.2642 129.075 34.1222 129.445C33.9801 129.811 33.9091 130.239 33.9091 130.727ZM44.838 131.324V127.455H45.8436V134H44.838V132.892H44.7698C44.6164 133.224 44.3777 133.507 44.0539 133.74C43.73 133.97 43.3209 134.085 42.8266 134.085C42.4175 134.085 42.0539 133.996 41.7357 133.817C41.4175 133.635 41.1675 133.362 40.9857 132.999C40.8039 132.632 40.713 132.17 40.713 131.614V127.455H41.7186V131.545C41.7186 132.023 41.8522 132.403 42.1192 132.688C42.3891 132.972 42.7328 133.114 43.1505 133.114C43.4005 133.114 43.6547 133.05 43.9132 132.922C44.1746 132.794 44.3934 132.598 44.5695 132.334C44.7485 132.07 44.838 131.733 44.838 131.324ZM48.1656 134V127.455H49.1372V128.443H49.2054C49.3247 128.119 49.5406 127.857 49.8531 127.655C50.1656 127.453 50.5179 127.352 50.9099 127.352C50.9838 127.352 51.0761 127.354 51.1869 127.357C51.2977 127.359 51.3815 127.364 51.4383 127.369V128.392C51.4042 128.384 51.3261 128.371 51.204 128.354C51.0846 128.334 50.9582 128.324 50.8247 128.324C50.5065 128.324 50.2224 128.391 49.9724 128.524C49.7253 128.655 49.5292 128.837 49.3844 129.07C49.2423 129.3 49.1713 129.562 49.1713 129.858V134H48.1656ZM55.5703 134.136C54.9567 134.136 54.4283 133.991 53.9851 133.702C53.5419 133.412 53.201 133.013 52.9624 132.504C52.7237 131.996 52.6044 131.415 52.6044 130.761C52.6044 130.097 52.7266 129.51 52.9709 129.001C53.2181 128.49 53.5618 128.091 54.0021 127.804C54.4453 127.514 54.9624 127.369 55.5533 127.369C56.0135 127.369 56.4283 127.455 56.7976 127.625C57.1669 127.795 57.4695 128.034 57.7053 128.341C57.9411 128.648 58.0874 129.006 58.1442 129.415H57.1385C57.0618 129.116 56.8914 128.852 56.6271 128.622C56.3658 128.389 56.0135 128.273 55.5703 128.273C55.1783 128.273 54.8345 128.375 54.5391 128.58C54.2465 128.781 54.0178 129.067 53.853 129.436C53.6911 129.803 53.6101 130.233 53.6101 130.727C53.6101 131.233 53.6896 131.673 53.8487 132.048C54.0107 132.423 54.2379 132.714 54.5306 132.922C54.826 133.129 55.1726 133.233 55.5703 133.233C55.8317 133.233 56.0689 133.188 56.282 133.097C56.495 133.006 56.6754 132.875 56.8232 132.705C56.9709 132.534 57.076 132.33 57.1385 132.091H58.1442C58.0874 132.477 57.9467 132.825 57.7223 133.135C57.5007 133.442 57.2067 133.686 56.8402 133.868C56.4766 134.047 56.0533 134.136 55.5703 134.136ZM61.1 130.062V134H60.0944V125.273H61.1V128.477H61.1853C61.3387 128.139 61.5688 127.871 61.8756 127.672C62.1853 127.47 62.5972 127.369 63.1114 127.369C63.5574 127.369 63.9481 127.459 64.2833 127.638C64.6185 127.814 64.8785 128.085 65.0631 128.452C65.2506 128.815 65.3444 129.278 65.3444 129.841V134H64.3387V129.909C64.3387 129.389 64.2037 128.987 63.9338 128.703C63.6668 128.416 63.2961 128.273 62.8216 128.273C62.4921 128.273 62.1966 128.342 61.9353 128.482C61.6767 128.621 61.4722 128.824 61.3216 129.091C61.1739 129.358 61.1 129.682 61.1 130.062ZM69.5903 134.153C69.1756 134.153 68.7991 134.075 68.4611 133.919C68.123 133.76 67.8545 133.531 67.6557 133.233C67.4568 132.932 67.3574 132.568 67.3574 132.142C67.3574 131.767 67.4313 131.463 67.579 131.23C67.7267 130.994 67.9241 130.81 68.1713 130.676C68.4185 130.543 68.6912 130.443 68.9895 130.378C69.2906 130.31 69.5932 130.256 69.8972 130.216C70.2949 130.165 70.6173 130.126 70.8645 130.101C71.1145 130.072 71.2963 130.026 71.4099 129.96C71.5264 129.895 71.5847 129.781 71.5847 129.619V129.585C71.5847 129.165 71.4696 128.838 71.2395 128.605C71.0122 128.372 70.667 128.256 70.204 128.256C69.7239 128.256 69.3474 128.361 69.0747 128.571C68.802 128.781 68.6102 129.006 68.4994 129.244L67.5449 128.903C67.7153 128.506 67.9426 128.196 68.2267 127.974C68.5136 127.75 68.8261 127.594 69.1642 127.506C69.5051 127.415 69.8403 127.369 70.1699 127.369C70.3801 127.369 70.6216 127.395 70.8943 127.446C71.1699 127.494 71.4355 127.595 71.6912 127.749C71.9497 127.902 72.1642 128.134 72.3347 128.443C72.5051 128.753 72.5903 129.168 72.5903 129.688V134H71.5847V133.114H71.5335C71.4653 133.256 71.3517 133.408 71.1926 133.57C71.0335 133.732 70.8219 133.869 70.5577 133.983C70.2935 134.097 69.971 134.153 69.5903 134.153ZM69.7438 133.25C70.1415 133.25 70.4767 133.172 70.7494 133.016C71.025 132.859 71.2324 132.658 71.3716 132.411C71.5136 132.163 71.5847 131.903 71.5847 131.631V130.71C71.542 130.761 71.4483 130.808 71.3034 130.851C71.1614 130.891 70.9966 130.926 70.8091 130.957C70.6244 130.986 70.444 131.011 70.2679 131.034C70.0946 131.054 69.954 131.071 69.846 131.085C69.5847 131.119 69.3403 131.175 69.1131 131.251C68.8886 131.325 68.7068 131.437 68.5676 131.588C68.4313 131.736 68.3631 131.937 68.3631 132.193C68.3631 132.543 68.4923 132.807 68.7509 132.986C69.0122 133.162 69.3432 133.25 69.7438 133.25ZM79.5423 128.92L78.6389 129.176C78.5821 129.026 78.4983 128.879 78.3875 128.737C78.2795 128.592 78.1318 128.473 77.9443 128.379C77.7568 128.286 77.5167 128.239 77.2241 128.239C76.8235 128.239 76.4897 128.331 76.2227 128.516C75.9585 128.697 75.8264 128.929 75.8264 129.21C75.8264 129.46 75.9173 129.658 76.0991 129.803C76.2809 129.947 76.565 130.068 76.9514 130.165L77.923 130.403C78.5082 130.545 78.9443 130.763 79.2312 131.055C79.5181 131.345 79.6616 131.719 79.6616 132.176C79.6616 132.551 79.5537 132.886 79.3377 133.182C79.1247 133.477 78.8264 133.71 78.4429 133.881C78.0593 134.051 77.6133 134.136 77.1048 134.136C76.4372 134.136 75.8846 133.991 75.4471 133.702C75.0096 133.412 74.7326 132.989 74.6162 132.432L75.5707 132.193C75.6616 132.545 75.8335 132.81 76.0863 132.986C76.342 133.162 76.6758 133.25 77.0877 133.25C77.5565 133.25 77.9287 133.151 78.2042 132.952C78.4826 132.75 78.6218 132.509 78.6218 132.227C78.6218 132 78.5423 131.81 78.3832 131.656C78.2241 131.5 77.9798 131.384 77.6502 131.307L76.5593 131.051C75.9599 130.909 75.5196 130.689 75.2383 130.391C74.9599 130.089 74.8207 129.713 74.8207 129.261C74.8207 128.892 74.9244 128.565 75.1318 128.281C75.342 127.997 75.6275 127.774 75.9883 127.612C76.3519 127.45 76.7639 127.369 77.2241 127.369C77.8718 127.369 78.3804 127.511 78.7497 127.795C79.1218 128.08 79.386 128.455 79.5423 128.92ZM84.3998 134.136C83.7691 134.136 83.2251 133.997 82.7677 133.719C82.3131 133.438 81.9623 133.045 81.7151 132.543C81.4708 132.037 81.3486 131.449 81.3486 130.778C81.3486 130.108 81.4708 129.517 81.7151 129.006C81.9623 128.491 82.306 128.091 82.7464 127.804C83.1895 127.514 83.7066 127.369 84.2975 127.369C84.6384 127.369 84.9751 127.426 85.3074 127.54C85.6398 127.653 85.9424 127.838 86.2151 128.094C86.4878 128.347 86.7052 128.682 86.8671 129.099C87.029 129.517 87.11 130.031 87.11 130.642V131.068H82.0645V130.199H86.0873C86.0873 129.83 86.0134 129.5 85.8657 129.21C85.7208 128.92 85.5134 128.692 85.2435 128.524C84.9765 128.357 84.6611 128.273 84.2975 128.273C83.8969 128.273 83.5503 128.372 83.2577 128.571C82.968 128.767 82.7449 129.023 82.5887 129.338C82.4324 129.653 82.3543 129.991 82.3543 130.352V130.932C82.3543 131.426 82.4395 131.845 82.61 132.189C82.7833 132.53 83.0234 132.79 83.3302 132.969C83.637 133.145 83.9935 133.233 84.3998 133.233C84.664 133.233 84.9026 133.196 85.1157 133.122C85.3316 133.045 85.5177 132.932 85.6739 132.781C85.8302 132.628 85.9509 132.437 86.0361 132.21L87.0077 132.483C86.9055 132.812 86.7336 133.102 86.4921 133.352C86.2506 133.599 85.9523 133.793 85.5972 133.932C85.2421 134.068 84.843 134.136 84.3998 134.136ZM89.8528 134.068C89.6426 134.068 89.4622 133.993 89.3116 133.842C89.161 133.692 89.0857 133.511 89.0857 133.301C89.0857 133.091 89.161 132.911 89.3116 132.76C89.4622 132.609 89.6426 132.534 89.8528 132.534C90.063 132.534 90.2434 132.609 90.394 132.76C90.5445 132.911 90.6198 133.091 90.6198 133.301C90.6198 133.44 90.5843 133.568 90.5133 133.685C90.4451 133.801 90.3528 133.895 90.2363 133.966C90.1227 134.034 89.9948 134.068 89.8528 134.068Z"
        fill="#5887A7"
      />
      <path
        fill-rule="evenodd"
        clip-rule="evenodd"
        d="M180.01 87.2496H12V33.6796C12.0026 32.1218 12.6233 30.6288 13.7257 29.5283C14.8282 28.4277 16.3223 27.8096 17.88 27.8096H174.13C175.688 27.8096 177.182 28.4277 178.284 29.5283C179.387 30.6288 180.007 32.1218 180.01 33.6796V87.2496Z"
        fill="#AEE9FC"
      />
      <g filter="url(#filter1_d_2246_3825)">
        <path
          d="M158 31C158 36.3043 160.107 41.3914 163.858 45.1421C167.609 48.8929 172.696 51 178 51C183.304 51 188.391 48.8929 192.142 45.1421C195.893 41.3914 198 36.3043 198 31C198 25.6957 195.893 20.6086 192.142 16.8579C188.391 13.1071 183.304 11 178 11C172.696 11 167.609 13.1071 163.858 16.8579C160.107 20.6086 158 25.6957 158 31V31Z"
          fill="#E8FDFF"
          stroke="#00DCFF"
          stroke-width="2"
        />
        <mask
          id="mask0_2246_3825"
          style="mask-type:luminance"
          maskUnits="userSpaceOnUse"
          x="166"
          y="24"
          width="23"
          height="18"
        >
          <path
            d="M187.29 24.0001H166.72C166.32 24.0001 166.02 24.3101 166 24.7001V37.6001C166 37.7901 166.08 37.9701 166.2 38.1001C166.35 38.2401 166.53 38.3101 166.7 38.3001H175.3L175.33 41.3001C175.35 41.5601 175.49 41.8001 175.71 41.9201C175.819 41.977 175.941 42.0042 176.064 41.999C176.187 41.9937 176.306 41.9561 176.41 41.8901L181.49 38.3101H187.29C187.49 38.3101 187.67 38.2401 187.79 38.1101C187.859 38.0439 187.913 37.9647 187.951 37.8771C187.989 37.7896 188.009 37.6954 188.01 37.6001V24.7001C188.008 24.5144 187.936 24.3362 187.81 24.2001C187.744 24.1354 187.666 24.0844 187.58 24.0501C187.494 24.0157 187.402 23.9987 187.31 24.0001H187.29Z"
            fill="white"
          />
        </mask>
        <g mask="url(#mask0_2246_3825)">
          <path
            fill-rule="evenodd"
            clip-rule="evenodd"
            d="M161.16 46.8299H192.84V19.1699H161.16V46.8299Z"
            fill="#00DCFF"
          />
        </g>
        <path
          fill-rule="evenodd"
          clip-rule="evenodd"
          d="M170 30H184V28H170V30Z"
          fill="#CBFBFF"
        />
        <path
          fill-rule="evenodd"
          clip-rule="evenodd"
          d="M170 30H184V28H170V30Z"
          fill="#CBFBFF"
        />
        <path
          fill-rule="evenodd"
          clip-rule="evenodd"
          d="M170 30H184V28H170V30ZM170 34H184V32H170V34Z"
          fill="#A4F8FF"
        />
        <path
          fill-rule="evenodd"
          clip-rule="evenodd"
          d="M170 34H184V32H170V34Z"
          fill="#CBFBFF"
        />
        <path
          fill-rule="evenodd"
          clip-rule="evenodd"
          d="M170 34H184V32H170V34Z"
          fill="#A4F8FF"
        />
      </g>
      <path
        d="M34.0501 45.9812V44.5455H41.5935V45.9812H38.6712V54H36.9724V45.9812H34.0501ZM45.6047 54.1385C44.8937 54.1385 44.2797 53.9908 43.7627 53.6953C43.2487 53.3968 42.8532 52.9751 42.5763 52.4304C42.2993 51.8826 42.1608 51.2378 42.1608 50.4961C42.1608 49.7667 42.2993 49.1265 42.5763 48.5756C42.8563 48.0217 43.2472 47.5908 43.7488 47.283C44.2505 46.9722 44.8399 46.8168 45.517 46.8168C45.954 46.8168 46.3664 46.8875 46.7542 47.0291C47.145 47.1676 47.4897 47.383 47.7883 47.6754C48.0899 47.9678 48.3268 48.3402 48.4992 48.7926C48.6715 49.242 48.7577 49.7775 48.7577 50.3991V50.9116H42.9456V49.7852H47.1558C47.1527 49.4651 47.0835 49.1804 46.9481 48.9311C46.8126 48.6787 46.6234 48.4802 46.3802 48.3356C46.1402 48.1909 45.8601 48.1186 45.54 48.1186C45.1984 48.1186 44.8983 48.2017 44.6398 48.3679C44.3813 48.531 44.1797 48.7464 44.0351 49.0142C43.8935 49.2789 43.8212 49.5697 43.8181 49.8867V50.87C43.8181 51.2824 43.8935 51.6364 44.0443 51.9318C44.1951 52.2242 44.4059 52.4489 44.6768 52.6058C44.9476 52.7597 45.2646 52.8366 45.6277 52.8366C45.8709 52.8366 46.0909 52.8028 46.2879 52.7351C46.4849 52.6643 46.6557 52.5612 46.8003 52.4258C46.945 52.2904 47.0542 52.1226 47.1281 51.9226L48.6885 52.098C48.59 52.5104 48.4023 52.8705 48.1253 53.1783C47.8514 53.483 47.5005 53.7199 47.0727 53.8892C46.6449 54.0554 46.1556 54.1385 45.6047 54.1385ZM51.9056 46.9091L53.3368 49.5266L54.7909 46.9091H56.5591L54.4216 50.4545L56.596 54H54.8371L53.3368 51.4471L51.8503 54H50.0775L52.238 50.4545L50.1329 46.9091H51.9056ZM61.9125 46.9091V48.2017H57.8362V46.9091H61.9125ZM58.8426 45.2102H60.5137V51.8672C60.5137 52.0919 60.5476 52.2642 60.6153 52.3842C60.6861 52.5012 60.7784 52.5812 60.8923 52.6243C61.0061 52.6674 61.1323 52.6889 61.2708 52.6889C61.3755 52.6889 61.4709 52.6812 61.557 52.6658C61.6463 52.6504 61.714 52.6366 61.7602 52.6243L62.0418 53.9308C61.9525 53.9615 61.8248 53.9954 61.6586 54.0323C61.4955 54.0692 61.2954 54.0908 61.0585 54.0969C60.6399 54.1093 60.2629 54.0462 59.9274 53.9077C59.592 53.7661 59.3257 53.5476 59.1288 53.2521C58.9349 52.9567 58.8395 52.5874 58.8426 52.1442V45.2102ZM67.6486 44.5455H69.7445L72.5513 51.3963H72.6621L75.4689 44.5455H77.5648V54H75.9213V47.5046H75.8336L73.2207 53.9723H71.9927L69.3798 47.4908H69.2921V54H67.6486V44.5455ZM81.9165 54.1431C81.4672 54.1431 81.0624 54.0631 80.7024 53.9031C80.3453 53.7399 80.0622 53.4999 79.8529 53.1829C79.6467 52.8659 79.5436 52.475 79.5436 52.0103C79.5436 51.6102 79.6175 51.2794 79.7652 51.0178C79.9129 50.7562 80.1145 50.5469 80.37 50.3899C80.6254 50.233 80.9132 50.1145 81.2333 50.0344C81.5564 49.9513 81.8903 49.8913 82.235 49.8544C82.6505 49.8113 82.9875 49.7728 83.246 49.739C83.5046 49.7021 83.6923 49.6467 83.8092 49.5728C83.9293 49.4959 83.9893 49.3774 83.9893 49.2173V49.1896C83.9893 48.8419 83.8862 48.5726 83.68 48.3817C83.4738 48.1909 83.1768 48.0955 82.789 48.0955C82.3797 48.0955 82.055 48.1848 81.8149 48.3633C81.5779 48.5418 81.4179 48.7526 81.3348 48.9957L79.7744 48.7741C79.8975 48.3433 80.1007 47.9832 80.3838 47.6939C80.667 47.4015 81.0132 47.183 81.4225 47.0384C81.8319 46.8906 82.2843 46.8168 82.7798 46.8168C83.1214 46.8168 83.4615 46.8568 83.8 46.9368C84.1386 47.0168 84.4479 47.1491 84.7279 47.3338C85.008 47.5154 85.2327 47.7631 85.4019 48.0771C85.5743 48.391 85.6605 48.7834 85.6605 49.2543V54H84.0539V53.0259H83.9985C83.897 53.2229 83.7538 53.4076 83.5692 53.5799C83.3876 53.7492 83.1583 53.8861 82.8813 53.9908C82.6074 54.0923 82.2858 54.1431 81.9165 54.1431ZM82.3504 52.9151C82.6859 52.9151 82.9767 52.849 83.223 52.7166C83.4692 52.5812 83.6584 52.4027 83.7908 52.1811C83.9262 51.9595 83.9939 51.7179 83.9939 51.4563V50.6207C83.9416 50.6638 83.8523 50.7038 83.7261 50.7408C83.603 50.7777 83.4645 50.81 83.3107 50.8377C83.1568 50.8654 83.0044 50.89 82.8536 50.9116C82.7028 50.9331 82.572 50.9516 82.4612 50.967C82.2119 51.0008 81.9888 51.0562 81.7918 51.1332C81.5949 51.2101 81.4395 51.3178 81.3256 51.4563C81.2117 51.5917 81.1548 51.7672 81.1548 51.9826C81.1548 52.2904 81.2671 52.5227 81.4918 52.6797C81.7164 52.8366 82.0027 52.9151 82.3504 52.9151ZM87.8609 54V46.9091H89.4812V48.0909H89.5551C89.6844 47.6816 89.906 47.3661 90.2199 47.1445C90.5369 46.9199 90.8985 46.8075 91.3047 46.8075C91.3971 46.8075 91.5002 46.8121 91.614 46.8214C91.731 46.8275 91.8279 46.8383 91.9049 46.8537V48.391C91.8341 48.3664 91.7218 48.3448 91.5679 48.3263C91.4171 48.3048 91.2709 48.294 91.1293 48.294C90.8246 48.294 90.5507 48.3602 90.3076 48.4925C90.0675 48.6218 89.8783 48.8018 89.7398 49.0327C89.6013 49.2635 89.532 49.5297 89.532 49.8313V54H87.8609ZM95.0586 51.7749L95.054 49.7575H95.3217L97.87 46.9091H99.8228L96.6882 50.3991H96.342L95.0586 51.7749ZM93.5351 54V44.5455H95.2063V54H93.5351ZM97.9854 54L95.6772 50.7731L96.8036 49.5959L99.9844 54H97.9854ZM104.304 54.1385C103.593 54.1385 102.979 53.9908 102.462 53.6953C101.948 53.3968 101.552 52.9751 101.275 52.4304C100.998 51.8826 100.86 51.2378 100.86 50.4961C100.86 49.7667 100.998 49.1265 101.275 48.5756C101.555 48.0217 101.946 47.5908 102.448 47.283C102.95 46.9722 103.539 46.8168 104.216 46.8168C104.653 46.8168 105.065 46.8875 105.453 47.0291C105.844 47.1676 106.189 47.383 106.487 47.6754C106.789 47.9678 107.026 48.3402 107.198 48.7926C107.371 49.242 107.457 49.7775 107.457 50.3991V50.9116H101.645V49.7852H105.855C105.852 49.4651 105.783 49.1804 105.647 48.9311C105.512 48.6787 105.322 48.4802 105.079 48.3356C104.839 48.1909 104.559 48.1186 104.239 48.1186C103.897 48.1186 103.597 48.2017 103.339 48.3679C103.08 48.531 102.879 48.7464 102.734 49.0142C102.593 49.2789 102.52 49.5697 102.517 49.8867V50.87C102.517 51.2824 102.593 51.6364 102.743 51.9318C102.894 52.2242 103.105 52.4489 103.376 52.6058C103.647 52.7597 103.964 52.8366 104.327 52.8366C104.57 52.8366 104.79 52.8028 104.987 52.7351C105.184 52.6643 105.355 52.5612 105.499 52.4258C105.644 52.2904 105.753 52.1226 105.827 51.9226L107.388 52.098C107.289 52.5104 107.101 52.8705 106.824 53.1783C106.55 53.483 106.2 53.7199 105.772 53.8892C105.344 54.0554 104.855 54.1385 104.304 54.1385ZM112.931 46.9091V48.2017H108.855V46.9091H112.931ZM109.861 45.2102H111.533V51.8672C111.533 52.0919 111.566 52.2642 111.634 52.3842C111.705 52.5012 111.797 52.5812 111.911 52.6243C112.025 52.6674 112.151 52.6889 112.29 52.6889C112.394 52.6889 112.49 52.6812 112.576 52.6658C112.665 52.6504 112.733 52.6366 112.779 52.6243L113.061 53.9308C112.971 53.9615 112.844 53.9954 112.678 54.0323C112.514 54.0692 112.314 54.0908 112.077 54.0969C111.659 54.1093 111.282 54.0462 110.946 53.9077C110.611 53.7661 110.345 53.5476 110.148 53.2521C109.954 52.9567 109.858 52.5874 109.861 52.1442V45.2102ZM114.849 54V46.9091H116.52V54H114.849ZM115.689 45.9027C115.425 45.9027 115.197 45.815 115.006 45.6396C114.815 45.4611 114.72 45.2472 114.72 44.9979C114.72 44.7455 114.815 44.5316 115.006 44.3562C115.197 44.1777 115.425 44.0884 115.689 44.0884C115.957 44.0884 116.185 44.1777 116.372 44.3562C116.563 44.5316 116.659 44.7455 116.659 44.9979C116.659 45.2472 116.563 45.4611 116.372 45.6396C116.185 45.815 115.957 45.9027 115.689 45.9027ZM120.43 49.8452V54H118.759V46.9091H120.356V48.114H120.439C120.602 47.717 120.862 47.4015 121.219 47.1676C121.579 46.9337 122.024 46.8168 122.553 46.8168C123.043 46.8168 123.469 46.9214 123.832 47.1307C124.198 47.34 124.482 47.6431 124.682 48.0401C124.885 48.4371 124.985 48.9188 124.982 49.4851V54H123.311V49.7436C123.311 49.2696 123.187 48.8988 122.941 48.631C122.698 48.3633 122.361 48.2294 121.93 48.2294C121.638 48.2294 121.378 48.294 121.15 48.4233C120.925 48.5495 120.748 48.7326 120.619 48.9727C120.493 49.2127 120.43 49.5036 120.43 49.8452ZM130.284 56.8068C129.684 56.8068 129.169 56.7253 128.738 56.5621C128.307 56.4021 127.961 56.1867 127.699 55.9158C127.438 55.645 127.256 55.3449 127.154 55.0156L128.659 54.6509C128.727 54.7894 128.826 54.9264 128.955 55.0618C129.084 55.2003 129.258 55.3142 129.477 55.4034C129.698 55.4957 129.977 55.5419 130.312 55.5419C130.786 55.5419 131.178 55.4265 131.489 55.1957C131.8 54.9679 131.956 54.5924 131.956 54.0692V52.7259H131.872C131.786 52.8982 131.66 53.0752 131.494 53.2567C131.331 53.4383 131.114 53.5907 130.843 53.7138C130.575 53.8369 130.238 53.8984 129.832 53.8984C129.287 53.8984 128.793 53.7707 128.35 53.5153C127.91 53.2567 127.559 52.872 127.298 52.3612C127.039 51.8472 126.91 51.204 126.91 50.4315C126.91 49.6528 127.039 48.9957 127.298 48.4602C127.559 47.9216 127.912 47.5138 128.355 47.2369C128.798 46.9568 129.292 46.8168 129.837 46.8168C130.252 46.8168 130.594 46.8875 130.861 47.0291C131.132 47.1676 131.348 47.3353 131.508 47.5323C131.668 47.7262 131.789 47.9093 131.872 48.0817H131.965V46.9091H133.613V54.1154C133.613 54.7217 133.468 55.2234 133.179 55.6204C132.89 56.0174 132.494 56.3144 131.992 56.5114C131.491 56.7083 130.921 56.8068 130.284 56.8068ZM130.298 52.5874C130.652 52.5874 130.954 52.5012 131.203 52.3288C131.452 52.1565 131.642 51.9087 131.771 51.5856C131.9 51.2624 131.965 50.8746 131.965 50.4222C131.965 49.976 131.9 49.5851 131.771 49.2496C131.645 48.9142 131.457 48.6541 131.208 48.4695C130.961 48.2817 130.658 48.1879 130.298 48.1879C129.926 48.1879 129.615 48.2848 129.366 48.4787C129.116 48.6726 128.929 48.9388 128.803 49.2773C128.676 49.6128 128.613 49.9944 128.613 50.4222C128.613 50.8562 128.676 51.2363 128.803 51.5625C128.932 51.8857 129.121 52.138 129.37 52.3196C129.623 52.4981 129.932 52.5874 130.298 52.5874Z"
        fill="#242424"
      />
      <path
        d="M34.2017 75L32.2131 67.7273H33.108L34.6278 73.6506H34.6989L36.2472 67.7273H37.2415L38.7898 73.6506H38.8608L40.3807 67.7273H41.2756L39.2869 75H38.3778L36.7727 69.2045H36.7159L35.1108 75H34.2017ZM43.4973 71.7188V75H42.6592V67.7273H43.4973V70.3977H43.5683C43.6962 70.116 43.8879 69.8923 44.1436 69.7266C44.4017 69.5585 44.7449 69.4744 45.1734 69.4744C45.5451 69.4744 45.8706 69.549 46.15 69.6982C46.4294 69.8449 46.646 70.071 46.7999 70.3764C46.9561 70.6795 47.0342 71.0653 47.0342 71.5341V75H46.1962V71.5909C46.1962 71.1577 46.0837 70.8227 45.8588 70.5859C45.6363 70.3468 45.3273 70.2273 44.932 70.2273C44.6573 70.2273 44.4111 70.2853 44.1933 70.4013C43.9779 70.5173 43.8074 70.6866 43.682 70.9091C43.5589 71.1316 43.4973 71.4015 43.4973 71.7188ZM50.5725 75.1278C50.2269 75.1278 49.9132 75.0627 49.6315 74.9325C49.3498 74.8 49.1261 74.6094 48.9603 74.3608C48.7946 74.1098 48.7118 73.8068 48.7118 73.4517C48.7118 73.1392 48.7733 72.8859 48.8964 72.6918C49.0195 72.4953 49.1841 72.3414 49.39 72.2301C49.596 72.1188 49.8233 72.036 50.0718 71.9815C50.3228 71.9247 50.5749 71.8797 50.8282 71.8466C51.1597 71.804 51.4284 71.772 51.6343 71.7507C51.8427 71.727 51.9942 71.688 52.0889 71.6335C52.1859 71.5791 52.2345 71.4844 52.2345 71.3494V71.321C52.2345 70.9706 52.1386 70.6984 51.9468 70.5043C51.7574 70.3101 51.4698 70.2131 51.0839 70.2131C50.6838 70.2131 50.3701 70.3007 50.1429 70.4759C49.9156 70.651 49.7558 70.8381 49.6635 71.0369L48.868 70.7528C49.01 70.4214 49.1994 70.1634 49.4362 69.9787C49.6753 69.7917 49.9357 69.6615 50.2174 69.5881C50.5015 69.5123 50.7809 69.4744 51.0555 69.4744C51.2307 69.4744 51.4319 69.4957 51.6592 69.5384C51.8888 69.5786 52.1102 69.6626 52.3233 69.7905C52.5387 69.9183 52.7174 70.1113 52.8595 70.3693C53.0015 70.6274 53.0725 70.973 53.0725 71.4062V75H52.2345V74.2614H52.1919C52.135 74.3797 52.0404 74.5064 51.9078 74.6413C51.7752 74.7763 51.5988 74.8911 51.3787 74.9858C51.1585 75.0805 50.8898 75.1278 50.5725 75.1278ZM50.7004 74.375C51.0318 74.375 51.3112 74.3099 51.5385 74.1797C51.7681 74.0495 51.9409 73.8814 52.0569 73.6754C52.1753 73.4695 52.2345 73.2528 52.2345 73.0256V72.2585C52.199 72.3011 52.1208 72.3402 52.0001 72.3757C51.8817 72.4089 51.7444 72.4384 51.5882 72.4645C51.4343 72.4882 51.284 72.5095 51.1372 72.5284C50.9928 72.545 50.8756 72.5592 50.7856 72.571C50.5678 72.5994 50.3642 72.6456 50.1748 72.7095C49.9878 72.7711 49.8363 72.8646 49.7203 72.9901C49.6066 73.1132 49.5498 73.2812 49.5498 73.4943C49.5498 73.7855 49.6575 74.0057 49.873 74.1548C50.0908 74.3016 50.3666 74.375 50.7004 74.375ZM57.3744 69.5455V70.2557H54.5477V69.5455H57.3744ZM55.3715 68.2386H56.2096V73.4375C56.2096 73.6742 56.2439 73.8518 56.3126 73.9702C56.3836 74.0862 56.4736 74.1643 56.5825 74.2045C56.6937 74.2424 56.8109 74.2614 56.934 74.2614C57.0264 74.2614 57.1021 74.2566 57.1613 74.2472C57.2205 74.2353 57.2678 74.2259 57.3033 74.2188L57.4738 74.9716C57.417 74.9929 57.3377 75.0142 57.2359 75.0355C57.1341 75.0592 57.005 75.071 56.8488 75.071C56.6121 75.071 56.38 75.0201 56.1528 74.9183C55.9279 74.8165 55.7408 74.6615 55.5917 74.4531C55.4449 74.2448 55.3715 73.982 55.3715 73.6648V68.2386ZM62.801 70.767L62.0482 70.9801C62.0008 70.8546 61.931 70.7327 61.8386 70.6143C61.7487 70.4936 61.6256 70.3942 61.4693 70.3161C61.3131 70.2379 61.113 70.1989 60.8692 70.1989C60.5354 70.1989 60.2572 70.2758 60.0347 70.4297C59.8145 70.5812 59.7044 70.7741 59.7044 71.0085C59.7044 71.2169 59.7802 71.3814 59.9317 71.5021C60.0832 71.6229 60.3199 71.7235 60.6419 71.804L61.4516 72.0028C61.9393 72.1212 62.3027 72.3023 62.5418 72.5462C62.7809 72.7876 62.9004 73.099 62.9004 73.4801C62.9004 73.7926 62.8105 74.072 62.6305 74.3182C62.453 74.5644 62.2044 74.7585 61.8848 74.9006C61.5652 75.0426 61.1935 75.1136 60.7697 75.1136C60.2134 75.1136 59.7529 74.9929 59.3884 74.7514C59.0238 74.5099 58.7929 74.1572 58.6959 73.6932L59.4913 73.4943C59.5671 73.7879 59.7103 74.008 59.921 74.1548C60.1341 74.3016 60.4123 74.375 60.7555 74.375C61.1462 74.375 61.4563 74.2921 61.6859 74.1264C61.9179 73.9583 62.0339 73.7571 62.0339 73.5227C62.0339 73.3333 61.9677 73.1747 61.8351 73.0469C61.7025 72.9167 61.4989 72.8196 61.2243 72.7557L60.3152 72.5426C59.8157 72.4242 59.4487 72.2408 59.2143 71.9922C58.9823 71.7412 58.8663 71.4276 58.8663 71.0511C58.8663 70.7434 58.9527 70.4711 59.1256 70.2344C59.3008 69.9976 59.5387 69.8118 59.8393 69.6768C60.1424 69.5419 60.4857 69.4744 60.8692 69.4744C61.4089 69.4744 61.8327 69.5928 62.1405 69.8295C62.4506 70.0663 62.6708 70.3788 62.801 70.767ZM64.9739 75H64.0506L66.7211 67.7273H67.6301L70.3006 75H69.3773L67.204 68.8778H67.1472L64.9739 75ZM65.3148 72.1591H69.0364V72.9403H65.3148V72.1591ZM71.7198 77.0455V69.5455H72.5294V70.4119H72.6289C72.6904 70.3172 72.7757 70.1965 72.8846 70.0497C72.9958 69.9006 73.1544 69.768 73.3604 69.652C73.5687 69.5336 73.8505 69.4744 74.2056 69.4744C74.6649 69.4744 75.0697 69.5893 75.4201 69.8189C75.7704 70.0485 76.0439 70.3741 76.2404 70.7955C76.4369 71.2169 76.5351 71.714 76.5351 72.2869C76.5351 72.8646 76.4369 73.3653 76.2404 73.7891C76.0439 74.2105 75.7716 74.5372 75.4236 74.7692C75.0756 74.9988 74.6743 75.1136 74.2198 75.1136C73.8694 75.1136 73.5889 75.0556 73.3782 74.9396C73.1675 74.8213 73.0053 74.6875 72.8917 74.5384C72.778 74.3868 72.6904 74.2614 72.6289 74.1619H72.5578V77.0455H71.7198ZM72.5436 72.2727C72.5436 72.6847 72.604 73.0481 72.7248 73.3629C72.8455 73.6754 73.0219 73.9205 73.2539 74.098C73.4859 74.2732 73.77 74.3608 74.1061 74.3608C74.4565 74.3608 74.7489 74.2685 74.9833 74.0838C75.22 73.8968 75.3976 73.6458 75.5159 73.331C75.6367 73.0137 75.6971 72.661 75.6971 72.2727C75.6971 71.8892 75.6379 71.5436 75.5195 71.2358C75.4035 70.9257 75.2271 70.6806 74.9904 70.5007C74.756 70.3184 74.4613 70.2273 74.1061 70.2273C73.7652 70.2273 73.4788 70.3137 73.2468 70.4865C73.0148 70.657 72.8396 70.8961 72.7212 71.2038C72.6028 71.5092 72.5436 71.8655 72.5436 72.2727ZM78.2135 77.0455V69.5455H79.0232V70.4119H79.1226C79.1842 70.3172 79.2694 70.1965 79.3783 70.0497C79.4896 69.9006 79.6482 69.768 79.8542 69.652C80.0625 69.5336 80.3442 69.4744 80.6993 69.4744C81.1586 69.4744 81.5634 69.5893 81.9138 69.8189C82.2642 70.0485 82.5376 70.3741 82.7341 70.7955C82.9306 71.2169 83.0289 71.714 83.0289 72.2869C83.0289 72.8646 82.9306 73.3653 82.7341 73.7891C82.5376 74.2105 82.2654 74.5372 81.9174 74.7692C81.5694 74.9988 81.1681 75.1136 80.7135 75.1136C80.3632 75.1136 80.0826 75.0556 79.8719 74.9396C79.6612 74.8213 79.499 74.6875 79.3854 74.5384C79.2718 74.3868 79.1842 74.2614 79.1226 74.1619H79.0516V77.0455H78.2135ZM79.0374 72.2727C79.0374 72.6847 79.0978 73.0481 79.2185 73.3629C79.3392 73.6754 79.5156 73.9205 79.7476 74.098C79.9796 74.2732 80.2637 74.3608 80.5999 74.3608C80.9503 74.3608 81.2426 74.2685 81.477 74.0838C81.7138 73.8968 81.8913 73.6458 82.0097 73.331C82.1304 73.0137 82.1908 72.661 82.1908 72.2727C82.1908 71.8892 82.1316 71.5436 82.0132 71.2358C81.8972 70.9257 81.7209 70.6806 81.4841 70.5007C81.2498 70.3184 80.955 70.2273 80.5999 70.2273C80.259 70.2273 79.9725 70.3137 79.7405 70.4865C79.5085 70.657 79.3333 70.8961 79.2149 71.2038C79.0966 71.5092 79.0374 71.8655 79.0374 72.2727ZM85.9573 74.0057L85.9005 74.3892C85.8602 74.6591 85.7987 74.9479 85.7158 75.2557C85.6353 75.5634 85.5513 75.8535 85.4637 76.1257C85.3761 76.398 85.3039 76.6146 85.2471 76.7756H84.6078C84.6386 76.6241 84.6789 76.424 84.7286 76.1754C84.7783 75.9268 84.828 75.6487 84.8777 75.3409C84.9298 75.0355 84.9724 74.723 85.0056 74.4034L85.0482 74.0057H85.9573ZM91.2362 75V67.7273H93.6935C94.2617 67.7273 94.7281 67.8243 95.0927 68.0185C95.4573 68.2102 95.7272 68.4742 95.9023 68.8104C96.0775 69.1465 96.1651 69.5289 96.1651 69.9574C96.1651 70.3859 96.0775 70.7659 95.9023 71.0973C95.7272 71.4287 95.4585 71.6892 95.0962 71.8786C94.734 72.0656 94.2712 72.1591 93.7077 72.1591H91.7191V71.3636H93.6793C94.0676 71.3636 94.3801 71.3068 94.6168 71.1932C94.8559 71.0795 95.0288 70.9186 95.1353 70.7102C95.2442 70.4995 95.2987 70.2486 95.2987 69.9574C95.2987 69.6662 95.2442 69.4117 95.1353 69.1939C95.0264 68.9761 94.8524 68.808 94.6133 68.6896C94.3742 68.5689 94.0581 68.5085 93.6651 68.5085H92.1168V75H91.2362ZM94.6594 71.733L96.4492 75H95.4265L93.6651 71.733H94.6594ZM103.885 70H103.004C102.952 69.7467 102.861 69.5241 102.731 69.3324C102.603 69.1406 102.447 68.9796 102.262 68.8494C102.08 68.7169 101.877 68.6174 101.655 68.5511C101.432 68.4848 101.2 68.4517 100.959 68.4517C100.518 68.4517 100.12 68.563 99.762 68.7855C99.4069 69.008 99.124 69.3359 98.9133 69.7692C98.705 70.2024 98.6008 70.7339 98.6008 71.3636C98.6008 71.9934 98.705 72.5249 98.9133 72.9581C99.124 73.3913 99.4069 73.7192 99.762 73.9418C100.12 74.1643 100.518 74.2756 100.959 74.2756C101.2 74.2756 101.432 74.2424 101.655 74.1761C101.877 74.1098 102.08 74.0116 102.262 73.8814C102.447 73.7488 102.603 73.5866 102.731 73.3949C102.861 73.2008 102.952 72.9782 103.004 72.7273H103.885C103.819 73.099 103.698 73.4316 103.523 73.7251C103.348 74.0187 103.13 74.2685 102.869 74.4744C102.609 74.678 102.316 74.8331 101.992 74.9396C101.67 75.0462 101.326 75.0994 100.959 75.0994C100.339 75.0994 99.7869 74.9479 99.3039 74.6449C98.821 74.3419 98.441 73.911 98.164 73.3523C97.887 72.7936 97.7485 72.1307 97.7485 71.3636C97.7485 70.5966 97.887 69.9337 98.164 69.375C98.441 68.8163 98.821 68.3854 99.3039 68.0824C99.7869 67.7794 100.339 67.6278 100.959 67.6278C101.326 67.6278 101.67 67.6811 101.992 67.7876C102.316 67.8942 102.609 68.0504 102.869 68.2564C103.13 68.46 103.348 68.7086 103.523 69.0021C103.698 69.2933 103.819 69.6259 103.885 70ZM109.685 69.5455C109.643 69.1856 109.47 68.9062 109.167 68.7074C108.864 68.5085 108.492 68.4091 108.052 68.4091C107.73 68.4091 107.448 68.4612 107.207 68.5653C106.967 68.6695 106.78 68.8127 106.646 68.995C106.513 69.1773 106.447 69.3845 106.447 69.6165C106.447 69.8106 106.493 69.9775 106.585 70.1172C106.68 70.2545 106.801 70.3693 106.947 70.4616C107.094 70.5516 107.248 70.6262 107.409 70.6854C107.57 70.7422 107.718 70.7884 107.853 70.8239L108.592 71.0227C108.781 71.0724 108.992 71.1411 109.224 71.2287C109.458 71.3163 109.682 71.4358 109.895 71.5874C110.11 71.7365 110.288 71.9283 110.427 72.1626C110.567 72.397 110.637 72.6847 110.637 73.0256C110.637 73.4186 110.534 73.7737 110.328 74.0909C110.124 74.4081 109.826 74.6603 109.433 74.8473C109.043 75.0343 108.568 75.1278 108.009 75.1278C107.488 75.1278 107.037 75.0438 106.656 74.8757C106.277 74.7076 105.979 74.4732 105.761 74.1726C105.546 73.8719 105.424 73.5227 105.396 73.125H106.305C106.328 73.3996 106.421 73.6269 106.582 73.8068C106.745 73.9844 106.951 74.117 107.2 74.2045C107.45 74.2898 107.72 74.3324 108.009 74.3324C108.345 74.3324 108.647 74.2779 108.915 74.169C109.182 74.0578 109.394 73.9039 109.55 73.7074C109.707 73.5085 109.785 73.2765 109.785 73.0114C109.785 72.7699 109.717 72.5734 109.582 72.4219C109.447 72.2704 109.27 72.1473 109.05 72.0526C108.829 71.9579 108.592 71.875 108.336 71.804L107.441 71.5483C106.873 71.3849 106.423 71.1518 106.092 70.8487C105.76 70.5457 105.594 70.1491 105.594 69.6591C105.594 69.2519 105.704 68.8968 105.925 68.5938C106.147 68.2884 106.445 68.0516 106.82 67.8835C107.196 67.7131 107.616 67.6278 108.08 67.6278C108.549 67.6278 108.966 67.7119 109.33 67.88C109.695 68.0457 109.984 68.273 110.197 68.5618C110.412 68.8506 110.526 69.1785 110.538 69.5455H109.685ZM113.621 74.0057L113.565 74.3892C113.524 74.6591 113.463 74.9479 113.38 75.2557C113.299 75.5634 113.215 75.8535 113.128 76.1257C113.04 76.398 112.968 76.6146 112.911 76.7756H112.272C112.303 76.6241 112.343 76.424 112.393 76.1754C112.442 75.9268 112.492 75.6487 112.542 75.3409C112.594 75.0355 112.636 74.723 112.67 74.4034L112.712 74.0057H113.621ZM122.877 69.5455C122.835 69.1856 122.662 68.9062 122.359 68.7074C122.056 68.5085 121.684 68.4091 121.244 68.4091C120.922 68.4091 120.64 68.4612 120.399 68.5653C120.16 68.6695 119.973 68.8127 119.838 68.995C119.705 69.1773 119.639 69.3845 119.639 69.6165C119.639 69.8106 119.685 69.9775 119.777 70.1172C119.872 70.2545 119.993 70.3693 120.14 70.4616C120.286 70.5516 120.44 70.6262 120.601 70.6854C120.762 70.7422 120.91 70.7884 121.045 70.8239L121.784 71.0227C121.973 71.0724 122.184 71.1411 122.416 71.2287C122.65 71.3163 122.874 71.4358 123.087 71.5874C123.302 71.7365 123.48 71.9283 123.62 72.1626C123.759 72.397 123.829 72.6847 123.829 73.0256C123.829 73.4186 123.726 73.7737 123.52 74.0909C123.317 74.4081 123.018 74.6603 122.625 74.8473C122.235 75.0343 121.76 75.1278 121.201 75.1278C120.681 75.1278 120.23 75.0438 119.848 74.8757C119.47 74.7076 119.171 74.4732 118.953 74.1726C118.738 73.8719 118.616 73.5227 118.588 73.125H119.497C119.52 73.3996 119.613 73.6269 119.774 73.8068C119.937 73.9844 120.143 74.117 120.392 74.2045C120.643 74.2898 120.913 74.3324 121.201 74.3324C121.538 74.3324 121.839 74.2779 122.107 74.169C122.374 74.0578 122.586 73.9039 122.743 73.7074C122.899 73.5085 122.977 73.2765 122.977 73.0114C122.977 72.7699 122.909 72.5734 122.775 72.4219C122.64 72.2704 122.462 72.1473 122.242 72.0526C122.022 71.9579 121.784 71.875 121.528 71.804L120.633 71.5483C120.065 71.3849 119.615 71.1518 119.284 70.8487C118.952 70.5457 118.787 70.1491 118.787 69.6591C118.787 69.2519 118.897 68.8968 119.117 68.5938C119.339 68.2884 119.638 68.0516 120.012 67.8835C120.388 67.7131 120.808 67.6278 121.272 67.6278C121.741 67.6278 122.158 67.7119 122.522 67.88C122.887 68.0457 123.176 68.273 123.389 68.5618C123.604 68.8506 123.718 69.1785 123.73 69.5455H122.877ZM125.677 67.7273H126.728L129.2 73.7642H129.285L131.757 67.7273H132.808V75H131.984V69.4744H131.913L129.64 75H128.845L126.572 69.4744H126.501V75H125.677V67.7273ZM138.951 69.5455C138.908 69.1856 138.735 68.9062 138.432 68.7074C138.129 68.5085 137.758 68.4091 137.317 68.4091C136.995 68.4091 136.714 68.4612 136.472 68.5653C136.233 68.6695 136.046 68.8127 135.911 68.995C135.779 69.1773 135.712 69.3845 135.712 69.6165C135.712 69.8106 135.758 69.9775 135.851 70.1172C135.945 70.2545 136.066 70.3693 136.213 70.4616C136.36 70.5516 136.514 70.6262 136.675 70.6854C136.836 70.7422 136.984 70.7884 137.119 70.8239L137.857 71.0227C138.047 71.0724 138.257 71.1411 138.489 71.2287C138.724 71.3163 138.947 71.4358 139.16 71.5874C139.376 71.7365 139.553 71.9283 139.693 72.1626C139.833 72.397 139.903 72.6847 139.903 73.0256C139.903 73.4186 139.8 73.7737 139.594 74.0909C139.39 74.4081 139.092 74.6603 138.699 74.8473C138.308 75.0343 137.834 75.1278 137.275 75.1278C136.754 75.1278 136.303 75.0438 135.922 74.8757C135.543 74.7076 135.245 74.4732 135.027 74.1726C134.811 73.8719 134.69 73.5227 134.661 73.125H135.57C135.594 73.3996 135.686 73.6269 135.847 73.8068C136.011 73.9844 136.217 74.117 136.465 74.2045C136.716 74.2898 136.986 74.3324 137.275 74.3324C137.611 74.3324 137.913 74.2779 138.18 74.169C138.448 74.0578 138.66 73.9039 138.816 73.7074C138.972 73.5085 139.05 73.2765 139.05 73.0114C139.05 72.7699 138.983 72.5734 138.848 72.4219C138.713 72.2704 138.535 72.1473 138.315 72.0526C138.095 71.9579 137.857 71.875 137.601 71.804L136.707 71.5483C136.138 71.3849 135.689 71.1518 135.357 70.8487C135.026 70.5457 134.86 70.1491 134.86 69.6591C134.86 69.2519 134.97 68.8968 135.19 68.5938C135.413 68.2884 135.711 68.0516 136.085 67.8835C136.462 67.7131 136.882 67.6278 137.346 67.6278C137.815 67.6278 138.231 67.7119 138.596 67.88C138.96 68.0457 139.249 68.273 139.462 68.5618C139.678 68.8506 139.791 69.1785 139.803 69.5455H138.951Z"
        fill="#424242"
      />
      <defs>
        <filter
          id="filter0_d_2246_3825"
          x="-2"
          y="13.7998"
          width="196.01"
          height="155.45"
          filterUnits="userSpaceOnUse"
          color-interpolation-filters="sRGB"
        >
          <feFlood flood-opacity="0" result="BackgroundImageFix" />
          <feColorMatrix
            in="SourceAlpha"
            type="matrix"
            values="0 0 0 0 0 0 0 0 0 0 0 0 0 0 0 0 0 0 127 0"
            result="hardAlpha"
          />
          <feOffset />
          <feGaussianBlur stdDeviation="7" />
          <feColorMatrix
            type="matrix"
            values="0 0 0 0 0.0644816 0 0 0 0 0.156308 0 0 0 0 0.365645 0 0 0 0.321034 0"
          />
          <feBlend
            mode="normal"
            in2="BackgroundImageFix"
            result="effect1_dropShadow_2246_3825"
          />
          <feBlend
            mode="normal"
            in="SourceGraphic"
            in2="effect1_dropShadow_2246_3825"
            result="shape"
          />
        </filter>
        <filter
          id="filter1_d_2246_3825"
          x="147"
          y="0"
          width="62"
          height="62"
          filterUnits="userSpaceOnUse"
          color-interpolation-filters="sRGB"
        >
          <feFlood flood-opacity="0" result="BackgroundImageFix" />
          <feColorMatrix
            in="SourceAlpha"
            type="matrix"
            values="0 0 0 0 0 0 0 0 0 0 0 0 0 0 0 0 0 0 127 0"
            result="hardAlpha"
          />
          <feOffset />
          <feGaussianBlur stdDeviation="5" />
          <feColorMatrix
            type="matrix"
            values="0 0 0 0 0.0627451 0 0 0 0 0.156863 0 0 0 0 0.364706 0 0 0 0.335518 0"
          />
          <feBlend
            mode="normal"
            in2="BackgroundImageFix"
            result="effect1_dropShadow_2246_3825"
          />
          <feBlend
            mode="normal"
            in="SourceGraphic"
            in2="effect1_dropShadow_2246_3825"
            result="shape"
          />
        </filter>
      </defs>
    </svg>
